<mxfile host="65bd71144e">
    <diagram id="qtP5EDr6MaqsbpKSwobk" name="Page-1">
        <mxGraphModel dx="1405" dy="571" grid="1" gridSize="10" guides="1" tooltips="1" connect="1" arrows="1" fold="1" page="1" pageScale="1" pageWidth="850" pageHeight="1100" math="0" shadow="0">
            <root>
                <mxCell id="0"/>
                <mxCell id="1" parent="0"/>
                <mxCell id="2" value="" style="shape=image;verticalLabelPosition=bottom;labelBackgroundColor=#ffffff;verticalAlign=top;aspect=fixed;imageAspect=0;image=data:image/png,iVBORw0KGgoAAAANSUhEUgAAAggAAAHCCAYAAACKZzEsAAAAAXNSR0IArs4c6QAAIABJREFUeF7sfQeYXVW59nt6nV6STAqThJrQQiihBwgIFqogKF4B4XpVxIIXKyJY8FfEDqgXxI4iHUQgEECpARIIIZX0Npk+Z05v//N+e1ZY2TltMpMyydp58pwz5+yz99rvLt+73q85YBaDgEHAIGAQMAgYBAwCNgQcBhGDgEHAIGAQMAgYBAwCdgR2JkFQ+8oDKLRf/fNK1uGxlFrPOfB9se3af6v+LvS52paOXyXb3VH7KDaO3RWTSsY7VNwr2Yf9+uc+d9V1MtTxVnItDnUflVzj+jW3J5zDwTybSj2zhut5MtLOocHEOmODtWGDuXd2GpPZEQSB2+TBctG3rz63A1Hu88GAXcm2ioE72HEVW39HjlfHttILcE/HpNQDVH032HNb6gYc7LZ2xXVSCpNy10Op8Y7ke8dgUtqsjITr2jz/ip9DZXOHlTwMN0Eoxr4LzcB1RcFOJoo92PUZn/2GL7SPSoxHqVnlUPexI8Y7GKY5WEwqUWQMJu/NEMrhW6lB3RHXyY6+rgdzr1fy0NqR13Wp81BMHSx3bodzvHvydTJc+O4Mm7C7PP90Y2+3k5XeS5WsV3adnUEQlPEvBn6pQeqMUa1X6DP7PuwA63Kfvr9i4A92H6XGtrP2UYhBquModzwGk/cQKHbNcQ07xuVwLff9rsB9T7pO7Phu7/U+0jAZzHhLYbKznk07494ZDCa7w/O6ECZlDXaBZ1Ch39jdPJVst+A6QyEI5VwJ+rb1ARf63L4t3UVhd1dUavx10lDpe/t6xYjH9o63UpIz3OO1G6Ji+Bb63GBioVfMGNlvrEqvjVLX9Ui5Tkod+1CuuUKGazDGv5JzUOl1XelxFHvgV0ISKxnv7oTJ9o53pFzX5e71QtfijsJEXVfFyFyxya/Cutz3JcnD9hAE+2+K+a64Xqntq+/sB15u+/YD3252pP2wlLQ0WIyGc1vFjm049zHYbW2PEjTYfWzPOR3OfQx2WwaT7Tlj2/5msLhvz16Hcx/Dua2dca/vjH2MNEwGO94dea9XMvMvpJTws2KTO524FiOrRe+jwRq/Ysyp0HYKEQQ7KSg0A9E/256TUYylDvZCKDZzKPX57jLeYifcfoEMJyZqW5Xuo5KHe6Xb2hm4D2W8lR7HUPZh/63BpHICMpy4D+e2dsY5rGQflagg9pluJThsz7O0kvGO9OdfIWNvJwbqb/urOleFPtfJQkXnZzAEwb6uThb07wq9t5OFQuvoJ17/XgemGEGxX5xqW/aLyb4tXY2wEwtd2Sj1vtw+9LGU24d+YdhPZiWYFMNB/7zceIeKiX6M5bZV7NzuzPHq11Sx8ZY7jnK4bw8mQ7nmhjpeg8nWaWqVPk8Gc68Xumb2xOtkMJiY5997ZrsQbvw2p1l2/fnJ9/a/1ar8TSFlvixJqJQglCMH6oHCiFX9Ile/U5GspYgCf6e+t7OlsgdSwEdc6jfFGLHdgA/3fvXtlRvD9q67vb8rN55y32/vfrf3d+XGU+msZ2+6TgaDyWDW3VHnsNi5KXfuBzOe4dzWzhjvztiHwWRblHcmJpWoBRyPIgt2cqAIgf65eq9nlZS1s4MlCIVm+WobyrjrpEA3+uq9nSwU26adtRdil/pJKzbr0T8vNRMotC01Zn3fhWbgxfahfq/PFuzbKrWPQhjY91XJPvTzXG6b6tawM9hy+FS6j8GMtxDu5cY/GHwLHWuhc7k7YWK/lnbX8e6Me6fSa67YesXGqH9e6T4qua4NJoV95cWe44O510s9Yys9h7vDdVJKIVDHqF51AlCILKjvFb7q2ajbsJIkoRxBUN/bjaIiA4UIgE4U9PdKXSj1W/t+1INZH4d9dqCDpq9fSKKxXwBD3VahfdgfFCNhH7oBHAnj3R7ci10Pe8p1sjecQ3Ov63fne7Kx/SFfaBKhP5eK4ThYfLfnPtwd97Er752tz6j1l27Iy5ECRQL039jJgn59FHtfaBwVZRnozEw3sLo7ge/txKDQZ8UIg50IFCMuOtO0G7KSTKjA0W/vtor9rhDAw7mPwW5rMOO0Eyv7sZTbVrnvKzlXg9nG9o53Z+yj3NiG8zoZjm0VMyYFHxgDHw72WiyFyWC3taedw0LHYzAZfM2RwT6zhuPeGa57vRDR0tUBZdto+HVCoL8v9Z1OHgoRhKL3VCUKghq8vq6uApAIKLKgSIF69QLYB8DhAGoAuAaIhD1WwU4QCp3sQiyvlCKg19i3G6hSDNr+nX0fOpjl9lFuW/q47D0BdKl8Z4230EykEtx1TMqpPSMNk0rHW+o62ZsxUdeG/SG4ozDZm+/1Ys+TvRmTwTyvd+Xzz64a8Jxx7LrLQb3PAugFMA/AKgBpjThwHbWe/p7b05UF9Vwrdh/KNVOKINi/K6QYcBu6UkACIH97vd4J9fWNn/L7w7O83uBop9MZ1ohEqdmJ+c4gYBAwCBgEDAIGgcII5HK5XH86Hd8Uj/fP7urq+XUqFV0zQABINEgglLqgSIJONnRFotgkd1AEQZEFu1KglASlIqhXb3Pz6G97PKGLI5FYbS6nkyBzzg0CBgGDgEHAIGAQGAoCLpcLVVXBnkwmes+mTRu/DSA1QBIUKSAR0N/bXQ1l4xHKKQjcgB5cqCsGujuB75V6wPcHtLbuf1dXV2R/Qw6GcgmY3xoEDAIGAYOAQaAwAk6nE42NNUtXrFh8OYClmnpAFUF3Mai/dVeDcjMUCzYt6GKwxxqokRVSDxQxUOSAr/z/4dbWg77X0dFVvatPrMPhQNOoMaiurd/VQ9lr9k9S2Ll5E/p6u5HPDzZ2dK+ByRyoQcAgYBAYMgLNzY19K1Ys/AaAfwwQBEUG+KreFwpu1OslqHFs9cAupiAUC0hUQYb8XrkTFClQJMEN4IrW1inf7ujo1OMWtgGi1uNBk8+DrnQanUnGWWy9NNW4UBNyYnNPFn2xbd0UngYPHD4HMl0Z5BKF3Rj+QBCjx46H2+0Z8okwG6gcgUQ8hraN65FOJSv/kVnTIGAQMAgYBAaFQGNjQ27VqnfoYrgLQGZAOVCvupKgXA52slCQHPDDQgTB/pmKM1CkQL0qskBCoEiCev/J1tYp3+ro6Cx6oAdWh/ClAyZg/6og1sUS+NnStZjb1bdl/RMP9uHqc0JoqnXinVUZ/Pi+fqzcxGO2ltDJ1Qh9qA5OrxPJhTH0/rEduQIkIhgKY9SYcXC53UA+j2w2jXyOmGmLA3C5/aDaYJbhQSCZiKNt4zqkkoYgDA+iZisGAYOAQWBbBBobG7Bq1Ts3aQSBhpJGTpEE5WqwxyYUypwoqyBw1s8N2QsbFYo5oEUlKeB/fs9pOv9f3to65RvFCILP6cT1U1vxuf3Gw+lwSLjlX1dvwlfeXI6edAaNNS787NPV+OAxXtBmZ3PAzffE8eN/9Ml7b4sP9TeOhXuiz0Irm0ffDzahb07PNujpBCGXTSMe7UCwdTLcVTXIxqJwuN3oe2ce/KEmeLxBc/0NEwKVEITTTpuJp59+dpj2aDZjEDAIGAT2PgQGCML3NIJAOV65F3Q3g8puUDUTdBeD3q9hC0kopSDoygFRt2cq6C4FRRJIDvj+stbWKV8rRhDCbhd+Nf1AnD+uacvZnLO5G//z2mJsiCcxaYwHv/58DY45kLuwlj89ncI1t/Ugk80jMDWEum+0wNnMXVlL4k/d6Lh7U0mCkM2kkEz1oubI45Du6URw3ESkujvR++Yr8LrC8PhC8vvmpkb87NbvoLcvgq9/83uorq5GMplEPJFEQ30d+vujyOVzqKmuRjQaxazTTsZTs5/FprZ2TJ1yAD7x8Ytw609/Db/fBwaRdHV1o76+VhSKzq4e9PQwhXXPWEaPasbo0c1Yv34jGhrq8O6K1Uin06iEILz11ss49NAZewYQ5igMAgYBg8AwIkB7UVMzYHviCbS0jEFnZyeSSSYrvLcMEISbAdw9oBqQIOgqgl1JsGc3cGMqUJHvt/jrC7kT1J51gqDe68GIJAyKGOgEgSThE62tU64rRhA8TgeumjQW35o6ESG3C8lcDr9YuhY/WrwasWwO4YATN1xahSvO9MPjAvpieXztrij+/DQNM+CudaP+uhZ4j7YMer4ni66b1iP+VrQsQXA11yMwcTICoyfAU1WD6OplSLStR3zRki0EoampAd++/svo7+/H3/7+ED539ZVYu3YD5r42DyefdDwymTSWv7sKfp8Xby9cgjPfdwruuvuvWLpsBc4950ycd85ZuPWnv8HnP3cVFry9CGvXrsclF5+Hp556Dn2Rftzz9wexp2R3hEJBXPbxixAKhfDcv1/C3Nfmy7EVIwgkTKeeejIOP/xQXHPN/+DnP78Da9euw+OPP4W+vvdcTMN4n5lNGQQMAgaBEYcAn5UnnDAD9fV1iESiOPLIafjtb++WCWcBgvBDAL8fKJqkCIJOFJSSYK+ToMiCXlBq0AqCUg+4ET0oke+VasBXVk7k68dbW6d8uVQMQp3XjXPHNuH4plrM647gH2s3oy3xHjNqaXDhIycHceAED557K4lHX45vFajoGetF9Rl1cNa5EHs5gtir/chnto2Y110MVBDyVT7UzzgJTjfdE9b6XfNeQHZ9+xaC0NhYj+uu/awYur/9/UF85KJz8fy/X8YR0w7B24uW4szTZ2Le/LexcOFi+P1+jBs3Bk/Nfh7rN2zET398kygMnEmfeOIM/POfsxEM+nHxRefhOzf/BIcefBB+e+ef9xiCEA6HcN2XPoONbe1YsnQ5nnv+RWSzxQkCWfHkyRMxZsxo3HnnbfjkJz+D3t5eLF26HImEiVcYcU8xM2CDgEFghyHACdjZZ78fU6cehNtv/z9Rau3LgIJwC4A/DhAEGlKdJChyQCVBJwh6eWa1WRXAKH8XUhD00sp6ISRFDlRqo64e6OSAJOHS1tYpXypFEHYYorYN2wlCItqO6sOOQrJjE6r2PwSJjWvQu/ANBELNWwhCKBjEoYdOEffAhvWbcMyM6RJst3FjmzA6EoOu7h4cf+xR+PM9D2DKlP2xatVarFmzDu87fSaenvNvnDLzeHzkwnPw8suvY85zL+KbX/8C5s59A08+9TwWL12+sw5/h++ndcI4pLNZdHZ2YdzYMVi7boNIYJW4GObNewHTph2/w8dodmAQMAgYBPZUBAYIwq30xA8USyI5IEkgIVDxCHwlIdCzGhRBIDQFu0gWi0EoVDlRL4akshX4qsiBUg84Nb+ktXXKF3c3gpDLZpCId8FTVw93VS0ykR64fH7E1q+CP9gAtycwrNfQ6aedhKeefl62efosxik8N6zb3503VglBOOWUkzFnzt6Dye58vszYDAIGgZGJwABB+AmAv9gIgq4k6CqCntWgl13WVYSCCgI/LNRzoZR6oIgBiYJ/wM1AgnDN7kYQhCYVSXN0unwmzXEY749KCMIw7s5syiBgEDAI7JUIDBCEnzMZcIAg0FdLcmAnCHp2g4o9UOrBoBUEve6BXhhJqQZ6YCJJApUDvpIkfKS1dcrVuyNB2CuvoF1w0IYg7ALQzS4NAgaBvQ6BAYLwS40gkBiQJChXA/9WdRF0F4MqLLRV3EGxLAYVxVgoe0EvqczAxELkgAoCNXqShIv23fewz9IvvasXfzCIxubRcLneS4nc1WPaG/bPmI2OzRuRTm2dkrM3HLs5RoOAQcAgsLMQaGiox/Llb/4KwN8HiEFigBwoJUEFLKrUR3sJZnsbaA5dXA8q1qBc9US9rLIenKjHHSj1gErCRTNnnf/pPSnff2edbLMfg4BBwCBgEDAIVIpAbW0Nnp19/+0DBIHkQBEDO0FQgYqKKOgtoe1VFYdEEOypjSQF/E/3Av9fOHPW+Z8yBKHSUzz86yWTccRjESkvbRaDgEHAILDdCDgArzeAQDAMh6Nke53t3sVI+2FDKIgT998HbtfOx4MN8N7Z0I5FG9sFtgGCcMdAsyYSBDtJIDHQVQR7NgM3o2c0bFMHQSkIeoqjKq2s916wuxdUBgNJgU4SPmwIwq675LPZDPp62kGSYBaDgEHAIDBUBEgM6hvGwOMdKG8/1A2O8N+/7+B9sXRTB/ptVQ131mFdfMyh+MXsl3WC8OsBgkDVQBEEvtdjEfQ4BHs7aJ0gcLtbKQj6cRXqwaCqJqpYBNVzQQUn2hWEC2bOOv+/yykILpcTuVy+bEtg1iMgaxpM62D+hqWO0+mMlP7dExa32yWFmVhsKJvNIh5PFMSElR57uzcjnd628JDPZ2VrsHT0YPDcE/Azx2AQGEkI+LxeJEvE8NTV1aK7+73+M04H0OjOYkZVHPsHgVQuj9cjHrwd86I3W36mG+AqeRfieVszuwHQ6htb4PVyLjhyFpYq5nMyNcyxUBdMn4qnF727y4D46DGH4rY5r8r+62prMGf2/b8BcN8AObCrCEpBsFdW1Asl2YsmSUyiPQaBrEFdSXr1RL2CoiIHys1gJwcMVDx/5qzzrypFEAIBP6prqpDLZNHeUTyYkYa+ob4WLpdL1qNhLLcEgwGcOvN4qVbI/fRHY3j6mf8gk3mvG2S5beyO3x9+2MFoGdMslQp9Pi/mv7kQa9au32aohQiCx+PBgQcdhImTJgkx6OnuxosvvLAVnqyKOG7cOCxevKTs4e+372S4PW7EYnGsXr2m5PrhUBDJVHoLUaupqRHyxiwXkhVG4fb1RRCLxcCHnsvpQld3txSqampsQG9fn+zHLAaBvQWB5uYmnHTi8Xjl1blSqr3QcuaZp+Nf/3pqy1eNnixuONSLE44/DlUtE5HLJLF5+WI89vwruHlFacPOB/z7a5zwx8fj/tTqgRqzW+91VxIE6UtQHUR1VRDJZBodXX3yHCy2cCLF3jCXfOQcLF26Qirh9vSWLuU+flyLFL3zemjarGXZuyvl9/bS+HaC4GPLgEwWfo8bifS2dibo9UhBuXSJMduPZUzIh6n11Vs+ntfeg86ENdnVCcKAi+G3BQiCymZQ6Y6FmjjpcQjcdMFKiqVcDHqTJntTJruCwHaIJAxUEK4sRhCqqsLCenjCGhvqsWLl6qInmrNmlj7mjLexvgGb2jYj0r9tzwW1ARKJ8887CwsXLkVHZxfOmHUyzj37ffjqN74v/RNG8nLu2Wdi0eJlQpSmHX6w1ORmyWf7UoggHHzIIfjA2R+Sssbr163DEUdMxwP33Y+33py/5efjx4/Dme87XTos7rffZLw69zW4XW4ccshULFv2LmLxmPV+6btgJ0behCQey5YvxwsvvAz2sJg8eRLmvvo6WCJ0ypSD8Mqrr+GLX7gaL738Cl5+ea6QgMMPO0Rubo4lGArC43IL2Vi8eCmmT58m6/CamDypVdi/0+XEokVL9hglaCRfg2bsOx4B3lcTW/fBEUccJr1cSMB5r9gXO0GY6M/goc+egfBZVyHbuQHOfB6OxrFY/aMrccoTxZ+Z3G6LB/h+iwvd7dNxR3wFluQ7ttnfriQIoZAfs06ZgXPO/iBefvkVPPzobGzavHVPAn3AZ73vFJx/3gekuitLuK9ctRpf+fr3Sz5Dzv7gGTj5pGO3Uht6eyO45+8PYdXqtVvhoRMEkpcPHLo/Hn1zCS47fhrufmHeNtgdO3k81nb1Yl23RVL2ba6XTsXL2opPjkMeF+r9NLHW0h5LIjFAMAoQhP8roiDoLgYyF3sr6EIEQRGFrUot65kMKu6AK6oGTcrNUChAkUdB5UAFKZIgfLIQQairrZYOVWvWbYDT4cSEcS1Ysar4DJQEgc0qurp6RAFg34Pu7l5Eo7GCdyqN1FHTD8PjT8yRmXJ1dRVGjWrCsuUrVOuFHX+H76A9kCC89MrraGtrxzFHT5OSxlQRKiEIHzz7bBx1zNFYu2YNVq9ahRNPPhmbNm3CbT//xZaf77PPBFx15WUIBIJ47fU3cOIJx2HFuysRjUdx4vHH4867fo+jjjoChx5yCJ6Z85wQhP332xdtm9uRy2WFLHR2deGYo47E3Lmvob6hAW+/vRDHzjgGc557Hn29ffj3f16U83/M0Udi3vy3cNihB+O55/6D448/VsZDXyfVAsZCHX3kdNx734OYfsThWPjOYsTjRkXYQZeW2exuggCNzRHTDsPoUaPhcjuwua0DTc2NePLJp7dxN9gJwhhvFr87LoQDr7kFqTUL4axtgruvA0/+5hb899ulW9lfVOfAjUdOwn+iR2Hhq6twR+Y1JMSWvLfsKoJATCaMbcLnrv4kTj31VHR0dODaa7+Kpe9uEGWy0MKJ4UcvPhfjx4+VrznRuPE7t+C1NxYUda2yTP7qNeuweMlycBLLJnz7TBiLBQsW44mntm5LrxMEp8OBS489DH94cT6+ctaJeH3Vepxx8P5YvLEd/1qwFJ89bQbyyOOheYtxwZFTsaG7D9FEChOb6vD3uQtw6bGH4/G3luLZpau2GltTwItJNVZDQi6LuyPoTVrnpABBuBPA/QBoGFUMAl9VwSRVepkSvMpm0CsqcrPbFEsq5WLQiyPpdRCoIpAQqFfdxaBIAl0MBQkCpeW6uhr0R6JIJFMYP3ZMRQSBZIOuA6/HK22YqSgUWpgTeurM4/DAQ/8SQuF0OnDk9MOx4O2Rb2BIEF6dO08Y8UEH7odoLFYxQTjtjNNx0sknS4fKSG8fWsaNFaJw52+oTFkLCcJ1X/4iFi9Zij/88S+49Zab8fob8/DEk7NBtwC/P3XmyTjk0Kn405/uEYKwub1dHl43f+9GvPYae03Mxu23/xy/+e3vcPqsU/DEE7NBZeKNN+bhrQVvI5lIYfSYURgzerQQHF4L7yxajKlTDsKqVWtEheiPRhHtj8kM6rnnX8C+kycKQUgkeL2bxSCw5yJAY3jA/vshlU6huqpKJjaHHjIVb7wxvyxBqHLlcGNrD87/zP8iM2oSnB4v3M/9AV+790X8pb2qoNuASNa7gXsPDGPCJz+P2LRZ+OdHb8U/297EC9m1yGm/2lUEYVRTLc750Gk455xz0NLSIs/+Rx99FPc/+DgWLVld0OBzUvnJyy4WIy+WL5fDosXL8b9fvWmbdsnqatIJwkknzMC4saORyWaRiCfx8GNPbnXR2QnC5SdMxz2vvIlPzTwa81dvQDqXx76j6tEdjWNzXxT14QB64wnUBv1oqalGVywuRGFiYy2yuTwiyRQeX7AM2dx7NrrR70GrRhCWdfejN1WWIHAWpccg6KmOhWIQVOyBvRZCwTRHlcWgxyHo8Qf2ts5UEwoRBCoIVxRzMXg8bjQ21EkZBr/Pj5UlfNhUEEY1N4EBjTQobJLEwMNiC/3Wx86YLsxv3vyFGD++Rdjgw488UfJ3I+GRc8F5HwAVmE1tHdh331Y8+9yLFROE5uZRuOzKK8SvH4tG4fP78ejDj2DRwvcUiFGjmnHG6adJDACNf3dPF3p6+jBp0kSk0ylpVrX//vtiwoTxmD17Drxej6g5c197HZdcfCEikQjoO+3s7BZZ9PjjZ+Ctt96WG5jrvvvuCixZslxaPbtcDmmhTQ1rYusE+c3KlaswbdphokYsXrwM9Q31aBkzGu0dHVi5YtVWN89IOF9mjAaBwSKgE4QVK1ZJG/VKCYLLAXyiuQ9fO9AB5xmfgrNtBXpeeQyXLqjCwth7UrU+Jj7cbxzjxGEth2LTyR+Dd3QLljz0Mja/+ioey7yNtvx7roldRRDGjmnAh88/C8cee6zELPF5smrVKvz1ngew4J13JdDdvpx3zpm47L8+gqfn/AcTxo/FxNbxuOZL3yrYDVH99uijpqGhvg5Ll61AKBTAIQcfJHEMy5auwONPzilKEDimDx12AKgktPdHEXR7MHlUPdZ19eHNdZtwwr77yHOOLoYDRjcKaVjT1YtJjXVYsKENU0Y3YcH6zVi2uWOrrPQJVQFMb67dst8XNnZhc8yaGBdQEO4acDGUIgh68yY9i0GVXdaBrCiLQaU6qvRG3c2gkwNFEpSCUJIg8ABpqBi8ls1lEY0Wl44JPpUDXgScQVYSec84hDFjmjFxn/ESr7Bk6Yo9Qp7ef79Jwmjb2zvR2jpeLna6XuxLoRgE4hiuCuOgg6bA4/ViyaLF6Orq3Cr4hueEbgKqLiRu/dF+IXHsbplg1kMuB38ggHw+J2SND5dcPi9+PWZHcKFCxHbXPAeBQEAUC27P7XYjk8mKf8/ah3OLr48BlyR9DEDldxyryjzRvxvsw9asbxAYiQjsM2E8Tj31ZLhdLnneLXj7Hbw69/Vtnn12FwOPtc6dwxfG9uKKsUl0pYEfrA7jvvYQUlvi0bdGZB+vF6dUH4tOtCLjtu7hfDYHZ7If78bmYmlmhcjjXHYVQeDkcMK4ZlSFg1sw4PNi7fp2RGOFVcWWMaNw8knHiWugdZ9xqK+rwzPP/mebYEMdDU4kj5txpNgbtdB9+taCRfJM05dtgxTd8LpdiKXSOHhss0xmGF+QzGQQ8nmlHk0ym0XA40Eml0M6k4XP40Y8lQYDGBngyCBGffE6nQh6aHqtpT+dQWaADOkEob62Bs/Mvp8EgS4GnSAoV4PKYtDdDIogKHJQqPXzNpUU7VkMupuBI1VEwd6gSREEOrqI7nmlFISReNOOpDGXSnMcScdhxmoQMAhsHwKn1sbRlnIVVQ62Z6u7iiBsz1h39G/Onz4FcxavrGjCuiPG8rEZh+FXz7wimx7IYlAEgaRAkQRVB4GvVA8K9WTQCYLww4HxlnQx6MRAL5RUzMWgghNJDlSa4+Xl6iDsCODMNulvyyLS24l4nAqAWQwCBgGDwNAQcLs9qK0fBbe7sKtiaFsfeb9mVgKrKEYSqZ0e/E5F5ZCxo3D3C2/oBOF3WhZDIYKgVARVLImKAUlDRWmO3FGpLAaVycBXvQ6CnuZIkqC7GAxB2IXXfTaTRia7ZxSI2oUwml0bBAwC4hJ2CTmg+88sQMDrQXNVaBu3wM7ARtyzmSw291kTwAEFgQTBnsVAoqCnOao6CCrVcUhZDHo3hktOAAAgAElEQVShJBV7oLsY+F65FlQfBqMg7IwrxOzDIGAQMAgYBAwC2xIEkgKlINCloOIQVIBioToIiigQz60CFfU0R5XBwJXs1RSVglDIxaD6MAyrgjC2ZTSOP+4o+LzvVbUyV4NBwCBgEDAIGAQMAu8hwMDxz376CsYgPKCRA6UeqDRHFaCoV1NUxMCexbBNsyYdb5W5wM9UCKUeoKhIggpUVPEHVBGGzcVw4vHH4Ls3fVUKHZnFIGAQMAgYBAwCBoFtEWCmi9Pp1AmCHoOgiiXpCoLuYqgoi4F7leYMmnpgL5REYqCIgiIHhWIQhiVI0RAEcyvsDQg88cQTePzxx3HJJZfgmGOOwaJFi/D73/8e//Vf/4UpU6bsUAg6Ozvxpz/9CStWrJD9MOf+pJNOwqxZs6Sq5W9+8xtceeWVmDBhQkXjYGEy5qc3NTVJYa3BLM899xzuv58uVGthT5ALLrgAkyZNGsxmzLoGgb0OgTIEoVChpFIEQcevYLMmEoNKshioGJAw2F0MTHVkmuOQghQNQdjrrvO98oBvuukm3HDDDTjrrLNwzz334MUXX8TFF1+Mv/zlL/IZa3+o+hBer1fe0xCrjp6sP8G/+TnrTqjPVdVJFrxiTQpWkuN/vleBZitXrsTHP/5xvPvuuxg9erSUsCUxmD17Nqqrq/GBD3wADz30EI466igZB/fDOhXcJx9KrGnB/6xxwc+4HZKaW2+9FZ/97GdlHf6O++M4GFzFKnj62PkZF/7mq1/9KiZOnChjXLNmDQ4++GA88sgjQji4HdbGUPvnNjge1ZWU++d3PEaW5LaKc3nlv1kMAnsyAgP3daE0x2IxCCqDwZ7FoESCLeUc7ZkLKg5BEQR7HQR7DIJREPbkK88c2w5HQBGEffbZB9/5zndQX1+Pj33sY0IQwuEw/vCHP6Cnpwetra1idBcvXiyKA41oW1sbjj/+eCxfvhxUAz75yU+KMX/wwQfFsNKIkmScf/75WLJkCThLP++882RbXBRBOPnkk3H11Vfjtddewxe+8AUx1EceeeQWgkACQDWhvb0dY8eOxTXXXCOEhJ9RMaBaQKLx/PPP48Ybb8S5556L66+/Hi+//DKeeeYZIS4cw4c+9CHccsstcjwcO4+d21MEgd/dfffdQjK++c1v4vXXX8e9994rxbbuvPNOrF+/Xta/6qqrcNBBB+Hvf/87nnzySWnuxRr9l156qYyBvyGhmDp1Kr785S+jqsq4KXf4hWx2sMsQGFAQVBaDClKkcqBKLjPuQMUg6A2b9BgE5WpQx1G0DoK9zLLKZlDuhXJpjsbFsMsuFbPjkYYAjSSNKqV8GmySg89//vO466678MILL2D16tVCAn784x+LQd28ebPMtv/7v/8bDzzwgBADGkySAs60+R2leaoQnD3T4JJk8He33347br75ZiEROkGgakDSQAWhq6tLCAiVAaUgkKxQHaALRKkDJAU/+9nP8KUvfUkMOY06jfcVV1whZOOQQw7BddddJ6SGZGDOnDl46aWXcOGFFwpZIWHg8dTVseS6pSB8/etfx2GHHYZgMIi3334bp5xyihz35ZdfLtu49tprhSjQ+NM1QiIyY8YMIQJUXrgvrkPyRCLE/X33u9/FtGnTRtplYcZrEBgUAg6Hw04QVPaCPUjRThBIBFQJR73V8zYEQc9isLsZimUxVKwgUEpkTX+2MVWy4qZNbYjG4iIJcnagL8bFMKjrw6w8QhGgkeR/yvpf+cpXxMhy1k0DSENHVYEGle1+f/SjH4mk/re//Q1//vOfZTbOdTnzp3rA9UgASBBIFnif0bDSqJJ40LDS+FIR0AnC5MmTxXDTKJNE8D3XVwSBUj5VhXfeeUcIxP/8z/+I0aXaQBLCeIEf/OAHOOCAA3DggQfi5z//uRCS733ve2hoaBCy0d3dLWPlsZKMcOwkB8rdQYLw/e9/X5SH8ePH43e/+52oJZ/73OeEJHzqU5/C1772Nfkd13nqqacErwULFoh74xOf+ISM56Mf/SheffVVUTUYS/HLX/5SVBmzGAT2VASKKAg6QaCCoKopblcWg3I1qCBFnSAQV3sWg64iqOwF9VpQQaB/cOrUKVi+/F2RDLmcdeYZqK4KY8269XjpJatspFoMQdhTL2dzXDoCiiCsW7dOghO//e1vi8GjsSQJoJRPSZ/kgDI+jS0ldH73k5/8BAxyfPPNN8VA0qByVs8ARxpTdr7bsGEDzjjjDIwZM0YUAhIQkgSdINDFwNk3x0D1guvSCJMg3HfffeIaYLAgDTCNMv+mwabBX7p0qXTW4yz+W9/6FrgtRWR4LL/9rdUtlO4JqhokHiQXPD7Vv0MpCDT+JAbc1r/+9S9xM/zv//4v7rjjDrzvfe8TckECRBIzf/58cWEwqHPu3LlCCv7f//t/oKvmP//5j2Dy7LPPyjY4ZrMYBPZUBIoEKQ7WxaB6MSiYKm7WpFwMehYDCQLVA6UgqEDFooWSChEEdvhj5PSBBx5gCMKeevWa4yqJgCIINORUBz784Q+LEsAZOYkA/euclVP2pyuBcQn0vSuCQB88jSUJAn/32GOPicxP48vAwLVr10qsAGf/NKC//vWvccIJJ2xFELhvZipQHeD+SDyoCpAgcAxUJ3j/Tp8+Xdwap59+Oo477jjZFt+/8sor4hqgynDEEUfgxBNPlKyMH/7wh6JkMIiKAYYPP/ywHF8xgkAXAwMTOW66NNi9j9u47bbbRFGZOXMm5s2bJ4SHrg26EUhcmpub8fTTTwu5+r//+z/09fUJyaCLgcfMfZrFILCnIjDMWQyqBoIELOqFkoifPUhR1UTgq6qiSKKgCALfV5TFUIggzDz5RGTYxS+fMwRhT716zXGVRIBBfow9YJwB5XrK/DTUlOsZG0D3AY0gv6OxpeGnfE8DSOPPGISjjz5aZtI07gwuZNoi4wLoGjj88MNlW/wN98PfKb8/XXskDnRfcKFLgtI8jTTdEW+99ZbEEjCjgCSEigTdHsxwIKHgrJ0Bkvyc+6VrgHET0WhU9kvVgMfD7ZIU7LfffrIdBg3ymJSrkfvmsSxbtmwLVnxecHt0R/AY33jjDRkHFRAeL7fBsfM4SUA4TjVWkgiShH333VdwJeEwi0FgT0VAIwjME9abNZWqpKh6Mth7MRCmIWUxkCjY6yAokkDtku/Pt6c58sFy7IyjMXnSxC0dsDa2tcHlckv8wYIFC7c6f8bFsKdezua4DAIGAYOAQWC4EBimLIaSLgZ7Bw57mmO5Zk0kDMq9YLIYhuvMm+0YBAwCBgGDgEGgBAI2ghDT+i+oQEUVpFiuWVPJLAY1BN3toKc4qoZNysWg3AyqYZPqxUCCwEJJVwyl3bNREMw9YRAwCBgEDAIGgfIIlElztGcxqEJJ9l4M3JFOEra0eNazGOzqAX9USRaD6slgCEL582nWMAgYBAwCBgGDwJARKBCkqAokKQWBsQhDKpSkD1IVStKJggpQ1Isl2bMY+DdjEIyLYcin3GzAIGAQMAgYBAwC5REokcWguxj0aooMUOR/FXdgr6jInRbNYrC3elZEwV5JUQUq6i4GFaRoXAzlz6tZwyBgEDAIGAQMAkNCoEShJJXFwFdFEBQ5UFkM3Le9kuI27Z6LFUqy92Jg3AGJgj3N0Z7FYAjCkE65+bFBwCBgEDAIGATKI2AjCFQNGKhYrlCSikOwpzkWjEFQkoIajSIG/FspB6oWAskBAxV1F4NyL6hAxW3SHMsf5tZrmCDFwSJm1jcIGAQMAgaBvQ2BYcxi2FL/YCBYsWCQoh6DQHKguxgq7eZoFIS97So1x2sQMAgYBAwCuwSBIlkMdhcD3Qxs1qTcC/YYBI59i3uhVCVFRRLKEQSqCYxBUMqBejUEYZdcJmanBgGDgEHAILA3IVAki4Ftn+lmKNfNUScJiiBsE4Og46nKK/Mz9V5Pc9RjEEgQVHpjyWZNgz1hxsUwWMTM+nsLAiybzN4GbKrE8sksO1xbWyulilmamP1N1NLT0yOlm9nEiNVM9YU9GNi4ib8tt/AhFIlEpPMqex+oLoz8nNvnwi6RLNXMRZVvVn+zqyRLL6uF5Y9ZCtksBgGDwNAQGGQWg1IPymUxyKD0CoqS1jBACtR3qlCSKpKkXu2lllUmA59MBUstc4MulxMOhxInLFDYrY4HaF8MQRjaRWN+vWciwHuFXR/ZZfHuu++WRk4XXXQRPvKRj0jHQ/ZkYKMl9iegwWa3R67LBkyBQEA+p3EnWWBTJzZuYpdI9j54/vnnt7SRJungovolsO8Cu0SuXr1a2j2zBTO/Y5+EUaNGybbZqOm5556TdS6//HIhJezOyIWtn9kGmutzXTZ+YjdIEh1uh/vns4Dj4zFyfPzPfhL8nMdiJzh75hk2R2UQGBwCBbIYVJCiriDoWQzKzaDUA5IFZYQrdjHoGQx8X65Zk15q+Vx7JUXOVI6Ydhhqa6q3EAI+FFasXI2F7yySh4C+GIIwuIvErL33IMAuheycyE6QbL3M/1QO2CL5H//4h3Q0pCFmo6KDDjpI2iGfffbZ+OUvfykKAI3ypz/9aekYycZKnOWzOyMbHJF80JDTIFMFOPPMM+X9Qw89BDaWotrAVtJsiERiwLGw2+N3v/tdafJEVYD7J4FgV0e+15dTTz0Vl112mRAadmlcsGABGhoa8JnPfEbaM7N9NNtSs6kUO0KyEyUVEzZu4jrsZmkWg4BB4D0ECjRrUoWSVCYDX1X8gSIHerMmFZyoyEHRZk1qr8V6MVQapLhNFkNTUyP2nTwZGzdtRC5r7Z8d6saMHoW29g4sXfpeJzd+ZwiCuQUMAoURWLdunbR+njx5shhUdjikoaWSwHvqj3/8o3w3Z84csIUyjTgJwO23345rr70Wt9xyi5AFGm8qBSQIbCFNwvGHP/xB1iM56O/vxymnnCIzd7oX6M7gOnwgsf0ylQASBxINGnmSB35/ww03yHZJRNgSWu/aqAgCx0fycccdd+Cee+6RTozsXknCwq6PJBhPPfWUtLE+9NBD5TMSE9WJ0lwbBgGDgIVABc2aSAoUSbC7GFSRJG5qUFkMyr2gyALJAT9j3IH6T1dDoV4MBQkCScKSJRYROOaoI3HggQfA7XVLJ8eXXnrFKAjmijcIVIAA1bbPf/7zIt+TANCtQAO/ePFiMe5sjTxz5kwx8nQ3vPjii/L68ssv4/7778eFF16I66+/XtwJJ510khhdug3osuB/RRwGHjwyIrZ1/tznPidug5tvvnmLoWY7Z5IHzvK/+MUvCgG57rrrhKjQPUBVg0qGWhRBoHrIfbKF87e//W0wRoHqANtA01Vx1llnSdtqjmf27NlCHqiOHHbYYRUgZFYxCOxdCAwxi8FeKEmBl9cbM1FeUH/bqymqbo52BUEFKeqZDAV7MZAcKIJAyfKIIw7HqpWr4PF6ZAZkCMLedUGbox0aApzB0xA//PDDEmfw6KOPikRPg8x4AwYwkjh8+ctflpk44weuvPJKjB49GgsXLpS4BP5nDAIVBBKOO++8E9/5zndw4403CsmgUkHXgc/nw1133SXqwLRp09DU1IRjjjlG9kfj/4tf/EJm+CQFdFFQBaAywN/zO5IBtXzwgx/Exz72MVEmSE64PcYsfOlLX8ILL7wgrpLDDz8c5513npAexi4wtoKuBv599NFHDw0482uDwB6GQIkgRRWDYG/WpFdTrKhQUqFKioRRhT3bmzWpQkkVZzE0NjRgTMtorFy5Gvl8Di0tLRjbMgbhUAjtnZ145ZW5RkHYwy5cczg7DgFmIDAg8Pzzz5eZ9saNG0U1SCaTEmxId8AZZ5wh8QP8vrGxET/96U8lw+Hxxx8XY8uZPwkDCQBVBkr+3OaECRPErUBDT4PM96+//rq4MbgwA4ExAlQNGGdANwOzJTjrp1LBRSkLxx577FYgkMwwToEuBioeJBmMLzj99NPx2muviWuC7oonn3xSlA66R5YsWSLrkyio7Ikdh6zZskFgZCFQhiAwHoEEQf2nu0EPUlSBiiQK9liEQWcxKKJQLIuhaLMmv9+HAw84ACEJMnovUDKbyWLR4iVb0qLUqTExCCPrIjWj3b0RIIHgbJ6vU6ZMEXcBDb1ZDAIGgZGNQAGCsL1ZDHomQ9FmTfYARb0WgnIxqDLLJAyqD0PJLAaeArJ/+wyAB2fSHEf2BWpGPzIQYAoh/zNoUA8cHBmjN6M0CBgECiHAe9rlct0F4H4A9lbPqqMjVQOVyaD6MPAzXTng5rf6u1QdBEUMVLCi3vK5kIKgqiiads/mOjYIGAQMAgYBg8BOQGA7mzWpQkl6JcWtaiDIpH5g/HoMAt8XS3NUVRQHncUwWJyMi2GwiJn1DQIGAYOAQWBvRKBIFkMlpZZJCgplMQhZKJbFoEiC6sVQLIuhWJqj6cWwN16l5pgNAgYBg4BBYKciUKQOgnItqPoHfFVuBuViUBUU7QGK2/RiKJTFUKjlc6E0R9WDwfRi2KmXhdmZQcAgYBAwCOztCBTJYtCrKLKrI/+rDAZ7FgMh1Asm8e+tFAQdY73dsz1AUWUx0MWgAhVVDQT+XTSLYbAn0bgYBouYWd8gYBAwCBgE9jYEhjmLQakHJbMY9D4MhbIYFEFQ7Z4VSVAEYZteDIM9aYYgDBYxs75BwCBgEDAI7G0IlCi1rKsIehaDKpRkz2Io24tB7+ZYKIuBhICf27MYVKojCQLfmxiEve0qNcdrEDAIGAQMAjsdgWHMYtjiWijkYrCnPOoEQQUpFstiIGHQ6yBs04thsKgZBWGwiJn191YEWPGQlRDZwZELqxGyjLFq2VwOF/7u3//+txQr23///XHkkUduVR6Zv2eHRZZu5nds0lTp0t7eLr9jRUYWZmI3SbaOZudHVkw0i0HAIDA0BGwEgUWSVICielWllvlaqlmTKru8hSgUSnPUYxBMFsPQzp35tUFghyPAhkcXX3wxDjjgACmdTMPLpkjV1dXSXIm9Dvg5SyvzPT9jrwYusVgMX/jCF/Dmm2+CZZFJNNg8adasWVIKmb+hMWf/BnaB/NWvfiVFlthFkj0ZSCjYSImdH1nWmS2gSQI4BhZFU9tje2qWV+eY2BOC+yCBaW5ulkJpLNU8ceJEaSlNMsI21VzXLAYBg0B5BAaZ5qhIgl4DQS+zXDKLwV4DgaOz92LQOzrqjZpUsaSCLob999sXBx10IOpqaxFPxOFwOJFIJPDgQ49sg4BREMpfFGYNgwARUARhxowZYvz5n90R2a2R3R2///3v4xvf+Aauvvpq6atAQ86ujlQC3nrrLZxzzjmyLtUB9ltg8yY2a7rttttESeB/Nn1ii2hui10Y2b+BysWPfvQjPPPMM3jwwQdlO2zNzOZQP/zhD2X7JAhsvMQujBzTV77yFWkVTYLAxlCXXXaZtIVmx0Y2jCJZIbHg9rlNvdGTOdsGAYPAtggUCFK0V1Msl8WglIOiCoK+16FmMZAkXDBz1vmX9/T0btkub/SpU6dg+fJ3ccasU/Dqa/PA/gzTph2Oe++9zxAEc+UbBLYTAUUQaFg5654+fTouuOACaaTEdtA0+lQUSBKuuuoq/PWvf5XGTWeffbYY90svvVQUArZ9VmXPaezZ6ZENk9hcicaczZT42Y9//GMhFiQNXKgEUFUgKWCLZ5J+bkspCDfccIO0pr7iiitQW1sragMJAv9mF8dUKiVkgG6RRx55RF6pVrC7I0mPWQwCBoHiCNgIAslBFIAeoKhKLKtaCCpI0a4g6AShaBaD3upZz2bQUxxLZTEUDFLUCcLFF12AjRvbsHLVKkw9eKohCObqNwgMAQFFEDizZyMmqgR0N5AksJMjJX0a+U996lNilNmFkYaZrgO6HEgULrnkEpx22mmiCHzgAx+QFtKqy+L73/9+Mf7sEsmOijT4bDPNddmqnUt9fT2+9a1vgV0m2RCKLZs5DioIX/ziF+X31157rXzOdUgQPv3pT4Ptn6lEzJ8/H9zPPffcI2SG47r55pul/bNZDAIGgbIE4XcDvRji9BwOEAS9kiJJApUEPQZBVVBUBZO4E50kFC21rAcoKpKgejGwWJIiCHyvMhj4WjTNUScILWNGo729Aw6nA6eddgruvZc9JrZejIvB3BIGgcoQoEGmwWcsAKX5YDAoxptGl5L973//e0ybNg2MA+A6bP1MFYCzec4+/vGPf+DWW28V9YGkgGoB2zXfcccdEk9A0sG20jTe11xzjczuaeS5L5KCRx99VLZFg08lgO2kf/KTn8g45s2bJ64DGnrGF9x00034y1/+It0kqV6wVTTVBqoQdD/84Ac/kHgEto0mqWB7arMYBAwCFRMEKgiKINirKeqtnhVRsLsXChIE7r1QFgM/V8oBSYPKYiAx0Asllc1iIEGYfsQ09EUiiMc5bms57ZST8Lvf/wnZrCIz1ueGIJhbwiBQGQK8dxjYl0xywmB1TaXBvf7667Fs2TKJL2DQILMUuru7JcaARlkt7AZHg89YAH7O77lNZiBwmww8pAuBAYv8noGNzHwgAWCgIg06v+fv6D7g9/yc4+Dvue5AxzkJSuTfJBT8jGqG1+uV35O4dHV1yTb4Piyt4c1iEDAIlEKgRB0EFYtAYqBKLpfKYlCBitzdNr0Y1IeFshj4GUmBUhHKNWvaJkiRBOGUmSdh/foN8qDZQhBOOwW/u/uP2xy/IQjmpjAIbD8CfX19MtunW4HZCWYxCBgE9lwEimQx0KVAksBXuhhULEK5LAYFVN6e5qi+UCRBpTkq9aBYLwaVvVAyi2HSxFaEQsGt1AKmNj3+rydlNqEvhiDsuRezOTKDgEHAIGAQGB4EimQxMBZBxSCoOgiqmqIKUqy4WZM+UhV/wM/0MstKPVBuBlVNkaSA/00vhuE532YrBgGDgEHAIGAQqAiBMr0YqCAo9cAepFgqi0H2bY870Est2/sxUD1QrgZ7qWXWQuB/06ypolNqVjIIGAQMAgYBg8DQERjmZk36gLZxMZAg2AslFWvWREJANUFlMeillk2zpqGfd7MFg4BBwCBgEDAIlERAIwhMB7QXSdLLLRfLYrAHJ275u5CCwM/sJEH1YrDHIFBJUOqBij8gUTC9GMxFbRAwCBgEDAIGgR2MQAVZDKoGgiIIfGX8AYmA7mbYUmK5kiwGKgf2hk3FmjXp5ZYNQdjBF4TZvEHAIGAQMAgYBBQCFfRi0LMYdIJAUqBqDGxVA4EkQc9iUO4F7lOpCKZZk7kGDQIGAYOAQcAgsJsiUERBsBdJUmWWSRSoGiiSoEhBxc2a9CwGEgQu9mZNqlAS6yGoLAaqCCoOwbgYdtOLyQzLIGAQMAgYBPYcBAoEKaoURxWPoNQDVQehkIuBREEnCQLQYLMY9H4MeiVFk8Ww51xv5kgMAgYBg4BBYIQgsAOyGJQ3wWQxjJBrwAzTIGAQMAgYBAwC2yBQYRaDKpLEV+Vi4HtdOeC2t/q7lIKgByjqfRj43l4HQaU6sg4C35d1MbBOu2otW+icm0qK5k4wCBgEDAIGAYNAaQRsMQj2Zk2qUBKLJA05i0F3O+hZDHrDJr0PA98r9wLjD1SqY0mCwC5wEyaMx7Jly4seuSEI5rYwCBgEDAIGAYNAeQQKZDEwKFGvgaD6MSiSQBVBlVrWsxiUiiCvhbIYVAYDV9ghWQw11dWYefKJeOiRxwxBKH/uzRoGAYOAQcAgYBAoiECBLAYSAwYqqmZNqg6CClZULgZ7HQSdHGxDENTO7YWSVNEkvdWznsWgaiDoDZsKKgjhcEja0PL/UUcegTnPPi+tn9mC1r4YBcHcDQYBg4BBwCBgECiNQJFmTVQQVDYDiYLdxaAUBJW5oMiC2tlW7Z71EejtnpWbQW/3rDdrUpUUK2rWNGpUMyZPnoRQKITJE1uxcNESJGIxzH39DUMQzF1gENhBCGQyWfT29gkZT2VyyGWzyOZycDkdyOXy6O7pweKlq7Bs2RqcMetYHDxlP+muynX48MnnAcYMOZ0Oq8Sq08kP4PN64Pf7kM3mrHyoPOB2u+ByqezoHXRAZrMGAYPAVghoLgaqB9EBQqBUBEUOdJKgKimqoERVUVFVU5Q7WrkYSABUwQRFEFRgIgeiEwSqByr2gO/1UsuqWVPJXgzhcBjHHH0knn7m2aKn2SgI5g4wCFSOAA36ihWrsXLVOnT3RJCjxc7l4fV5kU4lsX5jB3r7+tHVFUEylUA+l0UgEIDb7UYul0FvbwyhoBvhkB9ul1OIRDqdFYKQTqXgdLnh9TjF+Hu8HrhdbgQDftTUhJHN5eVv7pLxRX6/F5l0Ttbzen0gn/B43EIeSDF8/gBCQR/qa8MIhQIyYQgE/BbxMItBwCAwKARKlFrW4xD0LAbV7pmfcbHHIJAsbEUQFFFQ3RyL9WMgMeD0QGUxkCDohZJUFsN5M2edf0VPT2/BA/V6vRg3tgUrVq4yBGFQl4JZ2SAA9Pb1Yc2a9Vi8dCU2t3Vg+bKVSKVTSGdz8Hj8cHt88AUCSCUzcHucSCQS8Hr9yORycOaz8Hm9yOVzcLu9aKirRijkxYrV7Yj0dWHj+rXI5agSeEQxyCOPZCKJPLLIJDNIp1Py3u8LwON1w+3h7e8A8jlk0mmZciQTcdmnLxBCwOeF0+2Bx+OB02HJDF63C76AF26XC4FgCOFwFXx+P5BPg88Gkhqf143qcBiBUAi1NVUYO7oBtXU1qK6qQigUFEXDLAYBgwCExDudzt8BUM2aYpqCYM9iIBlQhZJ0FUEpB1sVS9KDFIm1ftcpnVApCaphE0mCUg5UJUW+KnJgejGYq9YgMEQEstks0um0zOI3t3fgz3++H2/MW4Ccw41oX5/Mzg859FB4gkF0bW5HqKoGqWRcjG04HEA0mkB3Vw+am5vQ3FQD5NJo744hlaFx98HjciGPNGJxyxUZ8LkRS2TQ0d6JbDaDWDSKXDYDnz+IPHJIxeLIyjJ/eIAAACAASURBVOMhI8QhXFWLfDaHXC6LVDaHRCwCny+ITRs3Ip1IyDa8Phc8ngCcTpe4JNKZNHKZNJJJPrMAry8A5LJCOPIOruuFw+lCNpOCw+GC1+sRMuNwu2QsTY2N8PpD8piikhGP9gpBmThxAvYZ24SJE8eiubkRjQ318ttcPm+5RFwucadQoeB/kgtDMIZ4gZqf7zYI2AgCyQFvMLoTVAyCClLkZ4og6DEIehzCgLNQDm+bQkmKJCiiQCLARZGESrs5llQQKkHWuBgqQcmss6cgQBdBZ2c3Orr60LapDRs2tmH+/IVYvHQFGEOQSWUApwPnnft+pDIZUQ66e/rQ1xfBPvu0ioQfT8TFMFfXVMHlyCOdySEcCsPtcSEaTSIWS8l7zuQdEkZgzeY3bdqMTW2b0dvTi2CQhMCJgN8nKkM+70A+mxZFwOlyor6hUSCn4fb5vMhkMzKGVCIuKoDL6UR/f0TWT6WpOKThcbsRj8aQzaaQyebhF7XAmvm4PRQjc8hks8gz7iGTEbeHx+sTEkAlIRCqEiOfTqaQTKURjfQgEaeqkYPL7ZaxhKprxVXBbfM3sXgS0f4+cWs0NjagpaUZo5sb0NDQgLraagRDIdkfVRX+3qrJkhNi4R1QO7hP6283fH4fAn4/eY6Mi0RD1XEZeEDvKZeiOY4RiIAtzdGexaBSHFWpZZ0kqBgEFWKwVUdHu4KgE4RCLZ+Vi4Gvys1QqA6CIQgj8CIzQ975CHR2duHJ2S8gncljyZKlaO/sQyQSRbQ/IgaQhp8zcxKI5qYmnHbacXj0safg9gTE+JIANDTUobo6gL6+flSF/QgGQ2Jk/V4nMjmgqyeKSCSObCaNQMAHB4MTMxn0R6Po6urB5s3tSKVSEi9AeT8UqpJYBJebM/o8HDkncg66GuIDM28HvG4yDBeqqkJwIIdNm7vQ1dmFjrYNohY4HE6JW3A7HaJauJw0qg5QGQlXhZHLpuBw+WR7PNZErB/BUFiOk4qDPxgSt0SeKobPi7zDKUSJxIJujkwmiXzeKcfJbdKA05jX1taio70L6WQMuXwWiUQK/f0xISkejwv+QAB+fwAOlwuOfA7pHOB2OISgcKz+UAC11SF4/QGJ0aitrYbH5URdXRVcLj7y8ggEwkhnUnAx7oKulWwe+VwGyVQWJx43DRNbx+78C8nsca9FoEgWg+rDwDiEQlkM9nbPJQmCDq6qoKjHIQxLFsNgzqBREAaDlll3pCGwaPFy3POPJ8XILlz4FjxuD9weD7KZPMIBL+LpHBJxqoUQ4xoMBeEPhJDNJGSmXltTg1zeiaDfhdraGni8Tvi8DBD0gEkFEhCYyyPSH0U8kcSSJSuwfv06yVro6eoWwzpm3Fh43V5RJJhhlEhaRq+hoR7JZBLt7ZtlP6NHN4lEn0ik0dHVC28ggJCf5IFqQRR+nwfkC93dPdi4qR0uVx7JOGMVHMhkMhLH4MoDGfpKXW4hBSL5u10St9Af6Uc0EkEsGpGxez1eIQehqoC4ONLJDFKpJLJ5kpQY3B63ZGKQhNDV4nC6kc9mBwIofUink/D73HC5iKkPeYcDNdUMiAwhkcggn8+KMzUdj6K9vUuMfk937xZyQpWF8REevx+BgBfZLIM9uc8cUomErJd3uEWByDuycDrcQqTGjx+Ps844CRNbx+GQgw80boyRdlOO4PE6HI67ADww4FbQYxBIEJRyoJQEFaSoMhf0eggFsxjsJZeVW0Evt0z3AuMQVBaDUhFUiiOVBDoI+bdREEbwxWaGPvwIkOX39kbw6tz5uPeBp9DUNAqdXV0iqTOdkAaaSzyRgdORRzTaj2QyhXQqKutScmew4KixYxEOuBHweuDxeuGkgXJ7RQbnrD4aiyMp8n4KSxYvw8pV65FOZcT94PN5cNzxx6K9owtTDtwPa9ZvFLIQrqnH+DEN6OqNigpQVRVEXX0DIn1ReNwOVFWHkUymEemPAXknvH6PxDAwtICGtaOzB5G+bkmjDIWrkUrymZRHKhlDPG69z9Dy5+heoErhQ7iqWhSLRDIhqc5UDUgYqBCIOpADUmk+14BYpBf9/f2iFLhdVmaERQwc4nqgeyMqMRM5ITjBoJ+BB/C4XfD66T6gMc8KuUil0vTUwOsPWlkZ3gCqwiE0NDYhEPQhHosjEokglczC46HikUO0vx+Rvj6LkHj42KMqkhYMvD6PpbS4WDoeotDs09KC6795tZAwkiGqQCZDY/jvKbPF9xAokObIG0/9V8SgUAwCCYGqqMgNFnQx2NMclXvBnvJoJwckDCqLQRVKYpBiyTTHSk6sURAqQcmsMxIQWL9hE+a/uRiLl6zA4qWrMWrUaHT3dMmtSCmbs2zxvbto4GPI05AGA+Ljpr+bBcZo9PweD2rqquB1OxAOBsSg0i/f1t4lvv/1G9qEIGxu70RXZyeqaYSZRcDAv2wW48aNxtSD9sf8+QuQyOSQSqbF315XX4emhhohKpTLGYcQ9NOoOUSJoMujuyeGZCqDYCAIpzMn26MszwfF8mXvorOzA+lU2sqO8LgR9AfhcjvgD/iFaHBdCVBMW0GSgaDlwujt6kKkr1cMfl1dA3yBIELhsBj97u4uCWikypDLEJMgfDT4OUjsA2V9BjfSNdDX0wMXsyW8bjjyTsST1kyfgZsMeOS6VE/E1eGyHndUCZxuKg0uWYefM7CRoVm5TEpIhdsbQDDArJCgYEk3BoMtU6mMEBCqNvxdJpNDMOgTtaWhvkZcEzxvxKSmphrV1TXWc9jhknFx/06nW8gglRbGg/B6OPrIQ0bCJW3GuBshUKSSoiqzrJdbVtkL+iuPRCkJiiCooMUtWQvFFAS9iqLesEmPQVAKAl8rbtZUDl9DEMohZL7f3RFg8N6zz7+Cd1duwPIV61FbG0ZXZ68YTUr4nE1TGWA6YiqdRDbFmX8a4aoaMYzhcDU8Hieqq6tQUxWA3+NGVV0NaqpDWLd2HVav3Syz2jWr18hMNZlmqmFKDBBJhxMZuLxB8ZOzXkEgGJYARaoJY1rGSewACQAD+2pCPjg9zCSgu8Ap0wjGONDvz4A/CSAUl4YHkX4rFmFTWxtWrVgtboZ8ngF+DCx0SuqiFWhIhcNKy8ykrMwFyv4SHOn1ye/6I32WC8LFYEMfMpyZe70S5EjFhCoFyQ+cXvhkfF7E41QM+sF8TI/Pj+qaGqmnQIGTQYzMeEgkokgk4hb5SlFZsFwaDLpMpxKCg9vnRTUVj0wGiWhMsHcSlTzXd0ogp9PtA/IMEqWakZeaD06Jr2BFB65LQ28dE10/Pp8fHp8bAZ9PCFA6mUQmx/RNuo8skiL+DSEqLiDH4FOmgOZx7IwjcOVlF8q+WU/CLAaBShAoUgdBZTHwxiMhUK6GUlkMSj3Y8lqsUJKKP9BTHXUXA6N1VLllvVAS71KT5ljJWTXr7LEI8Ib9/g9vH/DZRzF27Gj09/aiuy+CUMjyhdNwJtMMbEtJLIEzTxUhJ/UBEtF+jB1Ht0IQwaAH1SEGHvpEQo8lEpj99MsYM6YFmUwK7y5fLvJ4fX2TVcHQkZPsgd7eXsSifVL3wF9Vh5pwlQQPVoVC8AZYpKgGfr8bnEyTBNCABQMsqpRFDvzbK4GMqXROUh6ZAskCSNksZ9dRvLN0rbguaICTqSRSiSh6e/qElKTSLK7EVEfWU4AoE16PC1U1dahrbERNTRVyqSw6ulhinRUdnXAzndHlRoYpkqzemHMgHutDx+Y2ITB5GmFKB3naU5fEFjA+IJe1DG4y3odojJkL/UJ6amoa4Q/74XK4kYj3IZ0hT8oKhsz0yOfSlmF35uHzBYRUJBnRyfTSTEq2y1gEqikurwfJaBQOpwcu7tvtljlXOpMUYhOLxoXwSVEoh1WdkvEZfIhyKsZ4Cyt3zFItRHlxOEGPisvnl+253Uzd9AqBOuaoQ/Glz18hx2EWg0AlCNhcDExv1Hsx2CspblcWwwC1leEo14K6QlU3R0US7AqC6segCIKJQajkrJp19igE0ukMlixdiaeefU182ZxpUhlYs2Yt4HIjFAhKRH59QwN6e6NIJ+PIU8ZnTYIcJWo/GhvCMpOm0s3gv2A4AEcuh57eCF6f9w4yaaCqhlkAOURjUdTX18uMmrN9StaUvzOplExSXS4GLfok9iAUDCBcRX97QGIVSAAYGEk/vtvtlH3RFcG0PxphzmI5i2c9hb5+HgsNmEO2Fwr6JTDQ7+X6tKlWQbYFC5ZiwYJFEjvBGX4mzYBAzrBh1TegWyKdZH6jzLRVrSOny4NQyI/q2kZxazBNknEAHs6yPW54fKy8SJcLMx56kUqmhASR3LCUE1UHzsh53CQOlPZ5/FyPGRIWkUnJ8THbweX2iTsnThWCKgAzJxjUyYm9pC+yPAOJBN0M1mcuqcWQl9gO62+PBFwG/CQNXsnCSCazkjnBeBCnyysKjeXRJU2wKk1SRXA6LdWB2/EFfRJkSpdJVTiIj158HkY11ct3JEbEY9zY0XvUfWIOZngRKJDFQHKguxh0BUEvkqRiD+wuhi1xCIXKkenpjXosggpQLNeLga4GNmsqWkmxEniMi6ESlMw6uwsCnEnfc+/jePPtZWLIaJyYVhfpt4wQKw+GxbDTd+0WdYEzStYboFztdbtRUx1EbU1YfN00TJyZt3d0y/ZYORFON7LprPj4aRRp0ILBsET4M/WPBp0llsOBAOLxfoSr6sXw0r1AkhDwe1EVCooB5YyeM3sG4UmAo1RXzEu6I+snOJFDT1+/xClsbLPSIOtqaxGU0sgkGkHx/Ts9HrgcVk0ABiIuXrwUb739Lvp6e63Mg2zaivqHQwoocRZPmZ77o4YvqY/K6Lo4JoibhOuQRISrwxKYyEwEYsdAx3B1lVSMzDK1MBGV4MhMilK+pRJwm5IOmUmLjO9xeQVjxnZwpk+SInEDaUtN4GyfKY18SqaTCYkbIJlQcQEuD10IVhU5yRDxeqwURx6LkCPrfItyQJWAaoCb6aR0iTBQkSWqreJMJJHcH4+ffzOmomXMaGRzWcRiSTiRlawTunrq62tw/nln4bhjpu0ul7kZx26KQIEshmLtnvVKiqWyGORI7bEHqtSy+k5v1qQTBFUDQTVrUm4G1YuhYDfHwWBrCMJg0DLr7koEODP+2W1/xpvz34bL45Ogtihz730+qezHmXQilYbP60cqnUB/LIaA16pQyPS7mtqABNbRwFRXh+SzzW2b8e7KtSLmjRo9SmbUPT2sVuiXUsNWwyW6x9NI5/PiN0/FUvD5mPrnRzjEEsZWbQDGMFSFmM6Yl8qH9QOFgsSnzo1wfuti3IFT+jYwTZAVHDmVluyFWAw+1mMI+OH3+sQFEfKHhKRQuejsjqC7p1eUhu6OTnT39osiwjgAxlJQUcgmGcDI3g40ynnLnRIMoKauDm6mKeYziLD2A5tIsaIinaZURpJJKdVMmy+zfP5zOpFjTQRZWCvCi0C4SsoyU9jv6eyEgzEEDAAUXLPSb4JEK97fJ+oDVQJJpQwHRQ1h9UYSJCoHHCMJHxUD6Sfh8SIatZQIYsb16RZxeV1C7Djbt1QIlon2yBh5HKz/wM8ZGJnPk6xQeB1QKQaUC7cQB1aZTsn5QT4jVSonTW5FU2M9JowfI5Uxx48bgylT9pegUrMYBOwI2AolMc2xWBZDoTLLSknQMxi4i20qKRbqxaDcDaqKot6sSWUxkCAo94LJYjDX716DAP3Jd//xQTz2+NNiVJgyR6PLluZ80FNFkNl13gGPOOycVrBcOgM2LZNaAZLjz+ZJPok3aOuIoK4uJN9xZrpixRqRm2kcWDmQRXtYFZGzYZmFO5hil0NDPfcHKXJEw8huiyxk5PW6hDDQsFHu50yf61vBiAN9FLKcwcZFVWBwHkROz1gFj+iSGEjZkyqD8h5w0H3A7z2sZ5DFSy+/iSVLliPS320ZSbAUsxW1r9L9OCdh8ye6XqgC+GUmTWGAhtcq4MQUQgkqdHokQJDqCBw04mnBlkSKBINSPcdH459O56QWQo44u50SgMisCMY7kMRwJ4xrgDOPeCyGRDwuLgoShfbNm2UfJAL+ANMwmalhrZtKpECUGKDJlVkbgcWWIr29EitCpcHKQrAMPT00UqQqwIBNtxV34KFiFIcjl5Xz52H5ahaACvhFKZL1clnBPU9XiCcopIfEhhgxA4NKBNNDTzn5SFx4/lmmxsJe84Qpf6BCQl0u1kFQvRj0IknK1aA3a+KsgH/bmzUJKRjwiW2lINibNVlPMuu/nslgL7WsejGoGASTxVD+fJo19hAEaPjnzX8bP/v5neiLxEQl8DB4LhxCy5gxMuNkxkIo4EMskZJsAt5/ySQD/jzSLIl+7HgsCrfbI3I8UwppzBkMR8PPNs00cIFgEDXVVZaM7XAikUxK7AIlavL8gN8l7oramqC4ASj7c2FGgD/gRZBFlhiARyk+w/4HLJdsGXvOlJnZwHoEJA+MP8jlHBLVz8C/ZCwiAXqsKcB9hFiNMEDXCKsjAv1RuhKy6OzoxLw3F0vNgDhrDojsbrWM5syc6zPQkMeVyVmxA3SnMFuDRIN/p5IJKwOCKoKMI4tsOiMEigtJGI1xii4acZFkBuojMPiP+0lJ9oDlgqFbgrN4YmbJ+cFQtQQfcjz8jgaf+xPVIJ2Veg7EV1IrZftM5WS9BboNrHRIKQ+d5+9Z6tkj6gdTOKUUnd4gl4Qnmx1wczAehRkWPH6rP4QEKvoYI+KDI0eFRfgecnmXpILSheJgESZRevISQ3Lu2afjgnPfZ+oq7CHPkOE4DC2L4b6B2APVg0ERBdWLQZECpSLoBZK2atKk6iHYSy2rQEU9i0EnCCr+gMRA/WfMgVIQVC0E42IYjjNvtrFbI0Aj/Y1v/RDLlq0RHzZ93vX1zRLIx6Azvz8okf8yA2WePVMBfW6JQaBMTuPLyPfuLhYZiovPnt0KE6mEGKWAn5UEmb1gNTNiECOrDlL+Z4Q7DVtVyG8Z2ZBf3ACc+VZVs31yQAIi6WunwfdQ3pYAPMuwcawMoqPSQL94IhmXoMVYLCEGi6oDZ6xMzyep4Qyfs3euS8NMl0Z/NC4kgORn06YOdHR2ScwCjXR/PI54lOmPedlulvtlC2kaeElFsNIE6XunEkE3DOMOWH+AqZ9ur1syAC1J3gGf14VQdZ2oJizAxPU5FpfTqmJoBUHSLZCTPgtSZjluFWHifi3XAAsx8ZhpyKlAuOFiR0qeD2ZCDPSTqKmvF/xikRgiEhSZFGNO481zSjwFi2RSxkOMVW8GVsMk2SEp4bilrgIflgxyZGMrxjdwiiZkgA4RK6OBrhL+7XQxrXJgvG4PJk3cB6fOPBaNDXVCymYcfbiVrWIWg8AAAkXSHFXDJvVKkqAqKtoJgk4Otkp11AmCnsVgT3O0ZzGoGAS7gmCyGMxlu9cgcNfdf8P9Dz4hBob58jXVNZKhwEyAmiofIn2U7PPibqBBtTIBaEys4LXunh7Jg2/v7JHofPfArJ8zVH8gKPELkWhMZv80qrF4TAoMcZZKAxQMcPbLgEY2OHJK7EI45ENdXY1E/bt9bpkVs7IidUC32yfBiZTvWbAnGulHPMFgSgYpWsF0UsOAhMJnzZKpRLCNtBWBbykQdAVQOnc6PFb750wasWQKr89bgiWLFktwJTMsaOc4cyc+JBy5rFNmxfTT+7xBq0phtFtKKedJXji7dluvjlwKvlCt1To6FkVyoOw0H1JMBaxi8aG6ejGW/X1sDhWVWgWS6emgASeRsfRSVk0ktJGeXkm/ZDqhpCBKTMR7XR4tV4hT4gtIIKSYktuD6rpaaRhFY07XRC/PGwmHuAa4Eyeq6+qsCo0+jygyyVQcbtZ28PlELXHm8uJmiCdTA4oKW3F7kI73w+n2yzlpamrGzJnH4sQTjkJDQy38Pq+sw1dTiXGveawM+kC3I4tBuRgqzmJQLR71ugiKJPBVJwjKzUCSoIIUVbEk3cVgshgGfarND0YCApxlP/DIM/jrPffDKwV4PBg7fh9ph9xQa8UdBHwexFIZ6arIKSsbJtHPLFX7nE7EY8xucMoMd/XqFTJrpvGqrWWrYh9GjW4R48uiSaxc2B+JivFJZ+irZlEhS+6m/5o+eMYGsCthLs+ZNasherDfpLESoChFgdi/QKbOlOnTWL+xU4wdawkws4F1CPxeS2XgDHjjpjYZK/szsIgPJ+FUKBiLQN85XQCS80/3wUAg3vp1G/DcC3MRjyXEQHKGLzI9ixAIUWB8gFfkc9ZMoBGnUmBlMzjlIZN3WKqGZaCpMFD6T8NBY+7yINLTI7EGXJ/HQYLEIECOiccqZj2flRoSpDHE0DLk1oyeOPDzaF8/ent7JBaC/SikNDTPlygulrtHJv9UHKigMFaAqgdn/Wwm5fOhqrZOiiOx6mMk0i8Bo7I4IO23qf5Qgsll6aIAqkJhycBobqqVVMZRoxrRus941ElNCh+qq4KiXJjFIDAYBAoQBD1IkQpCMReDHpyoxx6UTHNUQYl6iqPe7rlQmqPJYhjMGTXrjlgEGMj3zyf+jccen4O2tk1S+Ki6phqNjc3SWMjvdYtszho3DJyjpE4jy0C2bCoNtweWBJ6BzCjXrFkpHQelr4DDidGjx4iBkXLLgQEXhYMBg6w2SNPGVsxWDj0D9ThD74tExKgGmTLJAD23W5SGsU2c+TKjISjpj8wmkJkziQqDB0C/ulPSFhkLYeXok8BYDaIseZxqBd0GNKBpKfJDRSKRyiGZSAnRYIQ/iUcPUxvpcoj1i2+e6Yo00Fyfcj77FTAIkaSGx8I6DXSV0FVDwkRCYZU/JkGwXCNUR+j7p7Vm4aVkKiEKA8dFF4IUJXQ6JT2RsRWW1J+TxlacvYu64g+KMkIDzr8p41uxC2mJ33CxVXaMlRetuA4eCwMZVRtnZoKQjLCyI4MMSSAkPZPuEol0JEZ0FVgBhyRb7IjJuIVUYkBxcUBcPlxX4isckCqQVBkYM1JbU4UPnzcLR00/dMTeG2bguw6BYcxiKNmsqVAWg1ISVKtnlcWgqinqMQjKxWB6Mey6a8XseQciMPvpF/H3+/+Fts2bJUaABqmxqQnVtbXwSb681amwP56wZtte1uunr9uLeDQuM33GCDCoceHbC7Fpw3r4KV87WP2vRvzZNOicSXZ398r6wTDVBRp+TsTzUokxlcoixVgEZxbxpBUcyXoGnInSZlG+H9fSBKczK9tNJDPo4vbcLkmTZGtolhhm5kNTc70YxWSCwZA+yXxgQJ8VJWD1CuAMmkZQgvByGenMSAPJOIrHH38Wm9o2iT+expsBj1ahH1YotAwnmzZx5m3J8D7ZKo2+BAA6ONNPg0kGrHlAQsL0SqoHTjglxoIkgy4REguvNHxidH/OqkSZZiEkKitWcyUSrUQiJkoDCYTl5mBnR8uNQgWmto7HPRqJeBQJVoJkZkUiKbEgHA+PTdwTvoDEjPRHemXbVDNILiTLQAIvnfD5A1bTLVEdmF7JfVCJsYiMZLIQSYZesHzzQEdLC1tWmKzBzJNm4GMXf1BcC2YxCAwGAU1BqDSLQXVzLJXFIF6FQkGKeoMmexYDSQI/02MQVIAiX00Ww2DOrFl3RCHQF+nHdd+8FW0bN8nDnkaUM+7Gxka0jG0Rt0KOrYVDXnR392FUUy1iiRx6+6IIBDyiCjB1sKrKh3XrNmPBW29aTXvcfrS0TBBlgLN/djqksWNwnBUQx9l7UuR55uWLL5tBjemMFNxRsQhS+U986g7U1YYwprkOkWgSo5rrZebLDAIW+RG3Awv9SKCeZdDi8ZjULBCVIGNlB3R39UpNA+rjjfW1qKutRnNzA2prrWwKyursotgbieHRfz6PeF8vIrEoUqm4VRKZJZMZ75AHasJBeIP1SCb6xTXB3zHdkQGcVDdYD4BZIPzOz0qN0k45K6mNadZNYMaA01I84vEU0omYZDQEQ1XSnpoqDdtFM0Mhm2LAoxX8x7oUQmhyefT39cLnYw0Jq54BXznbZ/lodnasqquXSpMMIJReDywcxUBIhxtuVw5CV6RHg5XymIyn0dPVIYSDSgjVEQankhC5XV4r/dHFZlIkBsx+YFaDVVuhur4WB+w7CR+56BwcdECriTEYUU+C3WuwNoLA+gfKxaCyGFQ3R5XFoJda1osl8cCKBimqo7bHISj3gr1Zk57FQMKgyIHpxbB7XT9mNENEgDfguvVt+NWv/yKVAnmDsKQvlQPO8BubGhAMsPSuC7SHTBWMJrJwM52P6W+M0s/lpfIgA/gYw7B+/XrEov3iRqiqqkZTU5O4Hjj752ydTZooz7OqITMDuA3ZDvsmcAaez6G5qUZcAZYbwEpd5GyZRISBktXhAOrrqjBmdJOlECQz4nKgj54zasnhZ+YAqw+y3LN0j6QRpEFkUaK8FBNicGRPVx/6adQzVk4+/RCMi2DraEr9GzZ1SB8EjjXD6oksVZyzXCwMeqyprbVSJ5PMwOLs3AknUxA5fkb3Z3KI9fcNZBjQiPoGshSs9ELWgaDKQsNPAsT4CYl98DAoMI3+SEyyIRi/EaqpltoSdBOQUHi9/K1TSBYVAJIiqSFBvAZCs6UHBd0ZjEFgbwQqGQMEimoOgwUZA8JiR1QLkizvLCmUdGf4RJm5/PJLMPfVN6RIFjENhsLY/4BJmDBhHA4+aDKqqsJb6hfwPJnFIDAcCNiyGEgOCnVyJEnQ2z2TJKg0x4qyGPSxFktzVL0YTBbDcJxZs43dHgHefGzT/Od7HsZbby9CJpmUpkP1DY2oCodRV1cLlzMr9QQ4E6WfX2Rt5JFIZsW/zi6ErIBIw8gOj91dEXR3d4ixIDmorauTWb2U5XU6pdCPlN2VyXde3BRSfTDHIMgqiRHojbBKIWOPODO1KvtRCmdOPiv4sawy/eENdSEpgMTWz6Ew5XKnFPphZgX7L1gS+EAAI+e8lMdFi38+MQAAIABJREFUXGQqo2U9qSpE+/ukOBMbLLGLJJdMMoGuznYpIhSLUw3IIRpPSJCi1Q46bQUeirxulXWurmE2AOswWeWZOWaryqFVcIV7ZBojiVQixpRHr5UCmeGzjb9hxgbbLnvhD7L4E/kFYwG4XtKatUvJaJIBxlQ4pFUzCREVBEk/9bHYkV8CJyVVMZ2R+guszsj9pSRmgrN/OjisRcou82jErucH6h9AyMEB+++Hs844AbNmnWQRtIHURq5seMBuf4uP+AEOIotBFUtSWQw6QdCVg22CFLc3i0GlOdrjEEyzphF/2ZkDIALP/ucN3Hf/Y9iwYQOikYh0TQxV10gAHCV3Gn4aY5/PhY2be6UoEok5Z+Q9PX2or6tFddhKdWNK4bJlq7Bp4zoxxAwOpBHfp3Vf1FQxM4CzePYF8ApBqKsNiI+fs9RwVRCJBDsnZuDzUl3IIpliOWTO0nPij6cawGh+qzdAQso2j2quRSgYklmxzOwHqgpyhk6j3R+JoD9qlUP+/+y9eZNk6Xndd3Lf18raeu8ZzAAgFoI0wUUkQiRFcbW5L7JMaHFIQVKybJmKoB0h/aVwOPQp5E8gK2yFSUoEaHMVARAkBuAAs/T0WtW1577c3B2/c+sCiUL3zAAaED3dmUBFVddkZd775s18nvc8Z9ncaiifyaqxWXfho3E4V+grGIXzeaKbP/Xpz+vBwyMrMHAaZGxAqKINliD94SroygrJkEaBKEWyFTiHkQs6ZMbIHApL6lp9w2thsySQE9IRU3GrJ9xixFKajAhEwugJ/4O4cqWKkYJet20Jp5uBfF65bN4EQZ4HiWbczCqIjCMTEkEinKbpSOnAzok0DDwvBMTxaGBkZ2d3x9yIdrupOQFYiYQ2Nxq6dnVHH/7wt+n973uPxy0YW+HYuL6tV+BbsQKPaRCiLIZvmophlX/wViqGVZnjesTwrbhK1s/5jq4AgTn/4Xf+P/327/yRTk+OQr98LbRRbai2ua1EYqmdzbqLNDNrdukQ1yCq1aohybDdHiqfTataxbhnppc+/5oe7D100QQKB4Le2dk2u73RqLiggRRUywU1Oz2TDvuDMASIJqTbHYYOiPgbzMbKZQlhCk1+CDMyue4c9mYTC/t+o1YyQ97yuTgjDyb+C0v/0omExjQMGDlNGT9gATx3safYNltd9bp9jzQ4Jqp+t9vRf/7Ml9Tvth2ZDA8QeSBFezodObY6mEFbYMFCbgE7b5oRhhbBBKJmxgoMvBacWTCfajIM1Ot1zEGAGEhuBTQJuxaiqJiDBnzFJjqSQtKgzKeB8qWKG6khxkgYTaGacPQyvIu0n5+GJ0GWBOiCLZuxMibRkkyFhPLZnFLppH71V39BP/kTP/RlXsBXEIFwhLO+rVfgSVuBx6gYolFDZJIUxT5HJMWIf3BR7mjQ7OslKTJeoFGIuAfRmCGSOEYuinAR1iqGJ+0KWh/P21oBigEJir/9n/5Ev//JP1Kz1TQTHxgfu2PCiiqQ2UpFS9loBihc3e5ADx+eKoUDYSplCZt9AzIh2e7Bgwe69fodw8/1+ob5BsT8VqqVsIgyX7fNMUx8YPOp3Q5HI6SR7HjjGgWBbY5D46GkUQG7NC5CG2J7LGAFnAhzDeAnFIt5w/f1elUbGzWPGRz4Y64CqoRQ8UCTgNKAQs+IADkgxL9+P7BXAI0Fu/f7e0dqN9tqtdqOULaNMVB8LGHyHU6Iw2Bs0yIIfRTgUP0At4IiH3ECkDnSOITjB3+BNpDFAMnQttChqRC8AZAHIwMoQ/AXUBiCxHlw33wuf54xMQvjrhNJNxv4RmDuRBcHX2E8wso5bk4B4wSQgKuXt/U3/+b3GhFwtgTwwvq2XoF3yQq8yYiBhuBRToqPUjFcHDG8aYMQcRAiFMG8rPPmYNUHgd9FOQw0CBFRcT1ieJdcXOvD/MoKDIYjvfLKG/rUZ/5Kn/nsF9Q8PdHMkb4L+xsUSmUHLG1tb3lXHgUDUawpKl/80h2n8aVzBW1uVFQvF53c+MprbzidcTQYGkpnh1ytVVQul1UqIvmLufHokgCZQqUQFurJJHDgUDYb7nB5B2PZO54ubK3sTIIJ83trEF0sySNIJWMKptAA53ZU5NjKxCY7+yFmlABZH/bNm5t1yyohRYbxx5Ad4+p1O9rbO9Krr91Vb9g3IRFyHsZGFOCQSMleATVDz8mLNC40DNNzJr+RkkzeKAEqibDRIkGxaAtqUAD7ETjJcKIE0H+Sj5OlizrrwOgfciD+CyAlWE3DL+CcaEpsZ7yYm1cRES0hSIKWcJ5kHSD9pAlAbYJV8u7OhnZ3G5Z/vuf567YxXt/WK/BuXYFHyBwvZjE8SsUQKRlsB7YS0BT928ux2ipflDxelDjSGEQIAo3BqpNipGJgvECjsM5ieLdebc/ocROS9Kk//5z+8I8/q5e/+JrG6OgxPEqhLFgokc5qs7Gleq2mfJ7wpUCXt+raP+kqnYyr1e16Z13DDyGbVamY12w61J0793V8fOziDDq9ub1z7paIZwHGOXEt4wmNSAY8JyVuNephcNNwapJhqZgV2c5z0hMTMXU7QymWUjEPWQ8kIW61wJLQpdFUY+yPlVQ5n7DscqNWcY5DrpBDUOjRA4WZXXm72TnPAljq+LRjhcNGoxE2QPOpXvr8l/T67Qcaj0iODOMKB4OOuRAUflAExXFYPE9RTBc1nUxtPDSeBpYcmqCIJJMUQzgTHgGEpEqsqFFMFPIZVRo7yuZz5idgshQjvJlPHdyMQRLmc41GA6UYNSzJTphq0O368y38kAyRGEYtbp6mU924cVP/5t/8li7tbH85cTFMXgy/1rf1CrzbV+AdVDFEagaWxIjCo3wQLlosR46KvFXXKoZ3+9W0Pv4vrwBvLObsGBL96Z99Tq+8+ob+6uVXPKNnJ04xM0QvChhEtrzKpYK2ths2KkK+1+70NBgAw4fQdSqZ0Ua9ItCI+/ceqNNuhV4H+PJn86rX6io4gjmpzXO/febkDw9ODOnn84Uws4HI4HTYRJBj4LwH2HbLmImLOBViwezAI1IJaUDs3kgIE7P+kMzo58BhMYEVc2jNzM6fhsKJhg41GisYTc5zEiAnEto00t5+U4dHx9rbu6tUMku0k3X806Br7wLQAr7sThgLo6ORBnKskP0o/CghGCugDBiNQ1KjeRI2HZqEEc6Oq+WjJcxFiJIXWTMHRuEj4GTKvMcxGCqhUACRYEzROmvqA9/2wnnORdKpkx/58Lfpx3/sB9fGQ+v3+1O/Am8xYgBNiDgI0feLKoZH2Sx/TYOwGtYUqXui2LDHZTGsw5qe+svv6TxBTI8ODk702c+94qLzF3/5su7e2zNcTqmjWOHgxyazUCyrVA7liNl02moDGPidTscFvDcIQmMgmyaVdXhwoOPjls5OT1yAIR7m8zkTE6vVql0XGxuhhwHEuUIupbN2X3fv7HsuTuOxu7ulMsqGdFLD0VhJUAbcCM+9ADgwdu3hh0P4NoW/QOMSGvlA8EP7P3FTY/vgYKwxds+JuH9HQW82O5Ze4kjIWINinYYYKBwRsSKO6+Dgoa2QQRQyuYIblXSa+GgUDKHKwp6ASY49ZoWFVRWiWcD18NxhMpH08YAgBEghsS8e850Ap6wC7JInYUxz2CyEyAFf/CoeO28YEqGnAUoQ8id++qd/Ur/2j3/FHAjvZmwjvb6tV+DZWIG3IXN8O1kMj/JC+KoRQ7SaEWKwykP4elQM0YhhHdb0bFyf76qzpAmAhIg/ARHFFJhP/P6f6PDoxIgBs3RXpsXCTomV6oaJd1s7Oy6CkP0c57uU+v2WzXxI24vFU8rlMhr04THccqNBwBD3wwaZOX+1salqtabtjZLafUKCeJyFNf3s1JnzY6OcyxfVqJc9FqAwUriPjk69G99skGAY7rS1ZIwYBgi5iArS4kLz2NL/CWvlABlfGhlm2ufs3IDlUuUSZMe4bt26o/29AxVLJUs2GRkgeeTvrABIJO0fwBiENEPoDqgCaEr6nZZ5DDgVohoII43Dos6BQ16E+wACE3orhAFIPnbIlBy3w5XCzAUCnrhDr93TZI6Dob2I/LicKe6JkZlTvlTSt73/vfqVX/wpfcd3fMiS0fVtvQLP6grEYrF/K+nfSwIxWHVSRO64qmKIuAeRUVKEHkSKhkdmMUTjhiiLIfo3jUH0FakYIv4B6EGU5rgOa3pWr8wn/Lwj98HQ8OgNHRwcqjcMg30orH/wh59R0B9oKSxyl0rEkdUtlS/klclQdEASsirks97xYmgEImD3weRcJ81DxRZpFfJFdZot3bqzb78AYpaB2vFLYEdcrlSVzmadAXB5d1s9nP801fFJU9NFQtOAeOClNjBgKpWUTpunr1w6DF+C99DtDXR0MvjyjJ0dNMQ8YpjhS4SRzqQcEjfNOKOsAehDUuZEdDoQBac6OjnT0XEzNCw6HxPQ5DSbZ+p227YMLlY2bPDU6/c8ViC+2WTCycQyxWK5aFfEbqenZDqrxRQ3xrglhzYgsmMhSgLsjsMApNAfgihrlBSMEhKazudWJeCUSJPCxw3kzGI2rY997KP62A98t+Orj47O3CQhSXzu5hVtNmprtcET/t5bH95f3wo8pkGgOeArIim+HZnj6kE/NovhcSqGKOo5ag749zqs6a/vOlg/09tcAXa/p2ct9foDfeELr1mNwEycYjqaTGyHe//BvufYyPjw0kcRgFEQs28MdSDR4UrIztquf2m4CEU12x31el2PDFLJlPK5pE5PznT71m1L/CiWFO90juCkmPKFqhsDmgt27szNQQFIe8SBkDRHfA3icex9Z8rncm4s2Gg7mZHUvyQKhbm5Bfl0Qt3+yOiEjYUmaPzJcUCJMPXfQkDMF7La3tpQpVRwYiBGT6fNnh4eNMWIhbHCsN/X2dmpCzgEwTmhSYuZCX7BkB19GJEcEhRDa2QaBZQMcAiSqazDp4qFolMY7cyYTimPI+Ek0IMHDwUBFE4CDQL8A+c02cY5DDGC1EkAUyaZ9mvBc3MfuBr/7S//jH7+Z3/UKMj6tl6B9Qp87Qo8QsUQZTBEZkkRirCaxRAhCTxgqJMOb6t8hK8hKUbIAd8fZ5QUyR1XsxgiqeM6rGl9BX/LV4A3zMHhsf7TJ//EboIw5PvDkIh31mmbFT+djNTtdW1XDFxOYmIhV7YbYbffNyyeSRdMhkunkePhCLjUdLZ0IY7FFyrkCkqnEnrt1ded7kiDQcDSYh5K9lLZjHKZnLL5oi5d2jHMT1Iij2E3wdlUvd7IIwr7HKDRz6RNJsy6QYi7uMJTwDQJxGM8nSuDYiCFrbKsWMCSGCTAzH8HB8XNNcDueatRNuzfbrdcZHd2tjSeLtXrdk12xO2RkKNgNHRxRq1As0GYEgXcZkPLmGYT/BEG9ldAXWBvhnjCxdwjf5SFJFGWynrhvc+rUinr+ZtXdXm3oXa7p4ODY/3Rn35aJ4cnGgyG/lsyFlBNOCnSqY/nD4ReulCwYdH3f/936T3PXV8rDr7l76r1ATypK3BBxcCI4aLMMeIg8P3iiCGyW46agzcNa4qIio/LYoiUDG+VxbCWOT6pV9NTfFzssCk0d+7d1Suv7ak/6KhYLKh91lEvgJR4ZPJcME5qvpwolUuqUb2so+MjNRrbtszNprBIbrmALWJJNwgQ+qazsZuHdJK+eG6VQSab0qf/7LNqnp2ZbIcpT+TeB3JQrW+50FPs+MLWt1YrGVUAfqdR6PWHjoMOfQEwCEIJgekQngJzNxAhGlCyN0Bjo6RRAFSPEdIitHrOJDWZLtTq9EIiXzrkDeTyBRWLWTcP2UxS7c7IAVH7D/fckGzuXFG/21O329U4GCmTSVlGiOVwHJJhPK1g2NViEXcEMyMSnu/sFOthPmvwH4KAmVY8ldHSeQkJuzqC1KCieP75m/r4x39RH/nw+81tcKwzxMPFUqenLb3y2m03DKwN7obve99zunn9qjkF5Fw4GGp9W6/AegUeuwKPaRAig6THGSWBJkTNQeR9sOqB8A2rGFaNktYqhvWF+y1dAQh8/X7fu/vPfe5zevXWXaPhja1tnZ0R2TvT1lZDDw4GunfnjrMKthtbOj1relRw7bkrarUGSpEDMA7sN1Ao5F3IyETQkuAeoPulXRMVD1UMnW5fr3zpdfVHQw06HZsDIU/kRnqgQBjyBVWqNRWLFVslY3TAmIOxQL8/VLvVsh8BTH94B/gZZNIplSpVExBJRkTBMOh3DPwhbSxXy0rEU5ov54otQRIIgkrZQ8Fpg1rqrNl2NsB0xvNBCsRWGG7C1F4HKBfaTXbyfRsRbe1sfznjwNbGCylAkjgZe9zBpwh+A7gecgzEMRNs1O91Nej2jEly7CgwPJJgxDEYaED8ciKpfLGov//3f0n/8O/90lph8C19t6yf/GlcgbehYqAZWB0zRE6KkcVyRFC8iCJ81YjhoszxcSqGiIewapS0msWwVjE8jVfhE3ZOeO4THHRv71Cv3bql05PAO3NIb/AHgrE0d0xyzNHHiVRMoyFmPyFrnlhlEgIr1ZKGvUBKxlTK5xRbzrxbnsxmqlYKTk/k1uv17VEA6e/wqOm4ZkYRKA8g9eHaxwwevwF2vZlsTuVyxXyGHChCsexdPZ4EKBWQCt5/sGd3xXgype3tbeVyWTcMIAcYIYESpG1XnNAowPo4UKWc0ziYOcSIEQPpjHYURNmQTKmUS7qx2ds7UbVetv8AqMVsHjep8PSsr+OTY3U7XQXDntEJhw8ul1YnkCdBkzJDVcC4ZClbRqOK4G52RMS2GAQDoyOSI3M5nRwfWwECaZLHYNwQRSrDo/i5n/8p/Yt//o/Mv1jf1iuwXoF3dgXehoohIiiu8hCixmD1e9Qk+AAvOim+mYrhUUZJaxXDO/s6rx/tLVYALkC709Gde/t6/Y1DnbY7hvzjohDn1O60tNGoqtfqmDtA0A9M/Cn2xZgfxQkKQsGQdOGbL6cqZDNm+uNLQCGuVAsmKJIUSD2DYMcbA73+F1+9p8ODY/V6bRsHYfxDiuF0OlYifk5uTGWsWoAwyI4c3gGNCojB7u6uHwu3P3gCR4f7dg6sVGomMhJhTMEPpZMgF6HtMmMC8wxmcB/SJg1yn+EIhANjItCCuL0bsE3e3zu2yVCnfWYTImb921tbHl0cHZOlcOZcApoOMg+ckAi6MaWpWngEkc5lQ48FyxhTJmqGvg5zBaAPNAPptDYbDb3n5lV990c/bFLl0fGpgvHUscrYGqMIeeE9z6ler6yv7/UKrFfgm7ACjwlr+kZVDBFY8HWpGBgnRE0CP0NM5N8XVQz8e53F8E24CJ61h6QgEVBEuBAwf6vd0f7Bqe7cO1BnGGhn65JGg65TCfvDtnfT3e5IxRwIwsgRvpDw8COIKaf9g4fa3dlUqZxVp931HHwZm6lYrgoJPrvmXD5r6V6pUlYyFjNiAPLAaKDTH+i1L76is3bHCYSzUThPp9jjB4DjIWRCzITyhYoG/b45EMVSUUEw1MO9fRP9rt54rwp5UgTjOjs9tdkQDQdhUDgiVut1yx2RUzIeoCCDYECqrNcbns372BlrpNLmIGB9DJy/iMd0Zbuqs2ZPuWxG9XrZKok/+9Rf6uHDPR/f1evPqd/vmq8xm+ICCWly6oYFNIGkyn5naMvkdCahja1Lbo5AIPBSSCRjIWri0ULGHIpytabf/B//gb7zIx8IfRDCMLgvX7JrW+Nn7d27Pt+/rhVAsZVIJPBB+D/Pw5kepWIAOYA4xPdHhTWtIgcgCm+Z5hjmtIZ3vGiUtEpSfFRY05qk+Nd1dTxlz8PsH2iagtIfBnrttVtORpzNEk43DMak+GVMNpzOxybfZbM49AUq5NM2+BkMRjZAIpeAItw8PtXmdtW7bIrxcDDQ9s62eQDD0UilUtXSPpqR4WBoS2WeCxEeaobjs64ODk51enLg+4/HWBQvSApwMaQJ2NzatLfCYBjYdRBHIZwW8UNA918qVzQa9owkUIVpXpAasmuH+Md9mPmPhiNlUmm7EIJCcMzD/tCmQ5xLoVC0KyPnBzoxICQJZUEM3sBUpULeyAGPXa0UTXiczhcaDCcKBj3dvnXLigUIndWNzfMY5ZhRBG4kQ4apiyn7PkzGcwXDvqOgw0CkpO+LlDIkUfYsjWSs8Ou/8XH93E//qB8ndD9cJyM+ZW/P9ek8gSuwQlL8d+cNwluFNUVNQkRSvMhB+HKz8HazGKKgpoigGEkcV0mKUVAT39cNwhN4IT3Jh4RcjtREUIK9/SP3pPuHpy6wuUJZmUzS5EFg8el0olK5aDId3gQkBDIX12ymVqep4QByHTP8lEcE8eVCAfHDLEA8HCXAS8hk8vYdGHZ7nuHHEklVq2UNh8D2srdBIpbUaaujh0ctLedTtdo9SyPhBTCqmC+lRqNu4x78gJrtgQYjPASGOj09UbfTdjoiHgiECVFY9+7fNaOfuGhkg45gzuQN69OcwEOgLw+bh4wJk30soPEZwB+gQBpi3jt3PApoTBgh4EaIoqJcqXlk8PzNK0Y4WJrjk5aOj07U79OkLDUc9q3QoFnh30gjEykUD3M3BiAUjCbgEvQgIi7moTU0qol8TtNp4L/jvngg1Dc39YEPvKDv+ei3a7NeUz6XdiODARJjh4sIwsV/n5svPsmX6PrY1ivwRK7AW8gcV42SIgThUQ1C1BQ8Vua4SlJclTnyh6tZDPz8VjLH9YjhibyUnsyDorg/2DvUaBJoOJ6r358plchoOhtpOpuoWMwpsUxpOBo6IhkLYXbGyTTwdkqJJMUsZT4ABXkSQL4bqNHY0HgSaERWQjKhUrFiK2F27GjzYf4Dpy/IDEhkHcOcy8TV7w9s3EM3QbwwGQaeuwdTvfzKXZ0cn3g3X6lUzeSnWONa2GhUVCrkdOv2Qzc0ZBmcnpy6gSH0aXuz6vCg4+NT/cXnvmizpl6nrVwB4mJZpVLN8P0Ue+GENJlMDe2zawfep+AmUzlnINBMIJ1Emgl8ANaRTCy09+DAQUs0H/HETIvpTDefv6mFUjp4eKTJmJHCWMP+wGsbi6XU7zTdsMBPoKDHkVkm024SkDyCVNAg0PQAgMDfwCSKRgZ76eeff17f9v4XNZ3MlSlAaEzaPKpSzqpRq2p7p+7XIsx4OLdiXrkUo2YhRB3WCYtP5rt0fVRP6gp8AyqGKKzpHVExRKOGiH/wOBUDn6ircc/rLIYn9Yp6go6LnXy7O9BwPNarXzpQpVFQMBiqXqvYWhiYfD4NCX24AU7HY/sHMDcv5qG74B2wVIqd7nCgfC5j6144BkDz3U5HtUZVQTB2Q8ANkyKkkZV60TbJ8wXufRMHE6WTGRUr7Oyl0WBiIt7Z6Zn29olsjuvOrTt6sL9vyB354vHRocrlmq5cvapataRqJatet68HD1uqVvNWSlCEu/2eY5aPDg7V2NiwwRD8iE6n6fwGpIpkNlRrFX34A+/VZLZQuVTUrdt3fb92C45CTtlc0d9NXGRMUK16Bsjog5/xOZjOIBkudHJ8qE6nb48G/BjqjU3D/hT20Whi9AREIqaZhr2u2u2Olou4MowwkEwmU5ZBzuYEPMGxSJvoyXPglkhWQjKV0XPveUE/9uM/4hTJ6WShQb+nk1bbvhCaTbXZqOrmjcva3amrUilY8gkJdB2q9AS9EdeH8q5dgcc0CKsuiswPH6ViiBoEfyyef315vMAPj2rXoyi0iHsQZTGsqhgiq+VIxbAqc1yPGN61l9o3/8CjdD7gKpz8KGbA90Db0zE2wbDl51rEEk78q5SKhskJ90ENQBbAchHTwf6BZXyW+qXTHiWkUtnQoXA80cnJiX/HiIKRBJUOqHuOE2GOx6ZALk1KtAtgKqUlqYK5jJbzhVKZjJGE+WyhN964p1a7a/ni7dt3vMseDkNL4NksfIwyYUfnSY+lUl6HR2dWFHD8FHPkicNg4gaGeOhOp6tur+dCvblZN3mQIgwPgkCmarmkwSgwWpLLZtVuddQb9BUEZB5QXPFASJn8yGiGcQDkxW6npUq1arkhaohms6n9B/eMVoxHXVVrDcclp9I5qx5Cp8SFfQ14DDgFk2CsyWSkfDHvXT9rQyMBqRFfBSUydm2M2xchoe2dS/qp//qnjZS0mmfOtSDRsVhI6d69h0ok0r5ftVZWIZfTlcub2t2pqVouGGlJrNMXv/lvvPUzPNUr8A6qGB4Z1hQ1Cqsyx6gxiBoFkINVFUM0ZoiCmmgSaA74Wo8YnurL8Rs7OZqA8ZRQJDTyM3V6I4cWjccDW/R2Oi2Vi0WTDGv1TcgCYuze7falRdy7+TFFNp9xxkK9XjcpEZIgcr041sPjsZn3zNgZDwDF9wekAIbIAeRGihXZC1gb87fo/2lObP+bBiIPI5TZtS9jcbXbbRfOL7z0snfVFOeDgwMVi0VnEXAcoANwASAm5vN5uxyWSmEDA2eB3XOhmNXBQcuNw/ZGUff2Tx05jSPjVmPjHH6fiwYDa2NyIHJZOAayZTTmTHt7IBmoNCYurJAXIV2CJsBzYHfP87JWFHRQGHb0SDYJY0LGiB10qVRRJp+1hwENFaOXxSKm+XxqPwlinzFW4i1P4SfumpEDxEQaCTsfTseq1hv67u/5Hu3uXFEyk9B4MFahELo3zhczzacQHueaL0bqtENEBtZ1NpvTld2Gbt7Y1dZmRdksZk80LN/YtbX+q/UKPKsr8IgshoikuIoirKoYIhdFvnOLshii5uBNVQwR/+DrUTHQFNAoRFkM6wbhWb1aH3PePdwOlzLLfhgsdef+gXIZCtJMtWpV9x4c6caNq3r9tdcN17PT7nYHLiZBsLBl8OlpV4VCxuS4Wr3kjACSBnudoeaLifX/5ASMRn3PyNmpT6aBYszSF0sbFWVQPIzCeTtBQTQIYbzxVIVi2cWNAojsD0LfaDBWfzjQS5//gkbDqXoRZpArAAAgAElEQVSDoYa9lqWQVDPkfdvbu5ZVkikQiYNcvIk/Bu6Px3Tp0qaKhayf6+ikrWtXt3X3zp6LdiKT187WZhjslMvpxvUtr0mz1dLd+8e6ernh9MU6pk3xmF566Za9IGhKypWKpZitkyOPETK5vBsIUJMwSwHnxrm67aaPFw7C6fGRxsHUIUmsQ31jw2gKIwK+Z9KZUIJ5cuRGIZtOKJ7KamNj04RJHBI3N7f0N77ve1SrbSgIwnFHvoCyAdlnzLJLkBZ4DjR1wXBglEUJXs+xgvFAmXRWiVhc167t6rkbu6pViz6nR40eVrc167fWegXWK/CVFXiTBiGSO0ZpjqsmSatWy2+pYlgdN0Q9/GpYU0RS5HerCoZIxQCaEDUH6xHD+ur9qhXoD4c6brVUrzYUjGbe0bNTnU+G2traUqc7VDaf0TgYSvGMCwz/PZ3Lq3sGez8EsUAG2J0zv2ZnS1rjJOB+cWVTOZsGoVLA1fDW6/dEbILfPCQHZsLgobD4LzQa422QMhLBf6+UK0pRsJyIOHdkM8THTrflc3m4f6i9B/f1cP+h5/CZXAjRQ1Ks1jf8PIlk2iFIqBvwMsBHgPkFRbxULGhne8Pywzdu3zPzH6njYhlXp3PmcUA+X1StUtYyttRGvaSrl3cdxvTaa3e1tVnTZDrT2VlXW42S7tx7qNOzromLuWxKR0cndmfsdgZuBGhKxuOh8oWyRxE0CbgghpyIpdLpnI4ePtRsymfDXOV6VbkcxMb4eTBUwujMYjZV6+zMSY+QMQuMUjIpXbl8RR/44Ad9XsFo7LAqOBTwFBjF8By4SYJKkDEBWjMZjZUvFP3fWMMwIHKmbI5grJQu7TZ05dKmeQr8O2oUQl+FC7cY7cz6tl6B9QpcUDEMz6WOF5McIx7CNzWsKRozrFUM6+vyba0AxjrHrZ5yuYILcX8QSggJ8mEXO51RILAYlmftFGYIiSgN2IWiRkgRj5xMq14vWfpHRPJ4vDR0PhyFOQrVjZqaZ21L8Y5PT5ymCPOeYoRPMM0Gen5GDxDpqC64EoJQFJEbmp0fV62+HaYW2ulwbO5BDH4E8cfBSHfu3rdXAYWevAeeAyMl4HTMjCjC7WZL9caGCz4NCU6C2DSTO4Q88/Sk6bTJG9evmz9RqWRtjQy3gF33OOgrly9pZ7uuSzY96urwuK1kgmLLgeIFkfBjdJFoIqSMLbS9s6WHh2cOYJpOZ240RoO+Cy1oC+uLE2IkofRaD4cKRiM3ELlCTsVyyY2SX5AEKZIZrxukTop/vlRyUf+B7/8B7e5suyEjMwLFBfdNZbMeK8TiMwWTQLMJjo9Zm1ARb01zgdqhVM57REGuBCMMxQjamqpaLuvK5Q1tb9Y8aqG5odlZVTpEPBbOa616eFtvw/WdnuIVeBsqhijNMRozRCqGx/kgfLkjX/VBeFwWw5upGNZhTU/xhfdfemoU35dffWBHv1QmraPDB2psXw6JiFMSEWMm3U0mA3sWAJHTUMRiSWVzGZ0cNz1XT6YTht4pZDQOJBcOekMlUgnl8ikl45gBxXRydGrIvNPumTiINHDQH6haq2s4HLhQttunGo8mmrl5iJugiHwSJ0RIhrFlws6HiSSFLziXAzJHT1gd0Wq1nPb48ODILP3nb9xwkX94eGoVAMZGzbOW7r1xyzto/majsemGhLn9RqNu8iONQ2OTUUI5VEfc2fd9XfxiS2XTaTsy1ks55QtZO0jiq4AHAiMESJuJWEy333jdY4Fr1y6bpImaAUJjMOr7HLkPuRUYQBFNnUjjSxBXbLHQZD43GoOkEXJk8wRiZRgWBVoTg5MRT+L55HyKWrWmq9cuezRw/fpzRnZAD+B0UKhpoiAkcl9SKmE2RnyGyXhmFQrNxGw8Vzqf9uuMosFjiThhUzk3czhT0jRd3mm4SaqUC25OwhwHBJ0cz8LPuVZC/Je+S9d//25fga+zQVgdM0Qqhotpjl/TIKyu0WpI06qS4e2qGCAr/sIP/sjP/0M+ML/R28e+/3v0v/3r/9UFYn17d60AO9PP/MWf69K1mzp8iMEQSYcLlWokEeZVrhRdLNP5rO7fvm0PAAh1xBSz801nkiqXN2xVDCSNiVG+mLP9L0FMzK3nM34H0XCu9tmptneqDjgiyTCRzuvBnT0Ng64uXbqkSrGmN27f0snpvh0OkQoOegMHJeWKGdUrGygctZwnFEvGNMFBcDQx85+5unepy4V6g67yuZIWs4ngVHzh8y+bw/Diiy+o1R2YNIjJEu+uu3fu6fVXX9VsElhlQLOAKRLjjRdffFGj6VQb9Yau37xiA6ZbbzwwJ2AwGCifzRuWx3oZNCNfqKrdOjvPYpioUi46UpkY69GoZ67B6WnTjcN730es8tiNAk1NGltk/Bz6fe3ff+DmoFgqKVco+nXheDBYGo4noUXyYqG57aPxWciZ00FJhlS4u3NJ16/fUDqZUKGUscTx5OhE9VrdCMyEZMp4XGPcMCc0CwnHRo9waVwmlcmAZCzPvRimSsYyVkjAF6nXSg6+yhTyWmqqbmugXC5u3saNq5t67uquqvWaCZ5hpDZjCpIw13LJd9enw/povxkr8BgVAxyEKMVxFUWIrJZXQ5qin78uFcNqg8B4YZWDcFHFEJEU1yqGb8YV8C54TEJ+jo/P9NJffcnOfY3GFrQ3xRMQ9ZLa2Lik0XigZJK0v5ihaHbHENj6g54yqYwWy4Ry2ZzJfJXahnkEyWTKDn64CSK7Q4FAkWBXyePn8ym1OqQSxiy/6/UGhrr5b51Wx481HPaUiKetlICJTwHGMpkdbi6X94603ekahudx2dHyHBTsTCZt5n84hoDBT6LhwmmO9+/uGx0B+X/u+jW98uotnzcEyU//2Z8aIrccEZTifGqOcqC+ueUivLO743wI5JP7+4dulOABAG1gC82T8nj8zo3RUj4X/nZ7q6F0JuugKLwg9vb2QvXBBCUHb0NGEjgjTjw+gUOA2RFoAoqSchX1QM6vB6TG8bkFM/ehmUGhkS1kjQAV8kXduH5N2UzO0dScS61ewflAg26g+RJOwFLZQtqN13wRhkcNhkM3CiAUqDnyuZAYiVwVVIHjxTq7VCqaZApJkd9BGrUL5HymWGKuzUpOH3rfDd24cU35cjlsEubYQi/tybC+rVfgWV6Bx6Q5PiqsKeIgRGMGlm3VDyFCE940i+EiisC/I4Mkvkc+CPz8qCyGtYrhGbtaYbE/2NvTpz/9koLJQo3thufus+lIhWJN08nM8Phw2DUkzVya4kyQEDK7ZvvUO9lCrqw5FsoZdu7yHJ85f6lac2Fjxw6JsVIpabqYazbB9jjuXXW7M1Cr1VUW+V425+KI7fLp8alTHikmNCK4CzJdQGoJr4ACxs6UlOVKlZClgUqFghaKaTjqh3LCOM3HLCQxTkJmPk0Ou/X9h0fmH9BEtFodbW7vGkk4PtyzqqC+0XDjgjQRRAxYnrwEeA6s0dUru26s7t69bbMmGhicF4fBWKPRQKVi1VcT7pGgEeycWZdLl7fP3SCT9og4OTlzM3RycuwQqDCCOmlOAYXW5MVYeB5LMdqZuRmCRGm7ZtwSg9BCmfuSgFmuVfTcczeN8tQqRcs2IUbG4mkV8JCIza3gmEzm9k9gR9/tD0JL6CJjnrnJk6w9jQhoBIZVNHkcK+TF+Txu1cooGCqVIvOBvUfcDR+qEsZD6bTszPiB91zTCy88p2yh4HaLJmIdIf2MfdisT/erVuAtVAxRk3DRZjlqFDyxO3/A1VGDf3Ux7nn1d6sqhtWwplUnxYschEjJsM5ieMYu4oPDI332Lz+v5mlXxUrZu7pKZUPxdEYpGOfJjHfnh/v3lc6yQ4e8lrLbIR4DThVmNxkjMjlhzf/Nmze1v/9QhVxRiVTaYUGpVEw721suCu0umv+SYfHBYKhCuajZFMvhucZjaTBoq1Au6/VX3lChkHZB5H6dszMNhj3vVIHbKaBOLkwk3QDgP4DFca1W0VnzzGZJhtoX8XM0BPQi5WYDFQDjEgr8wcGh5//Falmb25e0d/++4XhQkj7GSsHYLojb2w0dHp5aKjgKRnrfe5/XX33hlTC62bHNKWWzGTXPTi0D3d697EYGoudigf9B0oWx0Who6Xk/nwELNTZqKpdydmHEcfIzn/mMG5XFbOkRDSgExk4gKygi6Ihs4xyMvU6QIFkTzj2VBjUgpvlm6KKYTZ3zCXgquAwp7e5uK7GMqdlvKRiONZvA54AUGTNvAfOn6QJXx5gKuYxiiZgbEZCEXLbgEQJrGBJBaSyGJoxyrKwTjVSpUFEqs9TJcUeFYkabGwX9Vx96XjdvXlc6lzOSsCYqPmMfNuvTfVSD8H+cpznigXAxrCkaL/B9rWJYXz9/vSsADP/Hf/ppF7t8saxed6hyfUOZbEFJ4oBTcXMLgKdbzWOlkhjpkAcwMi41n+JqyPeZ5W0UkhSyRQyAbLiDYVDBzn7FfEHVGu6K6PspNBmPIPL5rDqdoX0RgvFQyVTcpD3m8L1hX3deva1UNuEC1Dw7NrkNG+Jhr+NZf0h9SzgsaTzquwAzx69XqyEcPp1rMiMDgc017ol5TUdzpbJJ79ZTyZSOjk88BgHJgDTY7Y8dVX3r1Vc0GI+VisfV2N5xEW6enuj6tavOU9jfPzCPwLt4xZRJQ74s2DSq2cKOuesMBySeQPkkWEL0BJVgfo8bZSKZctS1FhNtbW9rMmakkdByPtGXvvS6PR3YDpC6CEFxvpzZ4ZGGAeOpbpdMiZyKpaoLPA1HJpvX+95zQ9NJ4Nckmymao0GzRCBUs9lVucwOH3dLUjgH4QhmHEZ0Q7QcEWyVzGihpTpnPaWyqDZybkKQeOZQNTilc2jVSiqetJqi0+qr1mhYqrmYZ5XPJ30/mo5Go6zv+6736uqVK1bAMD5Z39Yr8KyuwJuQFJE20izQGKx+XVQxXEQRWEpzEd5MxcB/h5gYfX9UFsNaxfCsXpXnTHIY/f/x937fZjnbu9tm3vd7U8+usRHOZdIqEKeMS9Jyqek8UJ4iTLTxqG87ZUYOCwrGQjY2AnYn+hj5G7tb1ALwBy5fu6T4Mm7PhFyxoNgi9DXQcqZeP1Bto+K5N66KOCbi/Gdr0FhM9+/vuRhThI4Pj63vZxc9GnUtiURiN18utOTxc3mlkynzCgyBz/BMQDmwcHAR6ohMOu+xAtHIfPFYdigsF9U86+qs2bQckzcvoxU8FCjOyVRChWLJPIm+kx6X2r18yRwNK/vPCZGMEBqbDRVySd25+0D94Sj0DDhviFBzwDMo5tLOeZhOmcUTg80GYeH46/FkoXQqZiTg4ODYRlHdXtejCkgWIDrA/ORQOOxqHFiRsbkFPyLhsc31a9tWPDJaANlxeBRdHU3EMq5EEpvmhZbx+DlPY2E1A5JGFj+diit5Tj6lIVkq6cYBDsVswefXQrNpzMgJH0fIRAmaCtENvC9yikFsnMeMYEAgLRXzqlWq+hvf+116/rmGxxXr23oFntUVeBsqBpQLwIyRzDEiKb7tsKbVtY2Iias8hNURQxT5zKDwUVkMqBgYMazDmp7yKxZb4T//i8/r4cEDLZdJVWo17wpns4Rn3Mzca5WK8qWiJsHMZD3SB/vdgUaTkaaTocbBSGV2rYm4Wq2mC6V18ZJ63bZ3yTQOPDZ2yI3NTbPZgcYpFKPhxJJEilC9XjNZbzoa6uS4pXw+bakfO+Nup2+4fhGLKxgMwvyBJemH99Vuda2yYAdPMSfLAEti5I/BKPAunWOAI8FOmuYDWBs+QNhoU5ApsnFzF3r9kU7Ozsx/aLVbKpYqViPwGJxvv9t35gMKAhohGgMKc9aIC5HKKVUrNW1ubqhYSGs8Were/fsuwIVyRVuNqos/902cu6T2BmONJ8z7Y5YummMRTAzhjwbM8DMaDnoe09y/d888ChQiqEIYLYBCsD6cm62gt7f1wntu2MFyNmGtuM/cSAdNG0MX/j6bS2kyGqk/wB1x5DwLzJ2QMLIe6XQoTYSjQnMxCmZhBDeNQi4tjhv+QS6TdcOVzEjzCUhHRmmSNXuBljEksGkjCyZhIqeMx3X50jX9zY99RNevbax5CE/5Z8369N58BR5DUnyUiuHiiCFCDy6qGB7JQbiYxXBR5hihCJGCIWoQIqJilMWw5iA85Vc0u8TP/sXndefBffVGfWXieVU36i4Go95C+VLGscKLecwyOGKXYftPg5gyqZSarabm87Eyhaxn/xT23qCtdIrZM7K4aahK8E4fWWFPO1s7unT1ine3mPQ8uP9Qu9d2bJSEjwISu95goBRSxclEhXxO7XZfrdaJao2a0omUd7AYHU0nE/X7XTclsP47NhdamNiXzua0sbWhRGzhiGRipeFLwEVghMBOmEhkmhkyF9hdj0Zj6/W5AXszPhnN5up1+up3OmJ4gLKh2+0YhofxPx0PNegHunTtunrts7C5QrqXSEuxmdeJSk9RxA6ZhmRzs2E56LUr296pH530lc0kdHR8ZuTDzUeGv5fKpbyfE24HbogOh8LyuFx2s/Xw4Z6S6ZQRAxQFifjS5Mnd7bqKFVIiIUTCIUDSgbw0pmVs4XWdz+IuyvlcUe32iT0qYvGFpvOJG4rkeWz1ZDZTPpvWoAsZNKNSNWn5KMgP8k74zvF4ytkQw3HHSAhSTM4jl6soX0ja3GownGlnp6F4Mq3+oKtSYUOlclqb9S391I9/t8mfa0+Ep/xDZ316j12BCzJHxgpRcwByEFktXyQqXjRKumhZCoj6VY1C1CC8HRUDTQENA4hBFPUcxT2vVQxP8cVMwXnwYE9//pefV38wUjCdKJct2YUP7wKY8+wI87mC2u2eKpWyzYHgChBwBFkQq12uWyR1OPABfVfrVR0dwlFIWt9fLtXU7batjU8orkKxYJZ7LAF5fq7tnW0XRcKW4AwQ7MTIYraYerwAIsB8muIXjHq2by6UqxrbGTDQbD73z4wd8B7CKwDOAw0K0kcQOc4BWJt0wim5DsuYGxZzECYjmwxBasRTgFk7ageaB3bitipeEImcUq/bs+0wEcyESNEsBeOpxqOBCZJIDklHdnIl8r7l0vJEyIbkKdQ3sSCuq14nurpvx0GapuFoqmw6qXa3Z+Y/Jk+oPTCHYrQSYyySTLqowzN4/fVbtoPm+Ghkjg+xaI5pc2fH6olkKqmbNy55DMRawAlw5nM8pTQETvwNYnFVGxU/Bq6UrHWv3zbCgayRv+N5IZbwmIRNcVyx+FzDfjjGwLQpTnaGDSjCZMox5ND5zJyGcrmofqfnaO+Q0MgYIqlUJm8OCLkY8C4KxZx++GMf1Uc+8h4bba0Ji0/xB8/61B65Ao9QMUQZDKtNwuNUDDzmo8KavqoxeDtpjqschNU8hqhB4PtaxfAMXMT37t3V5z7/spqdoWFudtWVas1Fn2JoUtpyoVKxYmdEUAWaCvz/gZ7ZkY6CgXfRi+XU8kJD+sO+d5nsRpG8TcfYBc9UIichidNh3rJCYoNpRmD7M7Ov1WrKpJOe+5NxAOoQ+vdDjpzag4B8gEw6p3QWqD3QOBhYGTENJj4WeAuHB5AF036O0Cth6ZRJxiK9XtsKBQoZZLkwEGnsBmE2n6pY4NjCACTCjijyGAYBq+NIyBtsMBw5zZICPR0H5miM4DPgQzCfWl6JuyMERUYPEDtpcIh0pkiy04eouLOzGcoGSbvEHTER5lKcnYFOIA+U/1uxkNPmZuU8DwG+hiwDvX37rtUkpFRQUFFiQGqsbza0sVHTztaG/RbsNYE3xXxuSWloZpW1eRRNHITQQrlkUifJlxhkQWikmSK1kbPGHRLkA9QjlDjyquOAiDNlaLucSSU0mmBlzQgj6YZptlgKewOarGQSSSxqEPYfc82mIYfCvItU3GqQX/65H9KVK1uhy+T6tl6BZ2gFVrIY/t05cnBRxXAxrAkuQkhW+soXKxbJHKOfv4qkGP3yrdIcHydzjNCDdVjTU3xx8oH9e5/4Ax2eHKlU3lCn01S3E6ixWVMwmTn0CKJiKJmTZYueP6PdLxU0HS81I7xnMNBsPLa9MfA7ckegcSyC2aXCSQgG2AUvvdPdqG8axs/lsqrUyy6m7HJBB7Z2N/28wwGJiuj7hzK0jQGS5/zMvwMbDkEinMyW6rbbLkTHR4cu8LD8SRmcjKbKIQmMLdVsdZQ5N2aiINHYYFIEaY5CTAgVz8G7CJMnxReWFTJ6qFTLii+XGo0n5wTEhWWMvLkgBlIkgdnR+B8envj308nY/ybsKUGhW7IzH7nYZ7JpF0jW+OqV60ZTsHWmsaJYE4CFi6S5EYu517VYLFkxgBLj+KTtZoFjazabunXrnu698YZHDDR18DdIVaTA45MAvwDEBXSAHAsKPByBMCtiYk4AkH6hmNd8Oler0/Q6ds5abt44F5QIPP7V69c8TqBZhHuQzhEeNdFiSuJlTIvpQtk8KZRxDfq8hhNzE8oVGqWpHx+zrbQNnWLaaJQ1GIw1mS5V4rnGY33PR79LP/ajH7VPxhpFeIo/gNan9jUrcCGsKZI5gh7QGETfIxXDqtVy1CBctFp+ZINwMYuBOz1KxcDv1mFNz+CFyoVI7PF//MQf6NKVy/4gZqaezuc0HYaJfTuXdpTPVzSFcZ/KqtXtukdljM0MG59+dvWpLEVY6rQgExb8t9PFVOVixTD8cjozEQ4EGtMjDHcWy4kJjXAA8PRvbNW1ubltMhwNCUoCiH54GfC7k6NjFcsFbWxuadgb6uBg3/B0v4cT4kyVGnB9YL09VZ7Z+BIb5cF5IWQ3PJrZA4BjmcHyz2bdpDgjchbo4OhY9fpGKO1LF1Stll3gHtw/0PUbz3vmn8kkLSsMBrg98lRIKKduaux30DrVaEST0reD4DToe/wA56Hb72o+mahUrapSqWqhuR7cRZGRN/kRdUW+WFQVg6fBSM2zI5/LlatXjEYgFd3aahie7/chhGbVqJfV6gT60z/5E3VaZ0ZKtncv6dvef9PnjlJkGMyUy2FrTG7TzEoI9v7IFuEMQAzttQdGYzBOmi+Iy864iYgt5+ZtkKtAJgZjp2ympAyKCzgSKRIfYx5PQJ7kU4ZY6MVMiicSWs7mDvGi2XPipZu8oYmUjJgW06XK9awb03iqqMtXKhp2Evp7H/8xPffc5fO0z2fwDbo+5WdyBb4OFUM0Zohkjm9bxWBbxRXZY2SSFKEJUdzzqpviqooBDkJktbxWMTyll2mr3dYnf/+Pddo6VTxG0Qxn5nzgw0WIm9leMvxbLLHDxXFvqYd7D7ybRY3Gbo95NrtnCvN0NlYukzdvYD5bGqp/uH/fZL3QcfE8wXHY9+waciGzZuKbzXso5e3KiInQYNj183tH3e84khm5IkWrWCYHgsYhbfJkp3mmdC6rh3sHJjeygx0O+jo+OjBEXijAPZhpBOy/XLhgcTzscvFzmHP22AvjsIgfQ4ailw+9BRZLTWiCLMFcOtWQQgp6sdTMCAGjDEKPgN1pZijEg17fM3f8F3CBhLcBWY9mBsQBGSKNCegJ5ky4S1K4C8WiG5dRf6hO68SSQ/ge12/c1BKSYTyuaqWiyWzscQlKhLNWX3v37un+3XuWRl65uqMbz10zykGQVqFSCFMZY8gUYw64ggsxGPXdsM0mVHN6gFmIikwCNzc0AZw3IyWQEvwpKPC4KDI+WCaWmk3gbCw9xiDPATOpTI7REnHUS18L/C1rHcA1SIXeClw/ZHBwX4icXCPj8Vz5YlUb9Zw+9P4P6kd/9LtVLpHOic00XIh1KPRT+nG0Pq3zFXhEg0BSWuSgCIKwmsPwZmFNq46KX8VB4B9RkxC5jjzOSXEVQVhVMaxmMaxVDO+Sy9c7WsrPW3yQ8oH/xZdf0+984pMeFSTjKTPcbb6DOc5k5t0x1sK4KEJ2K+QhKXatbSdxkR0l8c0Q6MbBTGOH+0jZDOFEpBjGzIDvdk89owc+RgXh6GItNIqiomHFD/vK5kpqbNQNe1eqdecnUKC7na4a25ua4Oe/wBUw7VjhRBLiHxyAYehYmMQZMWE0AjdHfAJoJsYTpJVz74xpSILhyJ4IeAVQzCl0eA5Q6PnK5JECUryT5ijYDtkEScYG4U6Y4jYcjnwsFGxm6hAhc/mMGf7JFLbNI+/0TeybkGGRMEcBRQbNFF+dbtvySeypWWcgdaGmwO2QBmo6tREUjcSVK1dVrVZtwzxfwE2g0ZnY6AjkAhLkrdff0GI21tWru4ph1jSdaBpMlc0XTCTkdWcUw/mzdhwLPyfF80FgRGVB/PZQA9Y1yTqlbQXNlATCIc/P64t5EmjBbDr3mILRBo0MCEsw4jMs5qKPMRTrENfM44451yZEUTs8phWLp0LlSjLl665YLGs8nOrF9z6vX/7FH9G1q7tejyjx8a2u7XfJW3V9mOsVeOwKPCas6WIWQzRmWA1rujhmWKUavOMqBtCDdVjTu+xCXoWOHnXofLgjA/zk7/+p7u3d17DfdzFk94wdcSqZMxROuFCpUtTu7mUTBCm6I4KF4hnvsilEbJXxF2D3DGlx2AuUyCS0Ud9Sq9fReBimE2LiA4u9XG+o22rZEyFGAQzCICE4CnWag0zGxSBXKKtSqqjXbVkhsHvlkpYzZts5KyVGwzBVkQLJzrlebxhJ2Nza1f7ePfW7Pe/AR2Pii3HtQ2q5MNkOnwIKPKTGfmfgoh5MxioVCyYP4jVA5ZsvE8okl96pD1FtpLPKYl4k6ejk1MoDpx5OxlZz2LkxGzL6m52e5tNAmVxS6UQYb8yu3HK/fOgRQLPUG3Qs+aOwYhuNU2Imn3MSInB9pVQyj2Hv/gNV6xu6+fzzqlQqqlRBcOJufk5PsJomOhvDoqXiSEpRKlC9jRmG5kcQCfnFdDwyiZNmB4MmiKU0DYUSjZ2sQKGJKhR4PUfOs6CQ05DMJnBIMspkiLKeaU6TOMTBcTkCU2AAACAASURBVG4TpWy+aN+HcTBVsZTW6UnHiMZyOVG7gznUwsdGsc9ncY9chmhDAGESRGmmbKUUzkKXef3j//7n9B3f/l43cdxAcuBjrG/rFXhaV+BNVAw0CJGSITJJigiKkR8Cy/IoFcObhjXxRyAIqyjCatzzKgchkjheHDGs457fBVckH+LAyG9248P8U5/9kj75yd9XrpA0671W2zBvgN0u5kKDYaDBoGubXwoZ5kSDQc/mOfAG0K4jV4DpXyyiJEAqGJLZGAWwoz86OA5d8ZYL5YsFRxxXKjXvis+Oj1WslpRKpM0bCNMha2b8k00ALM2uldEGdsqdTjs8pflCqUxShVLRBaXb6bgx4T1xikVyKukiHIwGajZ7eniw5/uBqhTyJaMAsPMppsDiZCKAPPAfivmyOQHsYDu9njMjgvHAu3cQFAic7NZ9PN1eGOGczVj+R4OTsqpDluuVywV12s0QyCN1eRlC5BTnOdN/VIPkMMSSiiWSbmR4XRhL0JghMazUGx7poDbotjsajQPduPG8dnc2nLyIfBO1x/HRkY6bHSWWczsi2tVwBhEQkGehUimnTmdgNIQmAZdJiIV4KUyCUAqJ6oJ1Z2xDKFOn2zFiw8sXBEuTHgnNSiVAGIh/nqlSKeq02VEhl7WZUnyR8jgqncoKjufJ8ZnXeTQi2CtjlQiKERqWfhfSYtGeFdOplLICAu+GuGach9KaTWL6+Md/Vn/7h7/X6A83ECXOY31br8DTugJvEda0SlKMxgvfsIohGjVE38MtRNgovJXV8lrF8JRegQ8Pj/V//1+f0Ou3X9X1525IC6SKyPYwJUqr1yegqe6dOhkB+AAgdWR7mS+gTJi6CUEOWShl1G13vZtPJHMmsGGtm0jFLW9MxlE9AFkHvvKQT56eHJvfQMFAs89kA5Z9Khkm/jGimMdm2txoKJFKmY8AXJ8r5FXI5pVIxbzDBfpud9ra2tqypBI/AhAIdqdv3LrluOfFFIJdOEMPd68huRJyI2oIoHF4D5ZZxlO2NOa++CL0+8NzjX/acDhW0lR2HA75DvMf7kUmn/cbCltn7JPjNBxLqvPE6EfztOkGC/UHbH/8GvAeGMN1wNWRBiKkcJ43DjAZlppPFkrAz2BsMmMNMaqaWwaKM2GplLXq4ezkxE6WkwD3x6SRB5QP3Jeiz/FYnpngdUw4vpnf8ZqgNpkvsXVGNppygzjoDYyE4G/B+GQ8mapSqtoQqlQOo7RDkirmUjRPGFr1pQVcCZAGRj8kTzKSGBjtoTFJgyzAxzgPZOLYcXPEXIIxAxchzWqlnHfux2I513M3P6Tf+LWfU71W+TIPYW2g9JR+MK1PyyvwJiqGR40YHqViuJjmGI0ZHpvFsEpO5M6rJMW1iuEZujDZwf3Zf35Jn/jkH6k/RCq3aeicgjIJgnAunEyr0tjwrjXGHD4bdzofOz+c9uAdwIRvtTtq1KrW7oMOKEaBnSqTyTuDIZfNW8mQMckwbCJAKuAb2PIYbX0qYbkcxZH/U0QL1YoK6axn2pARQUVqG43Qi2AYaDQJPNJgh0xKIMWPY6VwEat8dIQTIAhIz6gCro74DVC8HQM9c/l1YwJhkeJVqpTNSSDfoY9SA+Z+JuOmA1RjPApMruu0QlRgNsd8qeiixXgB10R22QQdTOYzoyTM3pnro3wAMQBtwLmQpESKHDJHztcKB2Sj2awbL4o3fgL8LbkJjFxAdzLs1Id9Tdmte1yw0MzpihI22ThSMk4xjc8jBtCMpBs91iAiFoZmRxONhkO/TvAnbIe9RIWQsFsjzQ/Sw0yOpiFupQe8D46XEQN8CRo63CoZKZiTEl/o5KDjEC4km8sla9A3mhSGOUFqnbvJxNgKm2skpt3u0A0Ja5jPMWoJjOIQDR1TVf/yX/0jXb2yY7Lqmqj4DH1YPaOn+m5RMUT8g7WK4Sm5ULnwbt/b0x//0Wf1//zuf7A/P7tGik21XNFZu+UdPi6Bjc1tw/QBhSqXVYFi2e3p6vXruvXa65otpFSaAjFWo1bXJBgonsp7XIClLwW92WqrClzfaRrCbp22VK6UrCjAqIfiAMqAZ0G5GML27H43NmlO2nr/Bz/oHT/NAMWQkcPZ2bGKhYrIAhqOxkqmEy5w/W7bxZB5NkqML7z0kobDsTkTFDZcDy9d3lZ/0Pe/owJrl0OHQC0NhwOPc/zcn5wFdvAUXnIgMG7iOLB7rlVxOBzbv4DdL9LOQbevWr2kbK6s0+aJiZnskBvVqnqDriWBOY4PQ+Jkwmt15cp1HR08UDqHrfNcnWbfo5ZR0FcilVUyFtdkDt+DpiPMa4gtp5phWz0lAIvjnXks4WyFJE0FTQ+EPzgiSy1ALZYLJePwD2Y2MaIxKpfhHMx1dtpRPpd1s1CtbGoUdI3OsPOvVIjPRh7J6IGGiU1M2NjRmLD2oEz4GZTLCbWaQ2Mhg35Pg9FYGSyauVhiYyUSWaVoQPqB8sWMCYtIWYP+RPPl1M9J8wXnI5+tqt7Iazpe6Dd/83/St3/oeY+K1g3CU/JhtD6Nx67AYxqEVf4Bfgh8XRwxRDLHyAfhTVUM0QFctFmOuAirHASGeo8La1obJT0lFzOEtr96+bY++f/+oV595YvefWMmtLlV1WgwU6Ve1XiE5W3MMkF8BIg9tsQP+2OzzlNsrk3Um2uu+HKuwaDvHfpykXAWAjNiJyhmU0ospWAysb8CUDk7deBnYokh8WHjjAwQnz6kjpDtGlsNpeJpbe1u21Wv1yV/4Uw7O9t+3s2tujkSGDOdnJx6hk62Ah4CnU5LZyen/u9Hx0daMNfGJTD0GVSpgrkQFsMkOibcTHBe5XJFSxj86Pc9jmCejwti/nz3DSQ/cbYDZEjiokFAGF8g60ymcx4BAJvHUEcgnITUB0IwGquxsaH+qG9UoWjfBYiZYaOA86R5I+y6QQXGc5MWQ4+FUJ2BgoB17XUG5jtAZhycp0uyE19Q9GOhFJHHZWyA6ZTn+uQkeHyxsM005wvHgYeHU0BAE5JPlBScF8cCtwFVxnAwVa1RtmcDxZzXEH4DzRHFHpIjXVylltO92/tO4GSswDXDWGg+WSqeiim2mDgNczzGlIrmMmWQAz7DaBCGRYHG8JrwXKgfaLzIk/jZn/lV/dIvfczjoy9/qK3ljk/Jp9L6NB61Ao9RMUT8g8hJMWoSVlUM4UfzV1wUozyGNyUprropXmwQoAdHDQLfIw+ECEFYqxiegmsYaPj45Eyf+szn9BefeynMDRgMPFLI5tNKJjKG0DGtYTeHzBAZn4spJEJkaNgEj8eaT6cufkDeRP2enZ0YQse2l4TEdC5n2+RSsSTioxlN0IgATWuBLS/a/7537JDhQCHwLmDWnU7TXORso1wqFbW1u+PSjk8AXAMKB/kFkAUZl1jqd54G2Gm3LL1rd5o6OjzRyempFhNsgiEQwpBnF5uwgx9ujxTC0DhooWK+6EwI7hNZScOHwCsA7gNx0hT7UKE3O89XIJWy7l07pkb8HnUAXgYUSJQDjF/YFRNtHCd0aooUNOQEoABgLSAVOnWREUIwsRKBMKUF83nbV+PSyDGisMBTAR4EmQ6EQcGjwCiKjIOMizNcC4icWCezNjRkjroeDj1GwMESDgZricIAjgdKE84VRQN3zmRyJgYifZ3NYrp0aUeL5UyxRdzcAHNO0mk7TvJvXC/z+ZRarZabKxoNR2qL12emZGqhbmfohgdZZJjwGX6WQbYkcAsLa5AbXne4DlhXw2/4wR/4Wf2Tf/ozyuVCouL5DuspeFeuT2G9Al+7Am8xYoh4CKsqhlUlAw+4qmKI0IS31SB8oyqGdVjTu/hK5oJjZ/6pz/ylXnntlomAJwctZQpxjwG6raY2ty9pPA2UQpOeSSkVR+ZHIiM7bYX2uPGYdfyEB1GEYLUjU4stMd2hAIZOfY4GJh1RsfNCBowfU61eDQlrWqrdaXmeje6fgjXs9zyGoOAwH9+5dMWKBEKBLl+5YvXD2dmpi+1oNNDO9iXLI4HpIbVBsms2Wy50d27fVqfdtlUxRL/FnAjpUBrHObFLpbhSpHH2Wy5INVxaGTAZjg3pcw48F3N2miHGGWzpkRbShMyXC8dfk22QYmd7HouMlTHIA54RwP4QNIHGQRbIdOgMRp7v5/MZkwS5P0gB0ktQDpqmVrNtOSdmTe1OX1kinEEa8DCAADidhNkFE8ybUBXMNSSVch7zupsoeU4ehG9gy+fRKERuppAkSawMmx0avlw6p9pG1c3JeIwPARwDUjjnqm1ggz2yuyTIAXkL9o5IZtQf9pTNFK3GwDgqHge1GNuiGQ5CbzBRo15T28mWSFJDciboCTAUIxPuxw1pZVzEinP94CmBIgRFjvS3fuiX9E//2S84oGqNILyLP4jWh/62VuAbUDFEEse3ncXAgVxMdrxolMQn4KqS4aKT4iqCsDZKelsv7ZN5J9z0Do+7+t1P/J7m06Xn28lkTrHlTMPRQKPB1EqFUiXnog6agFtgq9XWeDhxPDHRv4bMkeL1+4bTMReiINQrJSsgmHtzhe5euuSCYTlhMmwqypWK0QMIdlgnD3qhCQ/OiO12W5PZ0G5+hVJFiXRK9eqm+r2OPvjhD9s3gF0nDoMgAOViUaPJ2HD3ycmRHjy4r63NhosickjQCxqQN269odl46QKaJDJ5LucBsLOOJZYuVuy8OQ8KMLteUgeRPrIrXs5QP0L8i7khosBy/DgGQkhkFw6Hwn4C+aIljKl01gmRMRQZi4VdEiE78jPQPoTHfo8ZPystpTJYPocmSmNip8Hf4Wtyf8PuNA0JqzZYMIKQjLSQczEY+LVhx59IJzQdTSxfBDXAhwA5Y+iWFlN/GEiziYLx8NwRMeexQ2jQlFGtWnVWA0ZYNZIjTTJEjZBw7Dd21pcvb+r0pKV6vaJ+f6xqtaRlHHfMlJMl41qYlAh6ghcEDQFrg2lUp9fSchYKqNIppJ1L/7dJgPV1Uvl8TA/3m3ZiJD2S9FDOnaP/mf/mv9M/+We/ovw5grA2SnoyP2fWR/XOrMBjVAwXOQiRm2LUHFwMa1oNajLw9qimIPLMWVUxXJQ5rlUM78zr+kQ+Crv0u/eIcn5ZDw+IJh6q0zm1l8FojIwxZ+IgTojlaslFlh3tweFB+PMspl6/o/ZZy7t1iHvLRMxwN8UaG+XLly/b54Bgo2Q8rUQ6oxJFfDjWDK1/UsrnMjY6IiES2+T4MmHt/LDfdbGHQMf8HdtfmhV20ts7l02WJICJIoZBEFI5tpXY+VKIQDYobI1G3SQ7OBRHR4fqddo2G+oMRw4P8k51CamO2XrG8Hqreap6YytEFJAroiJYEiuN49/UBRT4PVR4hMFRjCqQ/wHxNxobdm0EUqeRwKKaxorUyzlOgQuik2f2WwC1YXffHw2USfD8oC5h6mWJpiiRCMcBkDc51PPJYQa5qJ+DbmVp/wGPDLA1TqI8mGs8HbshyMIPsV00dsr4F4w1HZOVMXFTYk7AYnmeM4EKAbtkkAk5wpsZP9kMRlayOR8TGRGgLSBAnCONgwOtlnMjESAzNFycRy6fMjmRY0lDxpzh1sg5YaEcaDwZeNxAJsVSCXFuvOa4W4bGVPw31BZhKiUoTioZ04/88C/oX/zWP1g3CE/kJ8z6oN7pFXgbKoZVq2V+jrIYVhGEiHvwVd9XUYNHhTVFKMLjshgYDK7GPYPprTkI7/QV8A4/HrtIPngZAQB/hzt90IHAyYJffPl13b5/36Q15HLDUd/QeRBMtHv5imr1svq9qcN88BOA/T8cdI0kUK3gGDRPz2ysc3h0qPpG1aQ7IO5m81SXr1x1c2EdPmOGRMaytVGAbn+qcqmgbJZCM3c8MbA7OQTM2budtkcFo8HI0c1xTJUKWe/sOY7NnW3bCNfrWC8nTYrb3Nnyc2VzaRMQ4VJQ/Drdlufek+lE+w/21Wp3TUZMJcKIY3gHqDUcH62lY5pBPSA/ghiwbkmirefswCHxMf/HOhpG/9DKB+KHyW1AoZBJF4zTUaATOpfgYbucSqhaqdknggIMysLjEhdtw4TpzCoOcip6va6VE3BBQDFoYIwgwE3A9CoOV2BuqSQyRdYQaD501A6tjEOLaEKXaESYV8SNVnA+WCmPhpgvBRoGI491eE2NXiRDNQeNQaEA0RJnQ1COMOo6zHng9Qy5GEglHdOcx+0S1GDg+Odw3WLq9zCdWnoERaGfEieN/XIq6fhpN162WA4bGnwVGF/RgJABwciG15PGFFdGFgs3x7/9txgx/F1LLb0LWhMU3+FPkPXDPUkr8HU2CI/KYrjogxA1CV8eK6yeb4QYrKoZVo2SaBbeTMWwljk+SVfPhWOhOej2Rrq319ThyamyyYVq1YKarZa6vYFazb5ev3VLicTStsIQALHUZZe4d39f27tb9uy/cum6iyi7t/39fe8OmQk/fPBAR2fHvj+WzLffeNVwe6OxqSLM9uFQje1tbTSqLraMAQj5WcL4ixHRXFAulVSz01W1UlS73SHiT7PJyKY5tY2iTYUOD05dzMlXIEqYQhxL5jyWqG1saKOxYaTjhRef18bGjgOjTk6Ow7joak3t1qmbDSB9cwb6fTXhIRy1hZSC3TKVF7UFRZES2en3lMVEyU0AffDSxREvh1w2peZZW+lc2ijAlN0yZdlEvmVIfjxHW9jJs7OeQUrEdyAgRKnomGnUG5A6UTbQcFAw2c1TWBlFbF/a0oO7+6HPAEiGGx7irZfeYdMcQEpkTRLpvCbB0K8hqAcFFb4GoxiaqMGQhoxdfdwmRm4e5mMNBgPzNgjWGgUhJ4LXGWIpHAzUEcRPs4svl8saT0Ymck5moAUFF30aHIih4+lMG3WUCkPl8kX7TbDeeBckUjhFgoAktFxMfNysKdwGCJn5bNqkVZoUJKtITmmKICmyfuZLTEOvCoifuUxK5UJOf+fv/oZ++e/8xLm981vnjDzBb9f1oa1X4G2tQCwW+7eS/r0k4p6jsKbIZjnKYHiciuFReQyPJSm+mcwx4iBEVsurYU1rFcPbeim/tXdiV7a3f6wvvHJXwWzu2S1M9lyxovZpU7ffuKOjw/uG+WML4nXZAea9Y2UkgJUxxSWbDQ2JFF/q3p0HymXT/iDvdQe6e+cNf3gjk0SaePv266bU1Rs7Pvnn3/OcG4ZkCkdBYPCpJrOFGptbii9nfi7g8XhiqfEolALCYaAoM26gQI2CgQY93BFROZBvgOTufIyWTDrE6YUXXlS5XFK1ipNgaLcLVN88OVY6m/UYgKbh6tVLerh3qN6gp1uv37HpDqQ3oHDY98y/+XuKdafXDYmCCzgGS1WqZcPeyBkrtZo5DezQ2V0D1+NNMJ+CsAxNFHSxy+btMwBqwpsNGD8MUMpascB8Hm4CYwlIjowBGItYDprO2WbYsstk0g0BIwHuMxr0vMtHCTEKpucEv5D5jyRzMeX8Z1rMiWjOWm6KPTLmSTQ1IEqMhPAhIBSKawUr49AnASJlzuviQh/gmRDXRr3mdeJ8aZRoRlBTQBhtbG7orNk1wRFiJ0ZP/e7A46X5jEYB4yPIm6HxE68h3BUaH8dwO9wqGbpVMnaxIiGmTBqVClwXIsHtshAGhCXTun7tin7rf/mX+s7v/IDXZ31br8CzsAIXGgSahKg5gIsQyRyjuOdHWS1f5CCcY47h6kWjBu60GvW8+vNq1HOEIPA7ZI40B3zlz7+vVQxP6FXJjuvWG3f1B3/8acv+sKjlg3U2j+vg4X112l0tFoGmcAdiC+8suTrYQZNnEAYjFRSPhWFCQLx8uHchKE7Q+y90dnpmVcNw1DOU3Wqf6fjwUL1ex0mO1VpNL774PsVjSU0XQN7468dUbWwoncCRr+fCAG9gDhmRCOBZ6DUAkZEC3e33TJBkdx7T3MFQNv5Jp1UolrR76bKuXb+mWq2qy1cuqdPqOrAIT4LpJLBJETkRrWbL4waQBAh4rVbHJD3nMcRi9iTgzYGcEli9j+0wHUkMp98waZIdOOmCmC4xymBEAPdhBj9gwS46DH4CZYE3AJMf0ygXVo8gYobGUWwAlXcZNRBLTU4FVtDLpZ+Tgl2uVMPnxsSIIo01slMsp/ZIoEgzNUCOiOwUxAjEwwZXvI5GLiaaYxuNr0QM6+q5hv3AzRav6XAwUK/fN8GUnTn3YazDsdA8wUOBOMgnBVbHmFXhnVCqFEK7Zf5HWmUhYwdEKxEQaySI2wapIGWT1E4Ml3CH5LWd+vwYFTFSiLInQkdHbLr74XUYi1lam2T9FmEzAVeDx4Bs+l3f+X361//7v9L21mb4Oq1v6xV4ylfgLVQMkczxYnMQNQmszqNkjl/VGKyGpkc/Py7uOWoUIhThURyEtYrhCb0o+SC9feeuPvHJP9H9vb0w9S6WdJQypjnj6cDM/FG/Z87Bzu6OWp2mimjcF3jzx+2BXylvWJ3ALtpSu047ZPPHkBqWBSjPrpciDH8AdOLg4b7u3PmSXnzvB3XpyhXP/9ltgzQQWFStN87n4xMtbfolzYKhiYooAbKZpHo9JJNTBZgPBTw2Jj6QD6eaYcREQ6OZLl2+oedffK+qkOlSGBQxny7a5IcG4/j4SMVSSS2ikRfSwcGRTo5OTLoDEQDyD8mHGAeFRch5DEjvwo7JaAC7euiS7MKxOl7O2eHCp+ibsc/RoM/H2wHnP6ckJhIu3PgcIGWEvwDpz34D+BxSwBfnj5+MnZsMpVWpgWwUfEyhkRPM/omLMsdHIQU5sCQQSWMqbpkmxZlCzk4eNQTHzc9GCxhn0HxMQ0kjEsf+sGszIgyraERSiZQTLGkQUsm81xGlhnMczv0TCIAG6seTAO8FEKScmxtIobEQ9RmO3KDBVQD5MHfDzyFzHrjeIITyeYU6olDMGz0CuYnFpjo76/u1MLKSJCiKbAdsnxNKmQxZ0o//xM/on//Pv27HyvVtvQLPwgq8hYoBJCEiKfL9iVAxrBuEJ/jKRP//27/7e3rp5Vc8EuBGsRoHC3v333j+uj+EkQtqzk534gKDkyIKBUhitfqGBt2RlQdnZwdmmbObvXztppGA+GysWDyjdutEe/ff8GwaB90vffFlzWZjbW1vKZ3IuviDVFDga7WGlrGZd4nshtm19gYDBcNApVzBmQpwBQbDoYLRMJyrQ2xcMFsH8k55Jw2bvbHZ0AvvfZ92dnbUaDRUqVXUbTdd9MmBQJ+PWmDvwV1VqlWdnZyp1ezprHWqQoEEyeBcAZFQMh5yAUAxuGWyOXsZDPsd79IxNeILaB6kwTkJ+YJ34jFbHS/V7fRctDBGSsTZiefV7fZUqzc0GsPWn5v8RxgSyY7BdGrDKcciZ9OWeZbKZRULZY8JkAX6NRti5oTTI7vysBDTGLAeICHLRdwqkl67bUkkDSD2yewCGE2EvASSMPFhCDSdDtW3LDWE/VEsmHOQyboBwNwKLwojAjQPqazHVBgUYZBEsYYfQXPBsUE2zWQTljnyvdvunWdgZMPGSagmsNqcu6kAzQA1yOaSOj0htCpjzgFGSLH4XN0OvhAJDYe8zjx/Wpks6oWUFSy//mv/g372535yTUx8gj9/1of2zq7ANxDW9CgfhG9IxeCY9UeENa06Ka5VDO/s6/1NfzQuqP+fvfcAkvQ87/z+nXOevDkjByKRBAMIMEBgDiBFSSeRkshTMHWybMny+erKJ6vksstnyyrr7qTzkbLIu9MRIinTDGIUIQAkACJjETZisbuTp3POrt/zToPD5S52EUhgge7C1GBnerq/7+2v+3ne//MPNAn/eOddemT/k1paWjNS3MpSSUNvS9u2TGvz5h2203XzYIqx3yDhIba57FJhkZuLoAtWAu7NTs0omZhQJBHV7PSUQdrA0MQrF9cKWl1Z0tFDh7V//4Oamp5UOpU1Ih5phxRHQof8waDtjAtry7ZTBa4fMIboD4yZ71z46pY0CEJBpWKXib1yb0DhQ10/sMdO53K64IK95jTIWASZYSlfUCwRM0UCu24KLfJGFBdrawWVS3VDMwhnonAy+AaqpqFgB+0Z4sjo2PXmdkzUNGFLvY6i4ZAlPgLLm/bQ4oY7tjPmPhQxCHoW/sTaepnB+zU1O2XHxdih0+xYhPQ6nm7zd683ZHkLRDCzc6Zoco5mytQbKkBwEciE1692C4UG4wYMosheQB6KQRLjh5aFOsHDcHLCoQuGYlvRY9AhIxyiXKFx4N+MkFhjZKPRcMQssWkQ4U+wTt6ATz4SNaNRQz8I66KRcAoE597YavcVDgcU9HtUKNCoyBwiQR94fdedn4zTYsZJPdAWuBkYH3kMDSG/gVELLwjrSUgUclTGGQNrWBO68jVX6Xd/9/d00UUX/NTfQ+MnGK/Ay2UFzkHFABzLh/VozDCyWh5ZLDt2sLv9GBdh42iBX26UPZ5pxHA6FcOIhzCKfAZB+FVjoD/P2xuvv05//Ed/aCSz8e2nswIwyu++9z595avf0sn5ZQsH6vVa2rZzVptntyo9mUM/J8+QHVtT9UbFHPgsJbHbVrlYMg4DEj5kdtObtisWTWluNq3JyaxB7cDs6PYLa0UtL6/p0MEn9fDDD9rudef23eZ74Py3ZLvUaq1kZDjsgNnpAoebUsEzgGHn4oBNgle33ASTDbY76nadTTC7UAo5V3kqm9PevTtsZJLNTRqx0KyKkRZ6BrZTdjtX2W4+n6dBqKhrnIeeGfrY/H+UbxAImv8C0ksKVzgasgIIzG+5AH5yB3AFpIlwqY/YKVSqJBR6DfFgPACkb/HKeBMA34fgGzB6ALYnuKhmds3wHyIx7JS7Codj9l5AemgR1QRcmMMhxRQ3ScYdhGF1jKfh/BE8hhp4vcgXkQv2nG+DjRh6tjNH4gkKw/lSuDk+0jOdDNZnO3TLZhgOzfchHkuYYyHdERkIjAiC5qNAsBIIQ8ie332QwJ2AQMq54aaId4Nr4vsnZwAAIABJREFUCGguWSt4GMZnGPRUt+N2UktQBUY21gCCKvRQMrAXcXwUXkOziKZRIPUzndX73vd+ffI3Pqmpqcmfzhtm/KjjFXiZrsAZSIqjLIaNI4ZT4575qDxVxfAMJ/FU7sGpRkmjHIaRzHGkYjhV5rixQRiHNb1ML6LTHRbF9dFH9+vvv3G7/vGOu1Uorimdiejqq6/Ujp37VCk1VG/WrYiWS3mTv/UhJ/qCWltbkQc54KCrWCqrTHZa8UhIu/dstwLCdQdLPhJLKWHweldHjx7XA/ffb2FK5DckE0nbjfKBjxSu02nYrJ/iUC1VVYWMCEyPgZIXM5/muidB09IjrdD2PWp1m8aeh62fiicUCEds158zFGG3WRlHYhErPBQUuBE9DHe8A3n6XpfDMJDmT5x0jPw2O3kAEPT5PSWiMUNJKF4+4PQOZksTxgQAYaF4wbyHpIgCo9tnd44JEnkIddVqdeN7WMphJGrjEmtYfBRVCiHeARTTtkkG2ZnTUBj5LkT2hU9+T8COxQo51tWhsCIRP67NVjQJMqKZqTbq1ghArjCiY5CGaWA/o6BzPK4IO7Kg8UDajDMYKQysAXPOS14bL8DVsAAuP2FIfvO1oAODUIjnA81QKBw1n4kO0D8ZEp22NSeoYBglwNGIx8OG/qDUgCBLU2MZDzQ32GCbagI77LZTcgRCNrKxLIl2015DOg+XCeHMr0CgMOnevG2LfuVXPqZbP3yrxWmPb+MVeDWtwClhTS+GiuGMTooj6u+zWS1vVDGMRwzn+ZVIUZg/uaA77rxXf/3Z/2xNQCg61FtuvEmd1lBrhYLB5qVC0Zzv+oO2ims44NWVmZqQPxRQJjWhUCiuUmVFH/rgh/TQ/Y+oXisqN51TOp1TMBhXjkjnfFEP3P+Q9j9xwLT0MzOzrvDXG7YDNhMhf0AeHBTrRdvRYikMPA2aQEw0VsvscC0t0Uh4EO4IiMLlDwQh4ZL8vAPNbZrT7MykJglu6na0acs2c2Mc7bALpYICHuKdBypX6xYitLqSt7EG5EsKJymFJrWjgAWDajQbmpqYNOvpFtK+cMiOw+dBBdC1nTkcjpHBEtA/TQRNQJAY7HpDKdCARtOQgXQmaZHZSAQp/uVSTaEoAVRBQyAYvWCOBBeBkYI1ESF8DGrGt0gmElZUG/WaAkH8ARwWiOFRyB+yUQyjgmG/bUFU9WpN5YqzOObvaFRYT0yWKNwgFhA5QTpAEUAOQBJcCmbYUA9UETRCjCKQZMJhMBVFu2vNxyhPAs4FHg4oR/ykLfrdngQHSV4zM3ka9p2XRCRirz9jIhAOyJc8DigOx8jNCKNemhMsow3gUtDn1/Zt2/TJ3/htvee973YKlPFtvAKvkhV4lrjnkd3yqXHPG4mKrNJGFQP/Hhkn/UT+wkjmyJ1G6MHzsVoekxTPs4sTQtrBg0f16U//Rz3w4H16+tgJ7d633Rz+mCwvL6+oWC47+2EUbrgw+iisQ4VjMbXbfeMMzE5P6P777taxY08ZS356Nqe56Rlt3bFbu3ZfqmgsboXhwMFjamDt2+solYhbQeu23Y6exEebQ3tdkUNy12hUbAQBTI6BDwWXogZEzrH7yHUYkghItgBFK2CjjWQ6qT17dmtmZsIKbjKdNv5BuVS20QhoAYFPoBv5Qln5tYLtcoHVLV+BXbnJ5Tw23jDVgsntiFT2m44fJ0SaA35hx0SEMkmWBqcT++ykkvAPTKY3oMjDSfAZJO8MlyK2kzY3RuyD8V0IBqwRwIUQ1AMiYDqdVrlYViAUtGbGDQ6B3x3JkKwMDKjIY4B/QOMFNwNDIr8XA6eekT7LFZfMSZPgjJXYmbsRjaVQDtFmeGxsgBcC5k40ChFzuMQfQmYORcSyjTuGXhsjgIZwHObQiE0GGQsdF4ltSIncGln498CpRDDVMrkqkksbf0CMROHiSJI0kqwhzQHrQL6ERWzzIeV1pkw7tuzU7/zXv6ebb3mr3W98G6/Aq2UFNpAUv7Duf7ARQdg4ZhiNFzamOY5GDGclKbqhoeMhPNcsBlr2Ef8AL4Rxg3AeXp3lckX/5b98Sd/93ne1ML9ghQhdPFA0Fr8UFIo0uv/du3Yom5tQNBJWp+9RsYD7XkXVwrKOHX/aiItWJLDdDPhN7x6NpawQsgvFuz8Sy8gfjJubojn1kb0wBGKnOJNC6AorqoXhsGuKCWbUrWbNdvTG3CeiuNcxOJqmwJAEL4VmoFg8qYmpaW3fvknZdNx8EEJBTJ86Ji3kPKrlmpuzB4JamF9UqVA2CJ63gklAKdiDgREhQR3wFzA3P9wP41Fj3MMdcHa+7jvHQONC0wJsz8yeQsdum2OzJmE4VBBOwlBKmxshxEEaBOScUSvuNBTkNaAUsJhqorG9QQsrsvk+yMcQbwgyMkiZHKgN+bDj0ABGChRQrKqRGFJkGxxbG9Orpougpg3g+8CFVHG8dk4QMJExBkOKhHl+nnGoWCyloadvDQXIBK+jPTepmQ1kiO61szt4XMNgxlF+nzkj0ojhWUHTgT8Ej0kjAOpgvAKaKBttQIKE00ECJrLRpjUtXBChoN+4GoQ3sZZwMy7cd5k1CK97/dVj/4Pz8LNnfMjPfwXOomIYyRxfcFjTxiyGjQ2CIXsbkhzHYU3P/7V8Wf9lvd7Q337xK7r9ru/p0ksu18M/fEiHjz6h/MoKbsdmK4wagJHCjq07VW8RmuQz18KVlbqePHBAjcqieQzgxDdqEE49aT7UgZMnJyeUzO3Q5OSMFVtQATz22YkDbRPLTOEiabHdJLwHk6SBFXcKKrA16Yh9Qx8c+Y0ZOTt6/BAoMLFoVBdedKFy2YTNzpFbMiJw7Pi+ZmZw+yM6emBeCOVCyUiISCf9vqAjCbZbhm6MRgYGqfGcXeeGyC7bmpLByNSnbk0GRk7sfqmXfDf3wSG+Bg07/w7NBkUYD4MAEc+MTUgz9Bp3gZ08u2F4CmFSH71SIBxWpbBmc3aQGyB8iiv8i4EBhcgTUThgYOU4CbVKVQ2yDdabnEYdSagzV7J16PbWw54IZgKRgSAIUuIki4Qu0QhgXsUOHgifEYQ1OYwABvAlZL8jiRN1xSih0SNnjETMNcWf0QQOjqAlliwJGoHlNFwFy6/geWkEvIpGnDsnYw+aDJAZC99iXUFvaH4GQ01lc7rl5l/Qp/7bTxg5dnwbr8CraQXOYJQ0clI8nQ/CxhHD6RCEn8hiMN/lDSqGjQ6KpnY6JeqZLcyZ4p7HWQzn6dXJjvx737tLX/jSF5ROZ1WrVFSvF1A0Kl9YUzI9Ybt93PgobPm1VVWKRQXITwgldOTIEZVLq1peOmmEPeBqx7LH7Y9LiJ2qg5BTqYSNAILxSc1MzdoOE/gaXBoDHVwRYcdz5YFgOAIdBDsX88yMv9moWnE0Br7Xa9JHeAIjBz2+Y0BEI7J77y6lsPhdL8rM5CkwSAJh4wOZl8tVywg4euSwoROoIcy0CFMf1A4WgtQ0W2mY9U4hwC6ZXT5jEVecLRa543wETNqIpwEBRQQYmZKC3bczTCLzwYvpD6tjM3/ZHB/XRorkECQk4UybaFiY4QdDYdWQnHp8SibiKpfLtq6Vcs0yKBr1qu22+wOaqJ4RBeEdlGpl51DIzL+NAZTbB/ABAzpEgbeYajs3nzVaIAjs4LGBBqHBWZPngstAQ8Pf2yhmHX80hcNwZMbkHCBpAngOG7MwGrC0xo6tH5JOnovrw6K0A/AU/Nb4wQHhWqFB49phPRl3MdoYNRX4U6QTm/Sv//RPdf2brrTRz/g2XoFX0wqcReY4sloe5TCcLqzpdE3Cj2UxsJ4bm4SNeQwjBcPGwKaxiuEVeAXy4Y3K4D98+rMqlhflGSBvrJsbH0Y/veHQ+AHpXEqpRMoiko8dfcp2/uFIwnZ6J08saGHhuNptxgLPNKJOO894ImBxfMZWR32Qzk5qZm6bEeCYo7MzJ6rYSGiDrvyBkDUDqBf6FCQcDLtdNVoN4zhQiCkg7OBRFKA64LkwWQLGjifj2rJ1q3bs2KpQwK9YLGy5DzQ4+A6QDYBMkBCiYqmsRrWp+cUF1WsNK/RDHAbJIfaQeMmsfbAOrYetQLLLp8hTMCl4jC2ME+Hzmz0wPwv6PGriyLhu0YwDIOMLZvqddVXFqNGg+LqduZv5k3AJ4ZKiSbNBc8T4Alif5gUbauSYll1gcsWOi5P2OCUBYw3GIl2aLhvJuF27xTx7iIB2eQXOcMqlenKzhos0zCAqhritKefCuGE0KqFx4zW2om+jAWSaoDc0DfAtIBu6wm6eEuYL4STYPBYoA/eH3+DuC9IStmusWiM500kZzUCJdE3sqm0dpUSMACo3utqz+zr9+b//nzU15bI+xrfxCrzaVuAFqBhcWMuP/A9GQMFzVjGMJI58ooxVDK/QK5Bd9Je/8k3ddtvfqF4tO2Y5fgPDnjK5tGpV1AYBRWMhbZrdrIX5JR04uN9sbiEWNtstraysmFshRQsEwRzvgiG3K2X23GkZbA2CkJ2csrk2bH78D3DbI4iHBiMSjpj1sZPFdSy4yRUxdueuMSB5kFEDjYJ5DYAMrFNojO8QDiuTSemqa6+2eThBRYlkVp0WJj44DUIQdMgCxsiQMY+dPKlGtWZ6fitonoHN+YHLIehBTCTCmFrbareN5OgaFMfQ5ziY61MAOV6egwIHYsAxmPwvyFqQ94CBUWedpCfzGYBkaY6EyPp453JsfmKpe8bTMFieMUKAxgAzJ9bYyf9ajYaNIij0cCEwSXKuiYwRXLE1x0ecITkmOjLQBiSH3qGhF/g44NFAcYcsmculLSSq0+s6e2ykkUD/HRoVpJjwLhhbDBWNEP3cdnbS682TmRu1G/ZzzoUGKOAPGWqRIKobVCAScyjNQCYZpTEysiP3X0ddaGpoZDyDvnLZpJE804lJ/dy736n/7n/4Q2vKxrfxCrzaVuAcVQyjRMcRQfFMWQws37OqGE5FD86mYtgY1gRRceyDcB5foXwY4yj4n/7zF/QfP/dXWltbXZ9BB61ZAIpvt2qamp1WNBSyAlKv1teLj2wEUKmUVCpXVCkXrfhhtxtLJC2zoFGDPd9WMpVVLJlSNjupUCBmvvrRBHPzoaUd4vTXbMENAFIw0b2pHnhuI+xRVIHy2y3VqlUrSJD7bAfNfJyo5FBQm2bnNDs9rVQ2rV27t2txcd4KejyeMJTBzdSRREJYrGh+YUUTE1k9/vjjpnSABOmKKn4C8AiAuxmxeNUbsCOnoDEawSjJ7Zgt5KnRMl8AmgyKew+HxaAj32FbzTzfmq92154bB0F7/HZHqWTK5u3cZ+gZanJi0sYfWBwXC3mLv6bxgXdRg2xob+eBwtGA6pWGi0LuQzgc2PEiHaTpsEZg3UAJrwXWCIIg60CjwHFRzLkva2gxypA/fT5FYwlr4EBaIDhWKkXHIxgFToFaMHeMhOT3YATlvAp6fZ4btULf3B+ZRYAW2YiAiOZwyBlF9aR0Orne6Emrq4X1EQjjGMYrjrRJI4JpVjwYNgOsa655s37vD35Pe/ftGpMTz+PPnfGhP/8VOAsH4WxhTSPnxFFT8GNqho3OiaMjHP3s2cKaQBBGX+Owpuf/2r4s/5ILbnVlVX/5l3+lv/jLv9Dq2vIzLoTsutnB4w2QyaY0Oztru3F28eFoREwBkBEuLi7YWIDdaDozYUWYx60glfR6TD4ZiaYs+jcYdNI5WP2YAoVCTg5H9cVWF6RgMOxZoJRxFCwZkayCtjUgyBIxU2IXbC6P6yFDNAFTszOam57Snr17jNHPY2XTGdUbdYVCUXssYG7QjFqjrmKxqIUTC6rXm5YqCefApIfstrGF7sKtcDt0iq3ZD9voJGA7YkYnFF2Ka6nk2PrcD+SABgniJCMNp0KAgAgRkBjksnEOQpGIweg0HSMTI7+5BWJ3DGkPNIfThC/gsQYCBIHxASMeiu4AE6J+z6yWrah22Lk7AqK5SFrwlMttgJOAwZKNCeAfIDM0LMTtE0zFEIlacwLxkd+RU0EzgQqBcCfjIRh3AbfFkBVzx7NwGQu87jQ+IC5heAz+oI1NsE+G5IprZBVuSZfXwuVI0AigXjE0xlAU66MMZQCBScUiymRm9Cf/y5/ojW9+48vyfTQ+qPEK/CxW4BzDml6wimHjuTwXmePpEIRx3PPP4sr4KT/H/fc9qN/51O/q0f0PmaMhQT0UgC2b5qyYwcYvV6q20+PDmw99ikShULDCTTHJZrNKJNO2g+Tf2DtToMLRmFKprMKhiGUIQPRjfk80MIGMSNkoevVa04hsQNTDdQtkjHXMpKfpdsa47jkjHVjtFERyBDzKZrLad9FF5sK4ZetmReMRYymwYwYKR9qYiMctMAoDKIoYYwzGFmureZXKJSdZ7LSsMBPuxLjBpJbA3xqabDIWcRwBjIUYheBxgLoBWSbQvxXPYU/hQNDyGgaMIwZeUy7QPITWTYg4l3YXTgMOgR6bxYMseLA6ZvdtPb5HXh/NhiOAyhO0uGzzf+g5y2SOuT/sm2GTQwMYUQTt/2lYzG7ah88CFsocH+TLhl1NtvO3BgR+AsXcmTRFoxEjZ/KLRrNl59XtY1DlmhA3snCbENbeuUZKiUhIzY4LhWJrEvSDOhHuFFQ8Cs+ZhkWWksljWTplt2WIEeMbG6UwrjDJpmuMuM6iQZ+uu/bN+ld/8kdmhjW+jVfg1boCz0PFMBovjCyWz5rF8HxVDKAIYyfFV+iVee+99+sP/+Cfa/8TD1lGAaMC5vkX7Ntr5LjV5WUdhPHfbRnDnkIxtGAlZ8zFrjM3MW1gANbMJDACsXM/fzCimbnNFvTDrtlIauuOfwNjwg8Myu4jbTTUHm5Cw1ACCh6xwaN8gabJ5nqmYui2iRBu2PPNzm3S5ETWkiO3bJ61AkmhQ52AzTPs/oF8ajL26BKo1JfXH9DS/Lw1Dag01lbXjA9Bg4CG37ayklkqwzGA58BuH4Jlt+PGCTbiGDj3P2boFEHOiTdyPBa2+GThKuj12WPAb0gkEnaeNEX0IdFIyJoQmhhoAkDyAw+wnUdEFMk7VCIWt/EKRZy1cjJMmg8itNsOcfE6QqKhDuZJAYkQ5UXIUA7QDp6z0WSdQWac0ZPB/5GYuTcy8uExgkGvwv6AoTANQw5QKDjExAiGQaygB0ZSNKMjzJ28HiUS8FggGTomNIFWwXBMlhxuOQwEcDXsuEGG8G1AQjpSkIAq4I1Ag4AYBrJmIhjXR37+l/U7v//b6yOeV+ibcHxa4xU4ywqcoUEYuShulDmeySjpTGZJzzgpusb/R7fnqmIYNQljDsIr5HIGcv7ibV/WX/zbP9PhY09bkA6Suosu3KFWo6tUelr33fsDPT1/wgqCDbJoEGyn51UoGBHQ+Kat221HC0Q+2i2z2c9kJuUJ+G2swKyeHTW7+t56AaZZMPZ7v+0K0GCgCrkMRv5DseOY94wxQCXM5AcfgU7bdsTo9rMTE5qemlIqGdPFl10ur+264S54rEiHIjGb76+t5Y0QSJMCR4IiWSqXtTh/UuW1guqt+noBBj1wskrsiDk/zhP5H0WLRgFlhUkyjdW/Hmmw7pvAOlHlgl6/3FEA9cuhDc22Mqm0hTHhocCO3MyCbCTgzIZoJnhOv3edKNjrKxaPWOYDowbGISYRxZ3QzI5QCjgzIdaPpgA1g3PD9CkSithxYoLFpOJHRkkO6ifWmsYnhmICovMAvwKH7JgsErVFAHUFyBJxzO5DhN93TG7qlCQoR/j/VsuNG3CGbDTXEycxtvIMDJ3A78L4Hl13DiOCq+msjd/hUTjgUyIWVTo9qf/qU3+oD37k514h77jxaYxX4PmvwBlUDOca1nQ6FQMHw9ZiHRV03zdaLY/IiSPL5VNVDBuljjQIfI0ahPGI4fm/1i/5X/Ihvrxc1P/1p/+HHr7/Hh06Pq+Bx6cL923Xnr27tbKSV6/t0513fFulSknZZFqLa6uW1EeRZbc+NTGtldVVyxdNxDNWvLv9jkIBIoJDSmdybqbd79pu07wSAsQpr28zmTWvuw7aCKHfszEHM28imjEUAkVgrs7uE7IiFYqGweUxgF5ktWPHDqXTKW3eMufcAb0DQxDMDCgQ09TsnBkntchFiEbVa3fVNCvnpkoF0h2LWlicV7PetF02oxKLMsaWuI+aAddDZJJu9m5pg92eEfKYr5v7IkRHC0ui6MIjcAmFnHMiDg8CS2lQDxeV7Pf4bUQAZM+unOaKJgGOgTkOrkdaU9QZl5iPwXqSJUgIIw4QDLgVjHxYZ2b5RELzjkdCyXORTYEUkrEIaAY7fuc5gaIBSWPErJ15fQi2stwLAr798FAYb4AqEBiFZ4OLZTYfAgtgclwJ1CtOpulRtYIDLI8xUpv0Tc4IIsG4A4TJnn9dkslj8dwoOvpdR2qEw5CIhjU9u1mf+MTv6n0fuvklf7+MD2C8Ai/lCpyjD8JGFcPZrJZPa5Q0ahCeTcUwinreSFIccxBeyqvjRX5uLjbm3rfd9g3ddedXdeTAUZ1YXrIkxAt2blGh2NCBwwdVKhZtZ3rpBXsVD0V1z8OPqFAuamoqp9dfd7XCwaiOPHVch546psnJWZPH9foUmYECoaihBbgBUtBgxpu0bkCxG5hbngvjwYIXMiJJg+xa3UwaPLtZx00R7b/7ohDbzpWUxOFQiURa0zPTFga1aXZK0Xh0veHom7si1s3hSFKZ7IzthGk2+t2+mRI9dfSoERoXTy5ZiFIDa2caEdCBjotTZmfODp2EQcKlLLzIYHgIhR11CTsiv6HVshk6ckNIeFacMQNir+3xmBmQvfHML4AdNl4CjicAgsB6cM4U9JECATSBgg+aArMDh0Sei2bAWSWz+4YECUESrQL+AnELw+Ic4VHwO5qtWr3mCJjrElFQGZd7gJQ1qmQ8bl4DhCs50uE60dLLCCLq+BCoQXrOWZHXi9FDKOzkpoyGgiG/5SVYzLSlb5Ieyaioa+MpQr+ssSG2m+bLHB4d+kKTwxpZaJW5TgaUS8f05ptu0fatl+nXf+PWsXrhRf4MGD/c+bUCz0PF8JwbhI0jhjOpGKCWb4x7HqsYzq/r6JyOlovticeP6C/+3Z/b1OmBB+5Tq9NRLhtRKprSUqEsv7qq1VqamEjooosu1lOHD+u+B5/UiaV5XfWavbrkkqvk6Q305KEjOnTkmLH+U+mUMpkJ1Ws1dfodk83BUYiFYwZ7UwA9vqHU8ygcDZopElJHxgkoHEAnkARSnIHxgeTN4YMZPioHeAkUGMYPHmlqalb79u7V5NSkzfA3b9liu9hmo2LFJp2MK5vLqtX1GTLALh0UAqQE9QJkyW6noaNHnlK9ST6ER2v5siUmAssT34xnAHHSjBcCIWR4GEk5fwGg90qlph4eCJgEeXBNxPvA94wPAYgAaEYmlTSTJkYVFG5IlkgeybmgnuM8SGGkQOMPAC8AVYL5JwycIZElPBrpEadGRgusm0yOKQ8IDaZDyBWjGvYgDTZVIdWyh+TS5yygG3VDSCj47PyTyaTt2uOxkDUNeC5wjsRV43Tp+BYEPTljJjNTskYjbNbZmDlxvLFEVP3u0MifIC2dTlOdVk8+/1ArK6vGNWCkQHS0eTnwGrfbzrkRAivjFp/HFCPRKI2HT2968w2KRbP6/X/+31gc9fg2XoFX6wq8CFkMp3IQRmDBadMcRwjCmUYMp2YxgCDwtTGsaTxiOA+vVj7sSTS8++4H9OAP79X9992pQqmiSDQsgvj27dqtiamc0rmM7rn3fhXLee3cuUe1QkX33vugDj99THt3TOuKa95gksDjx+d17OS8lhaWlEhl1nfuzK19isRjSiWzVgjYKobC7KxDBvVDw6NoRUJhizRGCohcbnlp1Qqfc/LzWQ7BoNdxZMb1ZEdDIIIR7d13gXbt2mlNAPp90IZQJKD88pKmJrOKRwLKZdJq9QOSP6R2o6Fqta6QRTu3VSmXlM8XjL+QX8ur1axqeWnZmo9CoWwxz93OwBqfGH4GhAr5yWXwa8DcX0OVayQr+sxK2cHv7IhRaiDnBHFwhR3YPR5ziZagKMzjkfiBIFB4URPQAEGIZHRAMadJAqyH4AiaYaRIDewY7P7mYulVHMtmqJg+v+q1unOiNFdCVAMNs2K25Ekzjhrad3bsGFchW4WUGQ2GrGkABYHk2Gl1zfGQ9afo02TQLOCJETPbbZfXwWvKGAZUhKMBXYBLQBPX7xLC5FexXHKoh42gCAPjowSCKsZUXvHS0yBEgkFTtoSDPlVrXf2L//FfKhb06w033KTs5MR5+G4bH/J4BV6cFXgRVQw/sr51dIMfaxDONawJJGGUxTBWMbw4r/HL4lEwN3rokUf19NMn9MQD9+vo00es0JRKZe3ZNafrrn+T/KGwqqWyjhw+qoMHH9eu7Vu1Or+q/YePaWFxUZvmprR9x04rLKurRS0sLWt1Na9ILK5UMqnhsGdwM4UylUyYWiAciRpRD31AB+8Ej0fRWMTIcybJ87LLb6nXaTqHvfY6zM8Out+1EQNFhgKEgdDM3Jx27NipzZs3K5FKy+9j/o2xT9OigjHkiQVk/gMEDSkQFR5BbYr40Ku1PL4PLmeg266rUa+o1airWitZcSyValop1C3qGJidBoGdMyMUUHikgjQ5lnsA/+CZVMvAOpmTUCf+NmLjExAICizQBs0D1saYNNmM38YMLgrZZUe4gk4zNzJhesatcdhTKAgh0I0o+Du4AiaRHGI/QdIiborOqrlWK6/7NEiFfN7uB4IAOTGVShmKYcRSv/NroDdxngfOOIrrAiSFx5qYmFQsFrOmB+IpUk4/fgcRmguv+khUDSnCvrshnwe+A4/j5I3O34JwKay4XZx4u9m0ZtLsoPscl89xTeTXp/7Zv9DunVu0Z98ebd2x5WXx/hkfxHgFXooVeAENwoiceFaZ48ZmYfT/G42SQA0STUuUAAAgAElEQVSeLYtho4phHNb0UlwlL/A5KboHDh/RiZOLevLJx5VfnLe5MwTAVDKsfRdcoFAkZTt4oOjF+SXddft3lIihc5cKxZqRCCORgLbv3KNmvWTeAqVqS8vLawqEQsplMrZDZb4NlB6Lh+3Dnxm+pQcOwR0o1GQryAUvrc/jaQBqjYapDGwUgD8/WnnkfX1GD/ATukqmkrrk4suVzKS0detO+fBTqNcViQVsvBDwD5WJ+kQ8Ejp+CnA6N6u2sP7tm8FTMOBVu103Hb5n2NfqyoLUpxnpGKpQrnZVreFASEx0wHa9FEXzCrRZPOmD2BQ75r3B8T6K5PqsH2SAwu31KJlIKhpPWJ4CRk3M7cNhSJRDF3GMZNAMiiABsvYtWxOKqKESxi8Iu59ZEJMLtwKVoUlgng8qYfHI8CDM4RA4P6JyBdUAJkvA/R5Tg3C88XjS3BjxVuCxMX/CFREFhXEiuh3NL5xUo9HWxOSUtmzarFYb3gMmRs6nYThEvRBTJBKyY6WxMQ5C3xX/TDas1dWKjVwY6XD9uYhqOBLIJH12XH5DXdxsM51Jq1QtqNPs6o/+1Z9p6845Tc9MadOW2Rd49Y//fLwC5/cKeDyeT0v6kiSYwHzRSZ+rimHkhzByVRzRDJ5RMYyaghGKcCpRcWNzsHHEMEp0HKsYzuPriyJx6NBhleotPf7YAR068LhajaJ5BKSSIW3fulPBSNwIZEjwOs2mpTs+fP9DOnzwCU3PbVazBczdUyabVTqZMDlgrVxVqVzVyYUlSx5E7haKcKkQz4zMDfJa0DwAgLWZP7dbBCMBo/ct92EoduNSa92xD8njKFQIFj67URoDUASajdzElLZs2abNW7fYbDqXyeqH99yhK6+8Qp12VUl/X6GgR+1G3YyWYvGMslOb5IultbS2ZMFLq/m8VpdXFPJ5VCoWlM6l5ff2VVhbsTUolhvKl3tKxVM2SnB2AF774vjILAjBA0AG6AsYnB8y34GwweX+oF+FfNGip4HHaQIwaGK3TqH1e4dmQAVnAWUGs3hsnDtteBZtCy2iE0DxgLyQHTxrb9bHwo64ZciE2U37whp6h9ZcMI4wo6N6zWSd8ARAXXC+dMTLjjUOREpHggF7fCeZRIaICdbASJorayvG98hmJpRJp838KZJIye/xKJNLmekRaBSHGY1AcgypVms4C+o2YwTyKCBwYqE8UL/XsfOlwYhE/GYwFQkzSmhbymfQQqW8uuTCy9Vo53Xy6II++Zt/rDfddKFyExNKplPn8btvfOjjFXjhK3CGBmFks4wu/HQqhlONkp51xDAiJozyUs9mtUxzwKhhbJT0wl/fl/QRVlfX9PD+x7Qwv6DjTx83EhkoAb4HFO50Kq0AZEL0/+2+Tp44oVp1TdViSXfc+X0jvmVz01a4AyG/0qmUGrXqutVvTysrBWssksmUefv3ekgSLfvPJHCoGCxgqI8j49AKnDMHQsroWPk2O++5gCDneQDjHR4AUj0n/yPkB9XC1OS00tm0cQ8gETIiCHiHisYCyka86jYdAsGO2xeOKp7MKpqIq9ZsqVCt22gDT4FSoWSse5AUDxHFrbaKFaSWxJ8Buwc1mcsa4oDVM0WPpgaS4WDAc/jNJdEHnwIeRKtn5wp0j09Do96Ux89IIbFuc7zuggjs3u1b8xMxiaDPZJFI/dhlt/AQgCdgccgeK+CMVuAzUOgptBR2FB0sLPJL+A+GSFiwkxs9YEUNWbFcrpjEEFklYVGxeMLIjYw+YDYwdnD8iJ41hqBKudyEksm0PS9rBKmRBg3ehHOL9CqIf0PfGTfT0OCI2W6vW757hmo3G9Z0MP+AfFgpEy/eNMQCG2aaSJqcqD+g6akJXfO6N+tDt75bX/1/v6qb3/URXXn1vpf0fTN+8vEKvBxW4BxljmeKe+YUnLPdjyc62g+eaxbD6WSO4yyGl8NV8jyPAQOdQ4ef0te+/h0dObJfmzdNaPOmObU6Az326AHFEkHNzGyRjzQ/cxKUTpw4puWlBdXKJT117JiWV/I28zf2fjCobCZpo4CBx6NisaC11aKq1bJS6YzBzhQaeAUWCBRwjn4WKijCfZDCuSLGjhfp3miXbnbNBomvBwCZrbH7Aj6fmcxpdmZaWzZtVTKTUDyGjTOb5q5C/qFCAa88yPA8QyMSeocoCrryhpwfAqqBk/k1NToDFQtlI1CuLC0Yb8LcA+tNVcoNNTtkLcCo5zliSmcg5vns//P5oprtjvkpBEJhO65ILLmeb+BUBOy6m62WEumMzd5r1boVY7wX6vWakRDB9oiLNnUC5EekfsRK2xrhQTBYh+dr1sThTujIfYxgXOaC+wLud9bQXrwYvIQipSzjAhIhI5NSsWRrzegHZAFCI5wQXmuIhIxRarWa2s26ITkYI+3avc+aMQ27Rhpt8LtGXfV6S/FEytAPs7P2+1Wp1k3mCsLCmpqPBD4JHpcuaa+312VK4AfhIqeHxn2gsUhEo/rwz39QQ19Uv/rrHzfzJq6Z8W28AuMVcBJpr9f7GUlfWB8rjEYMIzfFUQ7DuTopjpqFn5qK4QM3vPUDH4fE9Hxvb7z+Ov3xH/2hksmxhOn5ruG5/F293tDtt39fTzx5v+ZmNynoR47WUDSR1MpSTQsLJzQ9N6FgmPRDH869OnbkkJaXF7Syuqb82pqNEcqVsrZt22GkvVQS6Jp5fUmFYsl25OwOURREwmjngePZ+WJohFsgu3FHvINIh7qfQsJxQGqznyOBHLALZmfes8KO8Q8zdubXu7JxbZvNKTM5qcnpTQoEmKH7FQizg/cbakEUMt4BsO1BINjdm73xUIqnJ5RMpNTpt7SwvKpiralqpWwFjJRHCjdOhmurNWeFHEtpemLCLJQnJuN2vqgiOFZIjLgGAv3T8ETwefAHFA7CLXC+BLFEQqlUWuF4VIefPKSh16tEPKFKKb8ei4yMkbTEnvz8XQ/jI69C0aDN8QFAWs2aao2qnSdywGaDpEwkh7ICSrMGrwEuR6PmRjHT01PKTU6oXC4Z38IcKsvu3Mx+GWOjSNj+ljAn+AKEYpHQCbIDqXTvngs1u2mzkomEwfuMPbgvCY+HDx8zLwjQlMGQYCrkjx7HdTAvC5mB1CiAqtkkCRQECOvslqFEYA4QWieyGSUjUb3//R/QO9//Xt11x5265d3vHMc6n8sbe3yfV80KnEXmSJMwGjHwnZ3EmbIYXhQVwwhFoIUfqxjO88twaXFBTx44qGKpLv5/oJZmp2ZULhaNiX700FOKJeNK57KqVhry+AJaW8JAKG9Fplat6OnDx1RstLRt2xZNz0wgTlOz3VVhbc30/TQH5WrZkhuzpipgN+kKBwUIhrxz8qM4ODUB4wWKIztQK0y4/flgsXfMXc/kfYYc9OQd9HTZXE5zsxPKzcwplZpSKBoyWSVz/yFwPzvdVtsIjTj58R8kPB+PVaoYRyI7NSn1hur0Ojq+tmpzcSBveQkzqml1taZapa5mB3g+qWA4ZIFKmWzcIRUDzIk85hYZz2YtvZBiDvISi6fMKwEUBJno2sqa84KIJVSpleUZ+q2hQClRLpXWMxHajpPg89m4pNlpq9Vo2+Pz2EDx9QZhWZgz4V8gNSEaDjyGDoycKBkBYJEMETQciRjnAKXE0sKiyRSLxZLLu/D6jLTJfXmNQCA4AY7POSn6rMFIJZKamd2keCKmRDxlzQ8umSwqzpPzC0vqtjry+sF+IGhA1iTMyyEgmCfRUNiYxwuCAgeirnKxYMe8adOcbnzLW3TZZZdp185d2nvBXjvu8W28AuMV+MkV+FmoGE4Naxp5IGz0QqAxGDUHI5kjTcLIB2FktTxWMZwnVzEF+Xvf+qa+/Y2/Ewa+s5t2mOnQ7l07lC/UVC3ntbycVyyV0MTElIr5ohHZgL5tzt1pqVhYU3lpTY8ePGhKhR07tiiTzhpJrVAsW1EmFZGYZ8YLk5NTBolB1gO+poBzHJY3wJx9nXdgO8p22yBydr7sLlE+gBiMchfMHKnTVSri1+7JuGYmJzWzZbsy2UkFo3ErkpgUmSICCWKvbQWbuTcRx4QQeQJetWrYKLeUyk4qhKrC51Wz3VS+XFOtXdfy8rIVypPza6pUOubXwPze4ydxMaJwNKRoPGSkTItHjsZsxg8fA08GC6MSqEXb3CMjkYQpNSjkWBXLzpGmHoSkbmZLrWZdhXzJmhXUFGRHsHvHRwDPAOMUYP3cQ1rZU6/rZISEZgHz2M6/zb8pyJx/T8FwwGyfE6mkyRRBFeCfwJvwrKtFzDaZ1EVen2DAOR3WazbeiMdSSkWDmkrGlCPCG++GYFTDYEDFQtG4FCAY+XzZzI6qtZq9doxieKyAP+RCnIa8zqAJTfNmAJ1gBAW3gfV533vfp9/8zU9qy5atxnHAg2F8G6/AeAXOvAJnUTHQvZ+OgzCSN25UMWx8kuesYtjopDhSMPD9VBXDeMRwHlzNWPR+8fOf13e++zWTEGKEMzM7p9279iqRiejeex5RMp5BQG9Fr75O3muwE+8OtDj/tNnkMq9eOLmolUJB01OT2jw9q1Xm2u2WSjQJ7aYa9brp6zPZjALrmQNGZqxjYESOgV/tNiZJXvM6wEvAZQWgWnCNg8fnsZ+Z0Q9FvtuzIpmNh7RnOqO5TTOamtms9MSkgn6f5R4wRCPHodtvmbrAIpstzxgVhYP8MfPhK5aektfvVQQrZHT6bVQbZRXLFR09fkKDekOL1ZZ6Hqce8IeCisUSZo5kXk6drkkWA+GISTzhWSSSSYtl8hA0FIs5F0IKvM9jtse4DjZ7PUUCYYVjYbSdqjeaZjQFkoAZEcS/ZrNj9tYoPrBHhtXPetGskf2ArNDIfrHIulWxx9ARj2U+OD4C3A1GCjQc3oBH+dW8qQsgn3rXPR1QW0TY6fuC6nVbquM86R0q4ItoOpPWRZumtXVmWoNuV1USGMMRdf0hNfoDlWotxTIJ1UptQxVo8OBvwD1grNNsNYxj0GrVVCpWtFZYcgZJJGlaI+fVpk2b9Xu/+wf6+K/9gp33+DZegfEKnH0FzhDW9KKqGEbzhzOpGE61Wj5VxTByUuT72Enx7K/pS34PCHSf+6vP6Vvf/qK67Y6Wl6rqDutKZTLad+HF8g2DWimUlErFlU6mtLy8ooWFRSO4VWt1ra6sqNtt2k69VWsYw3/r1s1KxMJW6NdKZWP+s5uuVMpGSExiUhSNuaQ/yHBI6ShiHo/iiaSK+byNGMykqOcindm9owzANAdiIz+jUeBnENo2pxPaOZvV1i2bNZHLKj4xue61gMOfRwEvu++2qrgPDqTeoG2GPFzwwPPBgQsYIoLYF0sqhKcBcH61auM6EIviyprySycVTEzoRKmhnjeq7rBvTQYR0p12zcYAgyF+ASHFyS/oda3YArFjEx0KRS1m2qOearWmItGoYom0ZRjjAaFhx4o+JEBQj778ll741FMHVa5i2NTQgN33usVyo922Qs1oAn5HuVRTo1YTadKMPyANpjMpQwNsXVsdK9S+gM/GSZFI3IKqPF6CmzCwQoXglAsmuTSXxJ6isbgysaRuuvxyXXPRxSrXq8qkEyqs5rVw8oSK9bwGwajq8uvAwrLFgodBUbp9eYM+dRp1U7Gsra7YKIExCISSqKE8LjiLaxF/hm3btuk3PvnP9Msf+7C9NuPbeAXGK/DsKwC/x+fzneqDMCIobuQg8ME6IirCRRipF06nYrCpwunSHJ8trGnkojhKchx9HyMI5+FVTLH9yt99Xf/r//Y/6aqL9mj/E0/r6fklFcorets73qiJyYzqNZ+KpYImJ7Kq11o6eXLBPuzZuWL3y/jAxg0w07t9zc1Om0Mgs2d2hjQT7IKNJe8PaGZ62uBmCjS8A8RvdhUOh4oEw6rUalYoaAL4HWZAfIevwOOxA0bZQMFlDBHweLQpE9f2qaRmN2/S1PSsUhmK7kD+IPA03P2u1OkbotHuNA19CEVRHkTMSbBWQ5bYM4SDzATm8L12Xd0W7Hufyvm8mtWqWT+nc5sVSsR1ZDGv1VpNEO5j8Zi63Zbi0YiNQZoc89ChAzx/Ih43FIGGgEJMYwRkDxufdfMH4ElwPl3Fo0HzM4D0afeJJ+X3+LS6tmRNVnFtTeFo2AKakIhCLqTw81i9YVd+r1f51YLxCHhMkAbQEZ4HqJ4sDMYgmVxWJ48fV3/gsedFQYG9sjknBgNqN2sumbI3VCqe0JuvuELXX3qZwv6oIjGOGx+JhpZXl7W4MG/n78XLIpbTgfmTdp1YeFSfMRDBWm5MMju3yRANEjoN+cBcyjwc8H/wGaHzAx/8Ff3+H/yWJTyOb+MVGK/As6/AWVQMIxRhY3NAk8BYwcmF3Ne6/thZLK//7FlljucS9zwiKYImjKKe+T4eMZwHVzUX1t3fv09/+e//b129La6AL6Wja379zZc+o6tee5HtwleYvyuoaAxtelonnj5pfACbf3d7WsuvqVarrBMOfZqcnFQylrDZOcXLLJApYgaVh8xTgQbB7HPXr0MKGAQ5mgTT3a8n+lmyZIeMAEcApDmAA0ERo6iBNMSDfm3NJbV1Jq3Z2U2amplTJBlTiOho8/90OQDtdkOdJiTFnu2cg+GIMzbCkKnWUqfJbrmjTr9vhYykQQwPPIOB2vW6vAOPUtmMuS5mshO26653Bzq+vKKVckVez1Ae78AImhhMmSdEMKxoPG5WzERIj3wC4GqY6yFkzkbDfAdYkx+NABrmTRCLJRWJxy0Cm0CparlsM33spcuVio1qzJK407VIZMtrCKImqFjRxUEReaOFMWmoUqFsYwdGRRZ3HQqrY/HVJEZ2TZbIMfJYnA8Oh55hQDvmNuujb7lRuXTa1jUSTdrrW6uUtLS6oEIpr2ajrGa7pnBmm9rRoA4fO65mq288DPwMgESS8YSpVeCt8MlDswL/AOIiltQQJ73esK699s367U99Qlu35M6Dd9H4EMcr8NKuwHMIazoVQXg2oyRrEjYiCKdmMTBqGI0bRgTFjQjCs6U5jkcML+01c87PPn9yUZ/73GdUXDiiq/dcrK/fe0j3PnS3duzZrH6ro5XVFXl9EWOkz03PGWEPOd1aPm8SNmbYMOnN9MfjVTaTNYkaPgbwGoxUCJO/49QHsP9x5YNs58ySCCxyMdBcjjwPc2maBGRxNptej/4FiQB1wDyJwsfFOxEPa/tUSlOTU5rbPKsUIwZ28uw+ge09IA4uQhijob5HSsZziobDajSrKldLGvS8FsZUXF02WJ2cBGySIfyBUIAywDlIJjNKpHOmjsAhMBJLyRcMqtntqlgpaf/Rp22nznlls5MW/mQJjkEcFCEkIiGMCsVmp+8SF7lhlgRnAjkl8kSUAHAJMFYCZkeqibNjZiKrSqGkTsd5Hfj8EBwHpqQYyRlpchgX0QBAFE2nkkZ8rFfr5t3Q6bdNicFYBN6BIGTWmkYahIjKuKheKapQKtloJJfK6XWXXan3vv5682IIIlHtBQxlIoWzPmiYV0S1VDIOy0p5TXN7XyNfNKpyq6fV1RUjShpq4vErEPSqUq2oUFgz5KPfR9ooQxYgOMYiKSOZ3njjLXrb267Y0Eie8yU9vuN4BV5VK/BSqxj4HD61QRirGF4hlyCF5lvf/Lq+882vaHs2p+/d/4SWiwXLWEDXXq3UlczlzNkum8ppdXlB/oC0sLBm7SV+BctLBXW6bds145aIWRGoAbt/ChX3YcfP7/HTh4uAmyAOgfgLIHtDosf9fV5ijTsGelmxtTFDZ91AaWg7UNj5EO3gJGzLpTU3Gdf05ISy2QmFYhGlmOv7MB0m/4gMg676Afb2MtVAPDmpTg/jo7Ka1aYK+bKq+SU12NnSqHi98odJEIyY/0Mg7FckklYqnVY2O2PNQTyOMsHFG8fY5ftCVlR/+OQBG69gKU1jEw6F5RsMNDs1pZDfa0qPuakp3fHI45IHSWHAuBS4PdaRE5KMyFiExMeAV9l0VpUqWQXYJ+NHUDBpIRwFfEYg9gVCEVOcpDNZ5VfnNewNLPnQE/Rofn5V3VZb4Qi8j6HqzYYCHhoDwp8C1tRl0vBLljXoOW5GoVwyguXkxLSSqZR++YYbtHsrAVw9e31wTWx0GC8VVSwXtbx8wrgT8BUee+whTW3epavf8T4tFldtZINawjV7QxshdNpNl7cBNOTB/8JZSJNBAeoRj2V08aWv0XXXvkY7d0wbgjS+jVdgvAKnX4FzdFIcmSWdzgfh1LjnZ/wQNr71Tv3/UyWOoAkjBOHZGoTxiOE8u5JPHj+hL/3t36hVWNAjB09ocXVN0dBQx07M2ww7NzGtSCykUr6ierWs7hBv/76KxYpF9KbTWSswBAkhZZyedh/qWAXTFPzI7bBnRYB5eSRMAqKTHFLwSRkMkF/QIxSpb1JI/pYbYwFnouS1psG0/sOhkrGQdkymNTuR0szMtBkN+cNBBSjOZrAE7O+xQg25D7fCSCJnpL1Of6AmuRKtttYWF7V67KBxH3wkCRrE7jcnRIiLwWhCEfuKKZlMKpPOKZ1MmwERkkIKOhyJUCyqVo/zGahSr2puckaJaMSImN71PAYKpc8bUmPo0dHFJc2vrtnfNGsVm8czuiGfgpwKG1j4fCoV8zYyYJePq2G1VLXmAVUGBRVFhskkB0M1685TwEO4Ujhg6gfOG6dDophBGlByxJJJay4wWMIYiSauVFzV0vKKIqGo0umMNUTxSFS/dNNN2jSRkzwBABn5I0E9ffwpVepF1TGF6jYwldCRg4+puLIoXyiqK9/yHm2+YI/yxaK6fcdFoCmAZ8Ia1KpVIyjicYHHBOTOWDhkfhQTk7MKhxO64IKLdf3rr1AUdcf4Nl6B8QqccQXOomIYNQenGzHQDIxSHc8Y1vRMetOGscLZOAgjo6RTfRDGKobz7EKm2J58+oT+4Ztf1mP7H9GBQ0f09Il5DYZNM6gJeP2Sf6j8as156fv6ZtdbLFZVKFYM6mcOjucBxT+VShqkzPTfxgEWBOT8C0AGIDHyhVsffgT4AVDgkCMSRGSSxnWnRZoCyOwEALG5x0kRVIIGZG4irW0TSU1PZ43bABnQF3KwOfN58ywcytwaKfYEMYWjUQ0HflWwJO501SyVtLhwSK38ivxevzyoGoDSAxH5AyEbVfgDMQWChBhhrxxTNpNTOpFRPJlSf9DWsN1Vu9c1CScFnKwp5xDp17DbkY/UCR7T7zeuBYZDFOfOQHp84aROruRVKBSs6aG404wQtmTZF62G+h6feSMgfTRviUbNSQD9HnWaQPRdS7iE1Le2vGzcAtYXOSqvAecESmGoTKdtklJGMT3CnzptTU5N6tixQ46j4A9oMptVMpbWzERWr734Cl26c5vCsajqFTgQfeVX11S18cyahm3JGw6qWMvr0MMPqz9sW5pjcnK73n7rL8oX9OrkyrJaHZczQcNJlgQhTMAg5EMwtuCTiR0IMkuak8HAq4svvkRXXHWlkWXHt/EKjFfgBSMIz0XF4Maf60+5sUEYqxhepVci7omlUlGtRkv/7s/+XMcXntDC4prqzZpmMmmtrJZstxsKMj/vyR8KaXmloHKlZoWTv6Vw5bI5I91R9ClM3a6zDGbnDxJA8YSY59IKnYkPoUMYCYE2AHuPrk6KJjcaBcYKFmUMlOX3aetMRrtnpzQxSYNAEFQAzyGDxx27BmKjlIjElJmckzfgtfAgdsvFct4Y/KW1ea0dPWwjDkiZ0XDCgpc4D6+5CrpRSDga12DoVTiVVTKRVtTnU2oiJ0+vZzwEv0hdpCmS/W0YJ8MBVs4dG2sYiRBraA2MJEkglj8cVbFa18Ligh4/dlLdwdAIn7gk9hi3+HyqVmvKZNPmB4GjYbVQVjyZNH8BzpPRA4mTPDdNBEmIVNpep6FWc2ASVdwsKcagO4wQ0pmMmSq1my01qlXVGhUVy3WHggRCetvVr9OVezZZAFcmmVGQ17veUaG0osWlRUM2atW8qSuiyYwajY5OLh/S6omnFQwFDK0Zev264o3v1YVXXaaAz2Mx2MgdTxa5htz4iAAr+CvsX4i7xjIbLsbUxKRmcxNG8txz6WXavG3Ojm18G6/AeAV+cgWeh4phJHF8QSqGs6U5PhtJcaxiOM+vZArxwccf1w/vuVOvufa1uvfu23XnP96lVgv3vVVj2RcrFbU7A+ULVZMysq2naGGWRERxr4OHQNcCfCgIcAFGn/NA9bEYpkEOHke26Io/sreheRkFAl4r8KY2IE2x7Uh93FKJqHZsymnzTFaZVEbJdEJBI92BtDvjH3bwsVhc0WhGkUhQw17P7JPb/Z5mt2xXOb+iTqWgpaV55VcWbFTAPJ9mhJhk3j00CFbwo3FFonHzLIgls0a4jOIO6AsYVI5joj8El8KrEDtiIP51D4ZOs2p/U281tZRf0QU79qnXbmq5UtSJpZO6aO+FevjwSa3iQNgGIYHUh4Kjo3K5oOzEpM3oUZQgwUTpAUG0VCoY34AGhvTFVqdpShAKazabs/vDU8CNkHEP1tL+UECtRtMKMWMdpIilUkmdVkfZZEY75mZ1zb7d2r11q5ksmd2yz6NGtaFQLK4DBx+21zEU9ivgj1iTs7a2rMVjxyytMRSNqtNrmOzR40vpDe/6oGZnZ01+GUUd4huoWq8b4tRotk3WComTjImIP6zZbEbBMKOkgdo9ad8ll2vn3p3uOMa38QqMV+AnVuBFUDGcykEYPcdP+CCMfjFCEeB1jUYNIxdF+Aej5uBMMsexiuEVcCFz4Zk+3e9XtVTW0aOHzbyIjIUf/OAH+vrX/14nFuZVKOIHQPF3ksLJiQkj54EyYMdMQQBFQKaIWoEP+1QqZVA35EaTLwJBG3oA98DSyeSF/W6pjwNnpLOOJlAQt81MaNNMWrl0SvFUShNpp5ygIaHQ+3wRg9ox44nHkjYDr1QLNu74ufd9RNff8GPpt44AACAASURBVA5DIWg+8qvLuud737D5P8+LO+Tq0qJWFpdMkkdaoXMajCuCJDEUtlEF0H40FjMyIyTOMOmR8hmMH0SC6JEZKTEi4TiY3/P4xs3zkPnQVc+Cp9pqDKSnTqzo+Mll80S1qOXhQI161YiNpGOCQtSrNUNS+B2PAdcA9IMGoNtqKZlJuTAsLwFJPcvPoCFAMcFrA8EwkUyoVcdKu6J6s61+b6BULKJ9m7br7ddcrf6gqUxm0hCXGGZKkAqbTeVXl8xLQr2O/OGwhVaBFDx18DE1a1XjawRiIUMQaNJYh/TMLm3euU+7d+zSRAreA8cQUaPbNpfGarmgocejSCxuGROMRsiHaEFU9cR0/Y03aXpm+hXwbhqfwngFfjor8AJUDKfKHB3s6m72/Wwyx42NwsYGYURSHIc1/XRe85f1o0IiJMXxi7fdpk9/5tN6/MkD6li4krP2dpkLOdUt4wBrXRQO7rqzdEI/MHfWWOzIFfFToDlweQSgB0MbF4zCnLAmZvbNjb+Nx8PatXnCXALR1ieTaXNQDPiG6g+7Uo8UR4pNQuFARIFg0NQSc9u26/Vveov2XHDpaSFrGhUY9ZgQYewEibFUXNGJo4d0/733aGV+Qc1mW8FIVIl40iKKQ+GYqSnNHXI4tCCjPvoGSJHegM3UQ+GwAr6g3QeEwQumblHHWEDD7m9qqAAuy6q3e3roqWMG+ReKa2YqRKgTyZYQF72BgMqFovk6wDmA5Mn6BAPraZg4UOI/Meio2UDy2DbkJRLDewJlhU/lEqRHqVSpGYKQisb0tssv10U792oynVYqm1WlWTZ7ZYSoBDE12hXll5dVqZVcjHW7rWg8o1qrrmOPPGhoSygeUyCCRJTgra41ZV5/SDsveo3e+cGP6ugjjygeCxk/pFQpqsMxNmv2eDR9IW/IkjdrnY6qpYKmN12mt7/n7WNHxZf1p8H44F7qFTiLigHb0o0kxY0qho3kxFEuw8Ym4ZkGYWOzMPr/jSMGs5x5FhUDNGPIiiOzpPGI4aW+an7Kz89Fubqyqr/6zGf0b/7tn2txacWKOAWcHX8mk7YPdgoqzQFFahRIRBFmxEADQHNgLozml+CuV3bAox00CAbAAaMLJHK3vOMGDdstLa0tKRIKKQpxMBXXzHTORgrIGr2+oPzeoPqdlvku4PjnCwf0Cx//Le3cte95rQyhSCeeOqCvfeFv9PjDjxhxEN8ASIfdHgTAgVMfEJns9SkeA71IKxZJKh6NKeh3yIEPr4eQx1kiIzWEm1GrKprJysdxB2KqtVt65PBBHVtYMhge22LynVknSJCoAdq1uvEL8EwArg96/QqgCtFQjRaulUEFIzH1Oi1TDEzPTGp1aVUev9+Cs4r5ksqNmibTOb3ntddrz+bNiocjisXT6nSr6g0D1rjQEExMTqqYX1HNvC6k1bVFyRdRZmJOK8uLWj56EIGDKV38oZiGPrIt8IPoK5qc0bs/+ut63VvepMcevF9PP35QYZIc1VOjg2vmwMifDZAEYr+5foQ1tUfv+fCtSqbHBMXndcGO/+hVtQIej+evJH2BvLf1LxoDvjZGPW8kKW5EDzaGNW30Q3pWq+WzqRhGNsunC2sajxheBZcnjcCRQ4f02c9+Vn/35S+pWCiY1t2NJvpmuqOBR+0u4U7rdszrzQCpgV5SCSx4iS9kfKgTPJbsaI1GD6hampjI6eKLLtLb3najfvXXfk23/fX/o//va7cpB9s+nTML42h4PXK4P7QsABqKfrtnDoz9QUcf+sVf1ZXXXP+CXxXQkycevl93/sM3deDx/Xb8qCNIQ8SlkHPC5wECnm/gUTo9YaTMZCKDuMK+yJYwk6J16SLrSN4BoB6Ii9fvN3zvxPKKSq222s22ouGQ8uWK2o2aKROCPo+ms0l1hrhZlhX1epTNZXR8YUnzhYrKjYY6jbaSqYQq9Yo9F14NcBnqjZb5W+QSSV24eZted+XlFiLVbzXt9Yqnk0pPTGttddHInv1OT8XKgopFmhG8LYbauusSDbw+HX70PtWqJZOOgtSgWujRpng8SmcnddUbfk5vfsc7nP21pH/82ldUzZcUigWNo+IPkj7pMcSGteurrVazp4nNF+otb3vDjwirL/iVGz/AeAVeuStwhjTH5xrWNEIPfsIH4XQyx5GT4pk4CCOZ47hBeOVed2c9M3b4Rw4f0pe+cJu+973van5hxUh0oxsIQYsdb7tjznmMEhg5RCLM5n3rCgfsfh3HwHEPnK8AD4O/wXve8279/Ec+qmuuvcbcCH9wxz/oT//1HysY8iuTySiZAq0Iqt2uGXQeC8XUbGA3LF121Wt19bWv1wUXX37Wc3kud0CK+cj99+jJxx7SPXfdbkUTe2KUEMglITTy73gyrWgIjkJIfg8ZDF4FvKQ7OtUD839yE6xZwLdhPSKla8ZTQ3UHrsmBYNgxSWXfHCB7PUKwOhp6PepB3sSVcjhQvdVWtd1ToYoXAn/bV6XeUL5WU7WOooRxzkDJUERvvOIKXbJnpzOtwhzKjwTTazbUxE03mjXLv1jJn1TAE1a725DfH9Ub3vVuhZPTuvsf/l7Hn9hvORWhSFCeILv/vvEfEukJXXL19XrnBz+iWCLxzEjnsQfu1dJT84onomY1TXpmo4Fksq5oJGyoQ7nc0SVXX6MLL9r7XF6S8X3HK/CqXIHnoWI4NYvh1PHCGRuEjaOGsYrhVXm5PfeTZge8urKku++8Q0efekqbNm81hUK9Bv/A8RAWFxb0yMOP6OH9jyqfLxirnQAjCIBGoBs1ByQbeuAaBDQ3N6NbP/Qh/fonPqHt23dY88D99j/0oP70f/+XRoJjVBFJxJ3XgA/lQkA++bVw8rje8Ja36YMf/ZgRCX9atyOHntA9d31PBx5/WL5e39IuffAObKTAuMNvyoNoJGHSTkpowOOzFMchxE6f1yB3+XGIbLncAsuucqZJGDeR+8B6wTfAxKlSK6iPh0Ot5jgNXo/6w6GtAQqNgQcVxcCUEr1eS92hV/VGW8ePk7QY0kx2TptmJjST22Q2zeQ9DL11NRsEbqFQCKtR76jRLJu7Y7uN10VIF137Wr3p3e9VIpPTVz9/mx774d2qFvPqkbNBamVgoN6wp3Aoot0XXaFbPvRL2rJjx48t/dGDB5RfWDZUhdEoig0CtJaXVsx9EkLnWr6u99z6fluv8W28AuMVePYV+FmoGDY2BiPPklNHDBs5CCP04FQVA1yE6DjueXxJuyLHjtjjDIAaDa2sLOqRBx7R3/3dl/SDe+7W/OKizc8thwGSCzNoUzgkde011+jWD9+qj3zko0ZYHN3YAd/+3W/oC1/8nDyDjhIJIoMjJmHEjQ95IRbCQOEf/8Rv6eJLXvNTfzHYZX/us5/Wxz7+T3XkwKP6wuf+g0rFqprVolrdjpEXcXjEY4EESSSRQPLs2CEvBrCU9AxNPWHZC5GouvWayQmZybOjb7dxfWyY0yQeCTRHjGRosvh7uA9d9dTBlKrZ0HCI6ZNHA/wqgkENuwNFIxnFEkRO58xzIpXMKRyJq9ooqri2rHgq4wytug3Vq021eM5uR+FwRNe+6Rbd8k9+0dQSR44c0Tdv+0+aP3rEmoMBzZ1/aNHOXq9f6WxON/zcB/X6G99qZlgbb0efPKBWtWUOlARiwVUAUQJB6g26arablv1x0803j6WNP/Urd/wEr4QVOEXFAAcB7gHf4R+cSlIEPRj5IDxbWNM5qRjGYU2vhCvoZXYOtVpVD/zwfn3j77+ue+69x2ya84WCFbxLLrlQN9/yLr3//e/Xrt17fkxtwBsBbf9Xvvx5PfzgPWYFjGKCv2u3mF0TSlTTwBvUDW99hz7wwZ93joM/41u1UpTXF9CR/Q9r/yMPGkxfLKzo8IH95nxogU0+3BpBF8IKhSLqI/H0DiyoClSA4q4eagd6B3gdAyui/NsFT/Xcff38yKMe6gtIot4AFAfjOuAk6emRKokrpN/GM5FwXPFESu1uS7nspGU7hKJxU0nUynkr2EgUMV7sdZravu9ivfHt79a+q69WMBTS7d/6jlZXF3TPt76mZrVmoVHW6ERD5hkRjgZ04aXX6u3vu1VTs7M/sfJHn3xCJGbBO2lgL90naltq97vqDqRaragrr3mtZue2/IxftfHTjVfg/FyBF0HFcNYRw2hlNsoen4uKAQUD6AEqBr5/8Ia3fuDjmLQ839sbr79Of/xHf6hkcgwzPt81fDn/nUU5t9t68oknVCismlESDocXXniBtm3faTD3xhv3r9Xruvf7d+r7d33L0hczkzOm00dPX6+0VSkVtby0pMuvukq/9slPKZubeFksAcdeKq7pwXvu1B3f+bryy0uqVsvyeUiM9BkvgeAn83zoM8XvWdE3m2mjJMLj4zu/68uDAYFxDqAuQOQc2v35+xGHAzGlIQeDvrkjkmeBDimbnrSxBpJUvBsaLXgMA5XzBeMwMNbod9qKJHO66d236pq33KTs1JSt46o1chV996tf0oEH71ar0XbSpgANQlDRZFI79+7TG298l3btu9C4JKfe9t//kNKxsLyBkKpYN/cI3qpbzHa701OpsKZr33CDZjdtelm8duODGK/A+bACZ8hieDYVAyjCqDE4q4qBNTB61Pr3U+2WeaePfBAsFG/dLInvI5LiSObIiGEsczwfrqqXyTFuHEWczlIX+SMphw8/8qC+/pXPq9dtKZubM1tfHA0JJKrVmqoUi8pkkvr13/iUSRBfbjfOE6knSoiVxXl95W//Wg/c+wNTKfg8Qw09A3ksqIrEKGSTISf9HHqM5Mhuu9/trxsh+Yy8iPyRzAgcHfl3KERjNbTdfrfTVCo9qW67LvkCpu5oNUrKTc1qeWnZUIxwxK9yqaRaqSJ0kowokulp/ff/579RJjthaAaP12q2Va+3dfjwId3+9S/r6Sf2m48Duo1BADJmQrv2XaQbb3m/du3dt/53P/4K1KoVLR9fUjwc1IA48FrVvCYazaaNShotyJcDXfeGNyqTzb3cXr7x8YxX4GW7AqdpEEYjBpQMjBpGcsczjRjcnPdHt9OOGPj1qO1/NpIiRkk0BHwfeSCMEIRxWNPL9jI6/w4MAiRZD48/9qT+4TufN2OdRGpCExOzCvg9FuzUbkor+TW1GhXtveBC/eIvfczg9PPhxvl98a//Uvfd832V1pbUHXTVqNRspODz+DX0dM3TYIgJ1dDZN4Mr+D1BM1FC3RCMEETlU8gXpw8wtAHSIqMFiID4M0BsDPlDNudvNJqKJWLmjtlt1s1Aqd5oaGrzVr3plvfoDW+/xcK2aE4qpYoC4Zi5GxbKZT3w/Tu0ePSgVk8eNxdMAqgIyMpOTeiGd7xXr7vhxjPmJjx15IiGGE2BmASw4u5auiQZHVgslot5Tc5t0iWXX2Z8lPFtvALjFTj7Cpxj3DMNAs3B6IuGgP/nttEwiX+fk4oBFOFsVssbEYSNDcIYQTj76zq+x1lWwJkxLWv//v169OH7lV97WolkUqFgTBOzWyzeuNNqqlptOnvedks333KLrrvu9eeVfh6ofW1tRUeefEwrK0u669tfV3FlRfVy1SKx/UGXsm5SROKZQ2Q/hMzyGZJjkIhrQxGCBtfTOAjSprBgrisQ9Ko7GMjv8arerJpKhHEM0syQP665uR264LqrdNFV1+iiy6/UyWNHFAwlVKnV1RmQ9HlMa0vL6rTqquYLWj55VI1KSf6Ay6EY+Pvad/Fr9M4P/PwZRwO8lt/9xre0dctWhXw+G2vgU9FotezTyEK9Bl3t3LNX0zMz4/fGeAXGK3COK/Aiyxz52BhNE57VSfGFqBjGDcI5vrjju51+Bbjoi/m8vn/3XTp+7JAKKyfl9ZGqGLQ4ZOb2Pm/M8geGw4Aqtaqq9Yb+yS9/TPv2PT+3xJfyteB8ITPWazU9/ujDeuLRh0xCePDRR5RfW5ZHfoWQS4aSNn4A+feHgsbVgLeA90M4GFKxvGbujj7PwBoARg2l4rJlXaCkqFcLajRaGvS6mt22U+/+8Me09+LL1Bl0dc/t39cbb7hZjUZN5cqajhw9oOXFFXXbDVWKFWFu1axUVCkuO8dK1BMRmefBTe+5Vde87vqfUC2M1pTz+943v22yxyDWmMOO8vmyYqmUBoOOKsW6/JGYLrz0AstjGN/GKzBegXNbgVNkjo1nUTGAGKCjPhcVgyEJZ8tiGKsYzu01Gt/rRVwBoO3Dhw7pwMGDOnH0cfW6DdsZp5JptdoNI9cBsbcGQwWDUfU8fhVXi2ZJ/Jv/9DcVi8dfxKP52T4Ub3bzQGg0zLkQe+X88qJ+eNc/aunEvFYXF8xemaAroWQgD8If1ua5vUokw7rrjq8pnZ3WcNg2UiOGSv3uwKSgM5u2acvOnZqYntNl171eey++1IK4ioW8Hrn3QcVCUR098Jjmjz6lcmFNxS4GRhVrQPBHwGVx0HOoZDwZUSQatmbtqje9WTe+/V2aXCcznm7F7rvnLh18dEWvfcOl8nq6lsfQbTeNJOk3s6SGfLEpXXLpjytXfrarP3628QqcfyvwPFQMG/MYTk1y5N8/MWIYrcqZVAwbSYoO73TkRL4Y9p6qYgBB+NWxiuH8u9he6iOGxHfk0AHdf++dKpcKCgf9SsWiZtdcrFQt/dBcC30hVWplRaMpDQc+zZ84qje/9V1673vf91Kfwov2/KP0SoozCg8agycffUR33/5tHTt4yOSGve5AiWhcfo9PnS4xyx0XWe2XcpPTOnn8uLK5nK645nq96eabNbN5m6EKyD8Z13D/799+u3lVLB97WivzT+nQY49ahka5WVPFGgSvmmRBtDqKBqPau2uHvMGhkhMZTW/Zqpvfeasu+P/ZOw84yaoq//8qde4J3UwecpaMwBAkB0mCDEFARJIZMa+uuubVXfMG111XxbD8FRVRUMyAoBIk5wlMjt09nSrn/+d7q27z5k1Vd3VPT8f7PhTd01X1wnm/e97vnnvO+R1yaNXcA/a9/PnlmtG2m4qFtArpuAL5gtKJfmXzRQVCISXSUQXr5+jwIw8ZNfu5HTkLTAcLDEIQbBWDV4/BSw681Qu2oqGiFgN2HKyKYSixJksQbKMkt8QwHZC5C66xq6NDD//lT+rYsqkkTdzcoOaGJoWDAW3cslr9iYxydAaMZbRm7RotWrRAgWCdOjo26ROf/qLmzJmzC85q/HdpyUI2k9H6tav01GOPavWKlYrH+k25JPLas9tnm6ZGDc0t5sG/27z52rxho+YsWKADDzlMCxYtNm2VSUKwlSOZTEbpZMLM4MlXYH8bVq/R1s0btWzZi1q3eo02b+lSXzSqSLBOB+29WPX1pb4HR51wko445gQdceQxitS90szKay2SMFevXKccqpEzmw1BSEW7lI2mFA4Wlc7klSumtWlrh/Y97Djtt99+429sdwbOApPMAjVWMQxniWG7KgavOfxVDDZZkaiBV/K5UhWD66Q4yYA1kU6XmfJf7v+9+nu6S81+UD+MBJVDhjmfU3fHeiXTWW3u6lMiVdDq1S/qrDPO0oqVK7X3AYfpllveO5EuZ5edC5UbJGRSBZClv0G5TTUPaaoaTP8BKiCLFA/SWRKdhXBF2WRLPOxPHuiUYUJEYvGY1q56WY/9/e96+KG/KhdLaM/d5ykVCGqfAw/RmWedo7332bdizgAaHQ/f/zv19GR14OFHS8Wk0Z4I5NPq6dyoWEenWhqalcplTHvojp4tOvaUi8z+3OYs4CxQuwVGWMVg8xA4UM1VDP4+CJWqGGwfhMHEmlwEofb76z5ZtkBPzzY98tD96PWY7oGZXNKswadoH5yJa9OmDm3ZskGbtnZq1aqNOvPM0zR/7hw9+Of79MOf3KOWadi730YCdgWIbD4Eypwb1qxRPp81lQ0IUc1fMF+tLS2mksHfu4LvpVMpPfnI37VozwMUrpfi0T5lknEFg3n1bl2rUKqgbT1blCvWKVQf0KYtPbroDddq7oKFu+JS3D6dBaasBUZQxWDJgRVt8uYd2PyDHSIINv/ALjdUknuGHBBL9L4q9UFwBGHKwnHXXlgmk9LGDWuViEeVTKW1ZdN6bdq4XitWvqRYf1ybNm7Rk88tUzaT1z986BZt69ykOXMW6j0f/PiuPbEpsncbKbCXU6kxVaVLfSXCgG+hgoHuj+XNSFC+svX39mrdipVqn7dQ9XVBxfo3Kx7tNS2Vk/19KmYz2rB2rTo3JXXwsftra9dmbdjUq6tvfIfmztuxPfMUMb27DGeBXWKBKlUM5B/QJMmrxVDLEkPFHARv/oElCFbumX9DDOyrFoJwiUtS3CVYmFY7pZohFus3yXkdnVv1+1/drWQ8qkQyrRNOPUObt6xT28xZOveCS9TePjVzD0Z8wykl9D242Zd90NdKDIZ7fJY/1rz4onKplFqbWxWuC6qvf6N6uzplxBaCAW3tXKe7fvqQbvnI+9Tds0rrN21RpGmWLrrsWpND4TZnAWeB2i3gWWL4eVmkCVJQiSBQ4ujtpGiXFobUYqhGEGzLZUsObAWDv4qB5QZGttVicFUMtd9f90lngSljgY2rVikVi6upvl6peFLFUE4KhBTr3aCtm9eru7tD9//5z9q0Zqa+9s0PqbNvk4qh2Tr6uNeY6gq3OQs4CwzPAkNUMRBFgBjwoprBW8XgJwjblTjaSMFAoNBzWn4tBlfFMLx75j7tLDAtLbB5zRrlMpSixpU2PSsaFKmvU0/3Vm1et0nrN63X1q0xHX3kSTr82P2kYKPa58x15GBaosVd9GhZYBhiTbZRElEDSxC8SYpDljnaKoZKOQiVIghWrIlcBFfFMFp33O3HWWASWoDZjMkfifWafiuUoNKOme6OJDkmY2nT96CxqVGRujrTMpp8Brc5CzgLjNwCgUDgu5LuLC8xINRklxi8Yk215CBwElW1GGqtYiAPgXggP70EwS4zuByEkd9r901ngUlvgVKuAy2VSx1WShURpEUEyi9/AHPSX7K7AGeBcbHAMKoYvG2W7VKDt0GSlxzsoOboXWqwack2UdHfSdFfxWArGSxBcFUM4wIVd1BnAWcBZwFngelkAV+Sok1QJIpgqxiskqNNUvQmKtq8g0E7KW5fp1TqqlhNrAlyYJMU+R1yYJMU3RLDdEKmu1ZnAWcBZwFngXG1wE5UMdhWy/4owkAkYSixpqGqGPwEwS0xjCtU3MGdBZwFnAWcBaaTBUYg1uSPIHgJwkD+gX8R0N8oiWUFG0WotYrBljleetpZS693Yk3TCabuWp0FnAWcBZwFxsMCw6higBzYDoo2gjCsKgYbNai0xEDEwHZTtGqOrophPBDhjuks4CzgLOAs4CzATH7HKgZyEMg98FYx+BslDWuJwa477EyZo1ticHB1FnAWcBZwFnAWGCMLVEhS9Jc52mZJNnpQbYnBcoCqZY522cFVMYzRzXWHcRZwFnAWcBZwFhipBWosc7Q9ECxJsIJNNVUxWGLgjSJUq2KggsH2P2B5gX4I/ioGV+Y40rvtvucs4CzgLOAs4CxQowV8BMFGD0Z9icHbYtFLDjhNvxbDUGqOrlFSjTfXfcxZwFnAWcBZwFlgpBYYxSqGqksM9ty8ZY+uimGkd8x9z1nAWcBZwFnAWWCMLDCCKgaWGGx546hWMVg9hsGqGNwSwxgBwx3GWcBZwFnAWWB6W6ACQah1icFPDqwhd2i1bDMXbRWD/entgcDvXoJgGyWRh+DEmqY3Rt3VOws4CzgLOAuMsQWGWGIYrMwRcsDmJQl2mcG84V1SsG94yxwhBN5mSZYc2BwEG0Ww5MC2WnYRhDEGiTucs4CzgLOAs8D0s0CFKgb0GKwWAwTBW+boF2yqSazJSxbs77VUMVSLIDiCMP1w6q7YWcBZwFnAWWCMLTBEFQNkAVLgFWyyJY7ePARb7jjkEoNfqIkv2CoG20XRVTGMMQjc4ZwFnAWcBZwFnAX8FhiBWBNRA9ssCWJgowh2FWGHRkn2mN4lBxtB4Ke3zNHfatnbB8FqMRBBuMFpMTgwOws4CzgLOAs4C+w6CwySg0D0wC4v2CgCUQNLDiq1WrbkgOd+0S/QZHsh+KMINhfBSj1buWfbKMmfpOiWGHYdHtyenQWcBZwFnAWcBQYsUKXM0eYfsLxQaYmhGkEw5ICdewmCPZi/ioF/+xslWYLgqhgcSJ0FnAWcBZwFnAXGyQJjXcXgVXO0JY52mQFiwN9s9YJtuUwEwS4vNElyEYRxAos7rLOAs4CzgLPA9LFAoVBQKBS6VdIdkmwFg7cPgneZwUo926UGfxUDhhtIWKy0xGA7KPLBamWOXj0GShvtEoPLQZg+uHRX6izgLOAs4CwwzhaooOboLXPkd5YXrNSzv8zRm6RoicEOSwyWKPhzECAIlihAHLx9EIgi+JcYnNzzOIPFHd5ZwFnAWcBZYPpYYARVDN4yx5qqGCxjGG4VgyUIVs3REYTpg0t3pc4CzgLOAs4C42yBGqsYbBSh1ioGc1X+JQZ7qZWqGLwRBFfFMM6gcId3FnAWcBZwFnAWMA/yQIAchJ+XOyhayWfv8oIlCHaJwVvBMCyxJm+rZX63L68Og5cgED3wt1p2cs8Ot84CzgLOAs4CzgJjYIFAIPBdSXd6CEKtYk2WKHg7Ke7QKGmwHASvFoMlCSwtkJhYrYrBEYQxAIU7hLOAs4CzgLPA9LbAEK2Wq2kx2G6K/hwEjMl72y0xeAlCtSoGW+JoKxhsFMFGD7yljq6T4vTGrLt6ZwFnAWcBZ4ExsECNVQyUN9pKBttJ0bu04C13HOADfjVHLgdGYUmCd4lhsCoGm6Ro1RxdBGEMgOEO4SzgLOAs4CwwvS1QpYrBLjF4xZosQbBVDJACf/6BNeZ2nRQH6h7LiYveJEW/FoMtdXRljtMbl+7qnQWcBZwFnAXG2QJDdFL0E4TBqhi2W17gH6NdxWAbJV16P2U6ZQAAIABJREFU2llLr3diTeOMHHd4ZwFnAWcBZ4Epb4FhVDGwvOBXchxWFYO31bJ/iaGSWJOrYpjy8HMX6CzgLOAs4CwwUS1QYxWDzUMY0RKDN//ARhf8ZY5W6tkr1uRVcnQ5CBMVQe68nAWcBZwFnAWmnAUqJCmSf1CpzNFPEGzkwK/HMGiZYy1aDEQS7MtLEGwnRSfWNOVg6C7IWcBZwFnAWWCiWcBX5kjOgVeLoVqZo40i+LUY7OXtIPdcqdRxqCoGlhcgCP4qBkcQJhqK3Pk4CzgLOAs4C0w5C9TQB4Euil7BphEtMdiwgr/NMgZlacHbSdEbQfCrORJFcGWOUw6G7oKcBZwFnAWcBSaaBXaiisG/xGDTDHZYYrDXXE2siZyDWrQYnNzzREOPOx9nAWcBZwFngSltgSGqGLw6DN4qBpt7sNNVDEQPIA+1VjG4JYYpDUd3cc4CzgLOAs4CE8UCFQhCLUmKXsEmrxaDjSRs1wfBXqsVa/L+tMsL3mWGSo2SWG4giuBaLU8U5LjzcBZwFnAWcBaYshYYQu7Zm3/A70QL6KhouyhiF28EwZID0zzR32oZFuHtg2AjB5AFm4fgzT+AJFTqg+AiCFMWju7CnAWcBZwFnAUmigVqSFKkksG2WfbKPbPcUK3EsWoVA9ftT1T0EwQr2GTJgb/U0XVSnCjocefhLOAs4CzgLDBlLVChzNHbB4GSR28FgyUIwypzrKTFYEscMayNHthGSa6KYcrCzV2Ys4CzgLOAs8BksUAVsSaIAZGDwcSaRq2KwUsQvNEDfx8EV8UwWVDlztNZwFnAWcBZYNJbwJeDkCh3UbQEwS4v2CjCYGJN/kTFURdrsq2WXQ7CpIeduwBnAWcBZwFngclggSpljt4uivxeSYvBVjJYcmDzELnsgSRFrw28SYr87s0/sFLPVouhUpKiq2KYDIhy5+gs4CzgLOAsMOktUGMVAxEESxBscmIlLYaBJkkYppYqBqvN4O2maIkBuQh2mcEuLzSVyxyd3POkh567AGcBZwFnAWeBiWyBQqGgUCh0q6Q7PMsL3j4I/ioGW+JYqYrBRA7Kr4oEwS/WxBf8rZa9eQh+NUcXQZjIaHLn5izgLOAs4CwwZSxQQc2R/ANyEYga2CoGGz2oVMXgF2wa0GUaKoIwlFgTEQTyDvxiTU6LYcrAz12Is4CzgLOAs8BEtcBOVDFU66RYUe7Zm5zg7YPA79WqGPwEwco9O4Kwi9EEKAgt8TMUCikQKHE9/sYrGAyal9ucBWq1gMNUrZZynxuOBfL5/A5+Cqzxd+enhmPJyp+tUMXgl3smajDqVQx2qcEmKdYi1uSqGHb+fte0h5dfflnvec979Oyzz+qjH/2o3vrWtxqS8Lvf/c78/qEPfUjveMc7DHlwm7NALRZYvXq13ve+9+nJJ5/Uhz/8YYMfMHXvvffq+uuvN+/dfPPNCodZYXSbs8DQFli3bp3BzWOPPaYPfvCDBj9g6v7779eb3/xm8+/3vve9ikSYa7ptpBYIBALf8+QgkH8ASfA2SfIKNpGc6I0e7LRYk11qqFWsyUUQRnqna/zeSy+9pGuuuUaPP/64Dj30UN15553ab7/99Itf/EKXXHKJ/vmf/1n/8A//YJy5nRkyML1RBSIN3siDfd9+ns/a9zmtavup8ZTdxya4BVasWKE3velNeuSRR3TQQQfpl7/8pQ444AD9+te/1oUXXqhPfepThozizHcFpsCaF28T3Fzu9GqwABMZiMBf//pX7bvvvvrVr35lsPXb3/5W5513nsETuHKYqsGYg3wkEAh8V9LPqyQpWj2GWsocjau3hxpODoJXi4EpBMmJ1aoYHEHYufs95Le9BKGhoUEf+chHzKyPgeclCBs2bNB3v/td9fT0GLJw9NFH64orrlBfX5++9rWvaf78+YY0LF++XAsWLNC5556r++67T2vWrNGrXvUq88BoaWlRLBbTd77zHTHg6+rqdOSRR5r98LvbpoYFvAShvr7ezPg+9rGPmQiClyBs3rzZYKG7u9tg6ogjjtCVV16paDSqr371q5o7d67BBRjld77LjHHVqlU68MADdd111xlMJRIJffvb39bKlSvN5w8//HCzH4epqYEnrsJLELivRAs++clP6oEHHtiOIHR0dOhb3/qW8VNEPQ877DBdffXVxu985Stf0Zw5c9TY2KgXX3xR7e3tuuiii8w+wA4ToxtuuEGtra1KpVL63//9X4FlSAeTJ/YDnqfqNkIthkqtli05GJQg1FLFYCMJ3hJHW83gqhjGAIlegrBkyRLjrH/+85+bAWMJAksQxxxzjAgdQwJyuZwZXF//+teNU2cQMmhx8vF43PyOQ2df/HvWrFn6t3/7N73xjW/UtddeqzvuuGMg72HGjBn63Oc+p7e97W1jcLXuEGNhAS9BOOGEE4TT/tnPfqaNGzcOEARIw7HHHmse9sz2WUeePXu2ceLHHXecDjnkkO0whZOeN2/eAKZmzpxpPgtJ4MX+7Ro1pOEzn/mM3vWud43F5bpjjIEFvAThpJNO0qZNm3T77bdr27ZtAwThH//xH4UP47MWU+DkS1/6kvgOExVwxAtSCYFgMsM+8FP4on/913/VW97yFkMUfvKTnwxgqrm5WZ/4xCfMcuxUjU5V0GIYjSqGqmJNvGFJgk1QtEsMtlGSjRy4KoYxGGSVDuElCL/5zW906aWX6sYbb9Tpp5+upUuXmiWGs88+20QAGGS33HKL/uu//suwdBg8s3+cOeG+//zP/zRrhEQhiDDwb8jGl7/8ZROVOOecc3TmmWcaskHUgUH+hje8Qa9//evN/mD3bpv8FvAShD/+8Y+6+OKLTXiYUPDrXvc6Ewq+4IILzNIWDp21Ze7/N7/5TeHkwRrOfP/999d//Md/mPwYcmEgo9/4xjd09913G0fO99jfGWecYSJRkFDIyOWXX26ICFEFSIXbJr8FvAThz3/+s84//3wz4QBbYIklBiY0YOrVr361iVoR8cQHvf/97zcP/YMPPlj77LOP+Rt+j78TGQBT5Fx9/vOfN7kM+ED8HxMfMMVE57LLLjNRUfYJqZiKW5UqBtsHYTAtBtsPgZ/bLS1U6oNgwwp+uWe+6Bdrsp0ULUHwRg+IILglhl2MRC9B6Ozs1Ac+8AGTh/DOd77TOGEIAqz5e9/7nnHUL7zwgp5++mn19/fr4x//uAnlMshw0v/v//0/kUzEDPCqq64yDv+hhx4yDwYG46JFi8z++ckghonfddddJiT84x//2JAMt01+C3gJArMzHu4//elP9e53v9s4YQgCOPjBD36wHaZYroJIEmWCdJ588slmlkjkgWgDTpqw76OPPqrXvva1Zn84fIgCTpvPWEyBSfDIT7dNfgt4CQLLB+DkRz/60QCmIAiQyx/+8IfbYaq3t9csR5BwDekkokW0acuWLcYHQTBuvfVWM7FhAkMkE+wxEYJcQmAtpiAYt912myGjU3GrUsVQTaxpMC2GqksM1m7enATbZtlbxWDVHL2tliEHXoJAJYOTe97FSPQSBJYOyBsg05x1YBw2BIEBg9PGGfMeyw/M7LwE4ayzzhogCEQIYPJEGiAIOHMeCIsXLzZEgUgE79swYFtbmxmchJjdNvkt4CUIYIo1XnADnnDYEAQiTGBgzz33NOFclq/+/d//fTuCcOqpp5owL/kvOHOiTUQaIAhEtSAIrBtDYI8//niz1OBdruAzLIW5bfJbwEsQwBTJimCK2T2YgiDw8CeqgJ+56aabtHbtWhMB8BKEE0880UQ1iV6CQaKkRAUgCPiwt7/97cbfgS38GPuxmGKplM9M5UhnFS2GSlUMJCry8rZZHlYVA6j0ljh6myXZ3AMr91xJi8G1Wh6Dce0lCHYNFxZN8hgbBAGywDoeMzVmgCTrwMKHSxAgChABBimsPZlMmkgDM78vfOELWrhw4RhcsTvErraAlyBYTJEP8D//8z/m0BCEbDZr7jkhXZagWIJgRkjFDL/jpGshCCSZQQSIWhHlYr9EtXD+//Iv/2IeFm6b/BbwEgSLKfwRywXMfCEI5EDZfCaIAUulRBSGSxCIVEEEwBBRLqq0IKcscYEpSO1U3coEoVqr5cGqGPzkwJpohxwE+4btruNtllRpicFbwUDUwL5ckuIYoHDZsmVmzZcyR5wrSYgkjsHGu7q6zIAjNMdgS6fTYrZPMg9LDSxDMPuDaZNbQEgX1o6zZnbI2h4RBNbuiCDwYCDcTNiYLOFMJqPddtvNEA1CgK4ufgxu+BgcAoLAQ54yR4spIgRgimUscleOOuooMwO0mCJznMxy1oohqGAKgsDSE0sM/BsnDckgggDRZJYHgSXnBXJhMUXUgHAz+HSYGoMbPgaHwCeBqb/97W8DmKJCisnG1q1bDUFgOQBMMfEAAxZTfM9GBPg8kxsqaIhKkbdgIwgQTSIILK1SdYM/I5kRDBPdZFmD/UzVXgvDEGuiYZKNINj8A1BQjSTUpMXgVXT0JinaKIJfi8FFEMZg4BGioz6dNTkSe2yGLrXrlCyyDsxAovIABw45IKeA7+y1114mtIsT53cSw8hNgHUzA4SFE8pj/ZkoAfti8FLDzL7IIoaVQyCmcvnQGNzGCXUI1ojvuecec++9mCLfBELKEhN4INQL0cSRgwGSZJmdgSlI5O67727K0ChR+/73v2+SzCAGOHeWHsDlKaecYkgGmGJftrSNJDaHqQkFi506GZYRwBRk0YspElaJgkI+IQjkTz3//PMGU2CF5ENwxPtghvwnkqKpWiDiRH8O/Bn+D8yRX0CCIqQATD333HNm0kQuC/5tKmOqQhUDCYqDiTXZEsdKao5VIwg2/4APeKMH3iWGWqoYiCC4HISdGlaj9+XRbGlq9wUZcR0aR+8eTbY9OUxNtjs28c/XYWrk92iIPgjeKoZKjZJqWmKAEPirGCwx4Mz9Sww2euCqGEZ+X903nQWcBZwFnAWcBXbKAiOoYvBWMniVHDmPAalnGynwnlylKobBxJpsoyR/FcPS085aekNvb9+IL/zkk5boc5/5iGbMaB3xPtwXnQWcBZwFnAWcBaa6Bcqtlu8syzx7xZpsguJwxJp2kHu2ZMEqOvqXGIgg8LdatRggCNc7gjDVYemuz1nAWcBZwFlgvC3gKXNMlEWavDkIw9VisJGEgSRF7/XZKgZ+Qhj8Us/+PASqF7yJiq6KYbzR4o7vLOAs4CzgLDAtLDBEFUNaklfu2dsHwXZQ9CYrbmezwcSa+CBkwFvFAFnwNkmqJtbkIgjTApruIp0FnAWcBZwFxtMCIxBrsiWOkAV+3y7vwPtvf+WCXWLwRhG8OQiQA9tNcbA+CK6KYTwR447tLOAs4CzgLDAtLDBEmaO3m6K/iqFSmaPlANs1ShpuFYPTYpgW0HMX6SzgLOAs4CwwkS1QRaypmhaDbbM8bLlnyxysLWyZYy1VDFQzkHvAi5wEV8UwkRHlzs1ZwFnAWcBZYEpYoEKZIwmKliD4cxAGE2vyLzVsl6Q4WKMklhUgDDZBsZpYE+TAdVKcErBzF+Es4CzgLOAsMBksMAyxJhIWIQk2DwFSUJNYk7WDV+65UoKit4qB6gWiB06LYTKgyJ2js4CzgLOAs8CUs4CnD4Jts8xPogfePgg2B8EmJ0IS7MtGD2zDRGOjkVYxkKAIOahWxXCJa5Q0dhikh/4f/vAHnXbaaab/vdVIf/LJJ03vcnqR24330WNAX8GvwojIE+JPvNfURCBIRhGN1spW62HsrsodaTwtgMQz/fDRTEBMCQEneuQ/88wzRv4ZrQW7gTH67aPFQP987wY2+S77cZgazzs6/sdGXRbdjte85jVGMwEBJ5Ri0WDYtm2b0VqwG2JLfBbdDvRivBv4QzYaUbDm5uZp76dGUMVgIwheouA18cBSQyWCYKWe+QJLC/anLXH090GAKJB74O2m6HIQxnA8btiwwSg7Irn797//3UilonSGihlKZ/xEjAmFPCRXUdFDShURHUSfUDmDAKxcuVKf+MQnjET0vHnz1NjYaNQcDz/8cKOwx6BtaGhwSntjeG/H61AIK1177bVGBe/ZZ581eEJKHGVPHDyqeThqq7oIplBzRDQHZ8/fEctZv369wdBXv/pVzZ8/35AE8Lj//vvrlltuMZhCSGeqKu2N1/2biMft6OgwmEJhFhno//7v/zaYQooZiWawZTEFdlD2RNERgTAvplCBfMc73qGvf/3rZpIDSQCPCDqBtemGKV+SIrkHvGiYRPTAVjHY6IFdYvAmKXrbLXtzEYt+gmBxtTNiTUw9XQRhDEcoMzwG06xZs8xsDYWzq6++WmirI3167733imgCgwzJXgjE+9//fv3+9783ynxIovLgx8lfccUVxskj/Yt8KrK8DECUH7/4xS/qyiuvNIPZbVPbAigtQhbr6upMVAlMgY1vfetbRvXz/vvvN2SUCAGYuu2224zk7l/+8hejAoq8OA9+3nvd615nMAMBBUNf+MIXDCFAaZTfL7vsMiM17rapbQEw9dnPfla5XM6oLaIaeumllxo8QRQefPBBIzMPSQA3SIFfd911JiLK70hBg8fPf/7zJpoFppCTZkIDyWBDeRSpe+SgUYKcDluVKgbbSdEr1mTlni05sMsL/JvNu7xQscxxuFoMVqzJW8VANMERhDFG5q233iqkngnbvfWtbzWDjagBTpjBtPfee+uJJ54wEQUkWJnFXX755frMZz4j9Nn5HrO8d73rXYYY8B6Mnu8cddRRZnZIWO9Vr3qVmQm6bepb4P/+7//Mwx4sMdv/05/+ZGZnv/jFL4y0LqHfp59+2vzO32+++WZDTMEUzv/Pf/6z/uu//kvXX3+9IQZEuSChyDsj18s+2fdBBx20w3LX1Lfu9LxCpJmZtDzwwANG/pnlzkwmY34SmWKJiiUHljkhEkQbrrnmGkMsWAIFg9/+9rfNRAVicNNNN+l973ufiUgsXrzY7JN9gy/+PR22KmJN1QjCLq1isE2SqlUx2DJH1yhpjJEJy37jG99o1ouZ5eGoGUQQgTe84Q16z3veYyIMrP194xvf0Ec/+lGz/gexIAwM8/7KV76iT3/602YAsp7MYGOwMru74YYbzPIEoT+XjzDGN3ecDkfUCedM5AmnDmnkxeyOGRrLD8zqwMU3v/lNg7ELLrjAYKqzs9OQ0//8z/80S18sUUAkIKA480MOOcSQToepcbq543RYCCXLDBDIO++80+QdgCUiAOeff77BB8ub4AI/9pa3vMVEoL73ve+ZCQ8Eg79DRvnbueeea0jExo0bzSSIv09HTA2jisG2WvYmKNZUxWCbJXmrGGw+gi1zrFWsyUUQxngAkijGQGEdjp8f+tCHzAOeJB9CxQxMBhizNiIBOHcGGLM8Qnq77babGXjM+GDrV111ldkPITyWIn7yk5/o4x//uCEKkAe3TX0LgCmWDVguIAcFPIGbk046yWCK6JLF1MMPP2xmcyxF3XfffebvfO/73/++IZ6EfQkXQ2LJb7j77rvN8hZLYzwwmD26bepbwEaaWLYkD4qlTogi5BFMsWxFIjU4s5MeiASRA5IcmeRAVln6ZKmBaCmkFRLL55jo4PuYIJG0PV22chXDzyXZHgijKtY0IO9YrmyolINgRZssSWBZwb5cmeMEQCLJO6zRtbS0mHAcD33WehlYq1evNoOLpB4SE/kdMrB27VqTb8Df/+M//sOQBWaFrDnPnDnTVDHg0Pfdd18zCPkb+Qpumx4WILGMhMPW1lZz/3nogzEwxdLUjBkzDCkFU2CDxDP+TpSAmSDRKpa0wBT45PNgCnzts88+Zp/8jYRYt00PCxBdCoVC5r7jp8iBIl8FYoCfspgivwXcMXFhogKuwBEYA2/4N/CJv2Ozfop9TidMDZKDYMscbbOkWlotY8qBXISRVjF4SYJXydE1SppEY/zRRx/V8uXLzZIBM7g999xzEp29O9WJaAEvpk488UQT9nWbs8DOWICowrJly4yfInrJZMVtr1igghaDt4oBcsBruFUM2yUpcjRvFMEuLdg2y7btsr/EkQiCbZZk8w9cJ0WHXmcBZwFnAWcBZ4ExsEANfRBss6RKVQy2J8J2kQMbRfBGEGxYwZuD4O+D4E9StFUM3h4IrophDEDhDuEs4CzgLOAs4CxQpYqhmljTYFUMliTssMRgrVytzJHIAVEEV8Xg8Ogs4CzgLOAs4CwwgSxQYxUDkQQ/QahZi6FaFYNdXuBnrVUMdFK8vre3b8QmPPmkJfrcZz6iGTNaR7wP90VnAWcBZwFnAWeBqW6BMkG4YwRVDP4SR2uqHXIQ7BsQATbvT1vB4I0gWB0GEhO9iYosMbhWy1Mdke76nAWcBZwFnAXG3QK+JQYr1mRbLvvlnm0fBG/uQTWSUFGsya/F4FV09CYpWoJg1RxtkqIhCKefvfT6nh4XQRh39LgTcBZwFnAWcBaYshYYpIqBpESbi+CtYrBSz/zNq8OAjWz+QdUqBn/0wL/EYKMItgcC0QOvYJOrYpiyUHQX5izgLOAs4CwwkSzgIQjeRklWrMkr+ezvg1BJ7rniEoPNP+BNf5MkbwTBkgOiB/Zllxi8EQTXSXEiIcidi7OAs4CzgLPAlLRAlSoGiIFdZiCSQIKid3mB3+3SAkTBRg8GpJ4tGbA/ecPmHdi/2eUGlhZsu2V+9y8v8G8IgiUJLgdhjKFItzrUG9FdoOERLW7pd4/oiXejGxnCKLQipYMZQim0XD7iiCO0ZMmSMT5rd7iJbAG6atJdE8U9hJkQb0Km2d/CFrlxBJzQ/qC7HXofKIYiwkSzJLc5C1gLgCk6uF500UWm4RFtk/FXZ5555nZGoisiQmFgau7cuQZTfJbum36f5qwrmkh9V9IvJMXLxIBcBBs9gCDYXIQRVTHY8kZra2+Coi1v5DO2isFGD2yTJLfEMM4oRfwEoRw00pFrpkc5Ko5I9NLznta4iJ7Q5hRFPYSaIAgMVER26HiHktoxxxxjPsuARC6VHuj03qcFKs7fdTEb5xs9hoenHTL4QN0TTQ/0GOi4iSrjz372M4OTCy+80OguoKgHpmjhjfgOug20WoZY8N1kMmmExMAS8uMIgK1bt860boZ0uG16WIB220uXLjWicHRFRHMBfKD7AiEAS4g2IQ0N3iymIKkIzNFCGR+Ewiw+Cm0HCAN+iv1AVvFrqDlOpy0QCHxPElUMLC1ABrwEgeiBt5uiX+6ZCMJ2kQMbUfASA38PBLvs4K1gsEmKNopg8w/8VQxOzXGM0WkJAj3t6Yn/zDPPGNldnPDjjz9uHDdtlZF0RqGPQfjb3/7WDEy02V966SUde+yxRpvh0EMPNcInyEcjoPLlL3/ZiOowEBnQbpseFrAEgb754OfZZ581gl30v3/ooYc0Z84cgxuiDESucOYIeyHKRO98BMIgmWh9EKECT4g04ehR7/unf/on8z7kwm3TwwKWIKC4CDnE96D2SWQB4Tg0YZADR28BIoE8/R/+8Acj6EVU4ZFHHjF+iM9ACMDUPffcY1Rr8Xe88GMINk2nrRxBuLNMDKxgkzdB0avHwPKCzT+oqQ9CJbEm7GsbJNmWy94cBJIU7VKDjSCwxECSIjkIrg/CGCLUEgQe+MzIvvjFL5plBAYakqmEehk4//7v/27CwYT5EEF56qmnhLIa0QZeOHf2cf311xtysHLlShOVaGpqMlLPCPe4bXpYwBIEIgYHHnigUWUkOvCd73zH4IOlBpalwBRqn0g7s7SFsiNhYaINF198sSGkOHikfCEYPBT4DiI7DlPTA0v2Ki1BILL5qle9yviW8847zyxzghF8EKSR5dLbbrvNkE+rEEo06uijjzbLDrxQBkUNEqKJXgP4I8Iw3TA1SKtlu7QAUbBtlvnprWKwRMELxIFogj+CYPMQ7N+9FQyQA2+ZI7/7dRj4tyEIp5+99AZX5jh2g7/aEgMzOgYNDh7S8L//+7/61Kc+ZSIBhPQWL15sVNQYVGeddZZx8AzKD3zgA2Z2yHLEO97xDsPuCRkffPDBY3dR7kjjaoFqSwxgAUVPIk1f+tKX9N3vftdEBQgJQz4hBzgt8luIVIE5CMHHPvYxE4XAqbOsxX74LA8Kt00PC1RbYvjb3/5mJh8sHRCxvPXWW01kAblxok4sG4A5liBe//rXmwkO5AJp+ieffNL4M3zWAw88YJZCweZ02nydFP1iTSwxQAzsy7/E4C115PeBooVKao5eLQYvQeB3v1iTV4vBVTGMIyIZOAwq8gwI05F3QCSBQcfsDmdNBIE1YJLN7PodTPzFF180UqqsKR922GFm1sfyA8sKJAYRyuMhwNrfqaeeOo5X6Q49lhYADxBGZngQSZadyFXBUd9+++1mnRhsEEn4wQ9+YDAWj8fNcgORJySf2QcEgMjDH//4R+PEwRQ5CGCK/Z1++uljeVnuWONoAfCA/2HpgJynu+66y2CLaNKPfvQjk6cCppis4M/AFN/BT+GjUHVkQkMCLEsQ9913nyEHRBnIaQBTe+yxh/n+dNmGocVgqxhsBYO3zBFz2chBRbnnwaoYbPTAkoTBqhicWNM4IBOQ5HI5o7NONIDf+YlEKo6c99Fc59+8VyiUKlvq6urEeiDv8zMSiZhEH0gCiT6E+fgbhIL9sX+3TQ8LVMIU+AEHOG4wNBSmwBoY27hxo3HoPBQgrA5T0wND/qscCaas77J+ymKKqOnll1+u9vZ2Q17B2XT1U54cBJIUiSDYJEWbnLjTVQzV5J4tKeB9fydFV8UwBcc5GeeEgiEIJKe5zVlgZy0Apsg9IKrlMLWz1nTfxwJEG8AUkU2WIKbzVq5ioFGSnyDY5YVqSYo2H8FbxWCXGIqVchBsYyTs7W+SVKmKwdtq2SYruiqG6YxWd+3OAs4CzgLOAmNmAV8EATIwWCdFbxWDt5phYGnBtlweTg6CLXe0vRBsq2UE+hUJAAAgAElEQVR+WmJAV0XXannMYOEO5CzgLOAs4CwwnS0wSBWD7X/gjR6QqGiFmqwWA/9mq4kg+MWa+KLNQbA/LUnwVjHYXghOzXE6o9Vdu7OAs4CzgLPAmFqgHEFgicE2SfJGELxNkixBsJUMlhR4FR0H0g38EQTLIixJsP0PbDVDtSoGogi2isH2Qbiht9epOY4pStzBnAWcBZwFnAWmlQU8VQxesSaSFIkg2B4INhfBVjDYKIJX9nnQCIJ901/m6G2SZBslQRRsoySWFSxBsHoMTqxpWkHUXayzgLOAs4CzwHhYoEqZo7eKwYo12eiBt8yxUidFLsMkKlZqtWzftAmKVovB/vTnINh2yxAFG0VwSYrjgRR3TGcBZwFnAWeBaWWBCnLPttUySws2/8AbQfAmKdoIQk1aDLaLkl/y2S4xWHJgIwg2URFyYF8uSXFawdNdrLOAs4CzgLPAeFlgiCUGq+ho5Z69OQj+EseqSwz22ioJNtnIga1i8Ms9eyMINorgIgjjhZYaj0tDEbos0vjGbc4Co2EBh6nRsKLbh9cCDlND42GIJQaIgX0ROaiUpOhXc6zYSZEz8WsxQAq8vRD8jZJcBGHo+7fLPoECGn3taULDhhgOrZQH2xhwdB3jRcvcG264YTt9dZqP0Av9lltuMRoObpteFgBTKOHRzpaNXvinnHLKkJiiZe4dd9xhutkh5ORtyQ2m6JuPBDkKfm6bXhagDTyaLr29vebCb7rpJp1xxhmDGoFuib/+9a9N1026t4Ipb0tuusOi74G4HKqi03nzlTmSlOjXYqhU5uitYvBqMVhTGpJQKQfBSxKGqmKwPRC8VQzkIbgIwhggFjEdRJgYSDheogFIn6LGeO+995oBhUoanevoj48iI9K7PPwhE0g7o6P+ta99zYifsA8GIn3P6bVPy2W+jxofx2GwLlq0yHRYpO3pdNNcH4NbOu6HQEznkEMOMQSSFrZgCrGct73tbabvPQqN9NKnd/5VV11llEBXr16tm2++2Th+pKB/9atf6Rvf+IZREuVz/B2lPlQgt23bZn7yXXQ/0GWgF/9+++1nWjeDM7dNLQuAiSOPPNLoJSCk5MXU/fffb9Qb0WFgwoJCI5hZv369EYl785vfbASaEJZDfRbhL0goeMTPQRISiYT5O22X0XFAPwQ9Bjosgil0G6byVkMfBBtBsIqOXrGmEVcx+EsdvY2SyEWwL5YVvD0QnBbDGKHREgT00WfOnGlY+rnnnmtU855++mnzEH/88cfV2tpqBhsPfv791a9+1bxQ0uvq6jLfgzzwcGBg8Rk0GC688EITkYB0IP7EvlFYYwAz6JHuddvUsoAlCAjfgKkPfvCD5r5/+tOfNqp5YAppXVrbEn1CCpq23P/8z/9s5KARCgNTSIWj2cDvCxYsMIJgEAb0GMAUKqMoP0JiiVhAYtFrQGnUbVPLApYgoNQIpt73vvcZUbnPfOYzeuyxx8xD/NFHHzXkAYl6cIUoEzLO+Cn0Ozo7O41yIxogRLmYzDDB4X2IAT6QyQ6RLKTtEQUjsoDA0+c+97mpZVDf1QxDrKlSFUOlToo7LDHYQ/pzECxJYGnBVTFMMJhZgsAsjNkeM3pCub/73e+MJOrDDz9sQsV77rmnCekx+J5//nlDID7/+c8blTTIAMqNkATknZHgZVDB1okcwMz5ifNHb/2HP/yhEXsixMfAddvUsoAlCMzCwBTaCch//+Y3vzGE8amnnlJPT4/22WcfE02AIBCVgjji8MHFI488ImaGqOytW7fOfJeHBJEqIgko7vEQAFNIkINfnBxLZRBUt00tC1iCgE+BBBAtImLJxOO1r32t8TvgDqwtWbLELBvggyASn/zkJ40x/vKXvwhJaKIGRKF+9rOfGd+GHwODRLVYDkN+HDJLtJON6AL+bypvVaoYbJmjN3rA70QMhipz3KFRkl1uqFbFYHMRXBXDBEIagwpSgLMm4ZClA2ZnSJ3i1AnlwaQZeMzojjnmGEMKcMzM4BhgH/3oRw0jx2nD5BmU3/72t03Ij/dg9oSccf7M9JD1ZfARAuRvbptaFsCZI88M+QNTLEWBJ2ZokE/UG8EI4VtmeDh0JJ55+OPwCQcjE07eAeSSnBc+D7Hk38wCIa4c41//9V9NZAusEaFCHppIhNumlgUsQSBiiYonywPnn3++WVrAF5HrhO8CU/gcIgCQRZYPiAiQu8AEBv/0P//zPwZb733ve82yw7/9278Zkgl5OPjggw0OWZbgPb7LhIj3p/I2jCUGf5LiTlcxYFe7tOCtYrBljraCwS4x2CqGpaedtdR1UhwHVBK2ZRDxwCe0i4O2srze08GpM1hZz2NjQJIMZP/N3/geM0IeCoSL3TY9LUBOAY6YfBRyUIaDKXADfuzmMDU9MeS/aqJKEERm/uSgVMMUEQD8ksUQfsphakcMecSaiBzYPggkK9o2yzaSQASBpQa7tOBdYuD37bbBxJosObA9ECrlILgqhgk23hl48+fPF+t9bnMWGA0LgClmfySAuc1ZYDQswLImS1jHHnvsaOxuWu+jhgjCYFUM3hLHQfsg+CsavJ0Uvb0QXB+EaQ1Hd/HOAs4CzgLOAhPJAoFA4FZJd5RLHG0Uwao5DrcPApe2XZmj6btcvmBvF0V/u2WrxeCqGCYSOty5OAs4CzgLOAtMSwtU6aRolxcGE2uyCo41NUryJihiaEsObC8EW8lQKYLgFWsiD8HlIExLqLqLdhZwFnAWcBYYSwtMJLEm20nRq8Xgb7XstBjGEh3uWM4CzgLOAs4C09YCNYo12WRFvxZDpT4I1pbbqTnaqIH96V1q8FYy2AgCywzVqhhcJ8VpC1d34c4CzgLOAs4CY2mBQaoYrIqjlyB41Rz9BMGbqDjQanmgMUJ5acH+2xIDu8zAvy1BgBxAEmy7ZSv17CIIY4kMdyxnAWcBZwFngWlrAUqHQ6GQTVK0JY78tEmK/ioG2//ASxS89huQfq5U5mi7J/IFCIH9acmBV7AJkgBB8Mo9QxRcDsK0hau7cGcBZwFnAWeBsbRAOYLw8ypVDN7oQSU1R69Yk81F5PQHlhgqRRD8ZY4QBy85gBgQQYAceMWaiCBcMp0aJcHg6CxIC1rWgyb6Rucy9BQ2bdo00U91u/OjsRNtU9GWmOobmEIsq7u7e1JginvCa7Jhim6Re+2117TAFL4JTNGqeDL4KXwUvmqyYYrGTmBqrNRwd6KKwdssaSBq4Klo3G6JYagqBm8nRbu04CcIRA+mnVgTrUQRpWls5NIn/sa54iQmm3IeQi08OGmpOtU37hG4miyYAk+c82TDFB380Bah9fNU37hHtGefLJiCHCPSNNkwZbVqDj300DGB1HhVMdilBtskyRtBcFUMnltP9ABQoHDHhtOBRY5me2JU9AAC+gq0P0YalYclMyA23uc9e0z7ed73v4cKGiI69Ndn48FrP0+rZbvP0UI358vsn584J+zDMThfrolj22Paf2M/3uezfJeNtqtEadCGmOobyobYC9U6NvDFvR1NTIEfXiPFFOfFfWIDT+BqrDBFP36w6sWUHXPDwRT74SGE9PRU3zZv3mzGEB0MLaa49/Yejsb1gyfGMzjFtoz3wfyUxSDjn9+5d/Z8iHYgJT7ZMAUmEdI74ogjRsOkQ+6jxioGm6xolxhs9MDKPXsjCPaY21Ux2GZJtnrBX8UAQahFrIlp9LSqYvATBERrEEiibziOHfUyPsONRM0M58/fli9fboSWECNhtsh3cFYMLB6CK1euNESAzyB/isIZG8I2CJ7wPR4gdjAibwo40Vng2Kjs4fgQ0IEEnHPOOeazfoKAbgODms8xO0fUiWPD3NkfjoXzQfhk3rx5JuTHsQgpI7CDsA/75RphzcxS2BfXg4Ogjz+DHBEo+q//8pe/NIMHZ8W1Pffcc0aohePQcx11N/Z/+OGHG2EoNOKRA57OBAGFTpQO7YwX/OBAuW+0QeZ3bGgxhf25D3yOmRi2s5jCxnyWeweuIGAIJiGYQxQAjFpyBunlmGAKXIIp9sP+EPtCChqH7icIiHqBQT6DoBiiThwPTLA/MARWwBT3GofKgws5YLBHf37OC6xyPMYFeGdfYAqZXxRKwRRiPKj70V6c8+IYTzzxhPksmGIMgSn2f/TRR5v+/ygAcm3TmSAgj8x45sHMPQEr2AtfQbt2xjPjk3u+9957m3vJ+9gXos6/8S/cL+4VmOJ+If/NPUKgC7lwvsNx8H+8mpubzU+E4/AvfB+/w3HBKkJOEAY/QUD1E2E57jHHQpiO73LejAP8KueDPwHD+FTuMS8+hxQ52MePEjEiosLxwAly91/+8pd19tlnGx2bL3zhC8b30F6c4+ELEa7jPMEu1wem2Pdxxx2nW2+91SiV4o/HiSB8V9KdzKM8eQjVOil6kxNtsyQ/QdiukyLPHT9B4G/e6EGlJQarxUCy4rStYvATBASTDjroIOO4Tj31VDN4GAw4eBywfejiDBFU4n0cJM6KQYLDB3R33nmn+SySpwxIJE/RT7dOlkHEoODhyQDB+d17771mn4CaY/Lw5vwYBJdddllFgoDK3tKlS42TuPvuu83DnX0ywHAQbDhzBjw5ADwQGFiorjHwcCAMOD6PNjuy0DiE008/3ZzTr3/964EHEXZBec2eI86CtUacDd/hGlm/swItzCDe8573mIE3nQkCgknYBSd25plnmgc49kA8CaeJ/XiIsu4Jfngogike7DwAeDhyv1C54z5//OMfN/f5wQcfNJLfOFw+x8b32A9OHCJ33333mQc2n+ehzzHBHQ+NK664oiJBwGHi6LmPd9xxhzlXCKWV9bX7xhmDMa4Hhw2RBE8QHZw9Dxdw+41vfMNghvfp3w8J5zMQUwjEAw88YLAO5jkO18/Y4brBFNfHMXgQ8D3UAHmITGeCgB4CRACyxeTBCmnZscn9wO+ABcYf4xRsgAPsjv867bTTjFw3/ufDH/6wsSeS8RA08MHnwBt+j+9z37mvfAZ/iB/B5/Hw5l6DsyuvvLIiQcD/QAq5hz/+8Y/N9/idc8KvcA5Mbr75zW+aBzrXw5jAD3HPwRWTDojHpZdeaiSnwfLxxx9vlCXBFJ9h4xzBPWOO68UG+Gn2yXUzbuwxeA9S8v73v9+Q3XEiCINVMQzWatlGErjsqloM3iTFWqoYbCTBVjFADqyi47SrYqhGEHhQom2O7Ogpp5xiHrI8LGGlyJcCKBzuQw89ZBzfU089ZX7ixHGCzMp4IPPQJZzKQHz66af17ne/2zwoeA+SAKt98cUXDZiZpQF4HCbHw/kysBgQDB42fwTBEgQG9+23324G6oUXXqhnnnnGOFHOHdbNvxksDDIeSjgQHDARDSR+meVyDlwj5wwpYRAxOLEF0r7I+XL9OGvOm30wM+T6mNVBBi644AIz4G+77Tbj9LEh1+kIwl7GjkSPsDn3hXuBmBL3+tOf/rSJAkAKmO3w/iOPPGKcKjNsMLVq1SqDCfDAbIr7jTNHkplZE/cPW0P4wBT2x2nyIPjjH/9ojseM7fvf/75e//rXGyLLvfRHECxBAG9EE3gQMDsjYsDDBuKMo/773/9uHD04geTwQMIBQ44/9rGPGVlyHhoQ16uvvtqcO+cGzolMvfWtbzXnDbY5D3DDPsAVDw8eNmDqoosuMngkUsLD6MYbbzTX6QjCfIMpbAQW8D9EYhjLTESY5Lzzne8094bJCZiCcEEoIH7cf2bS2BY8MLPm7+AOeXgk4a0cPfeNiBUEhPsHHvAVkFDuG5hh7ENkuZf+CIIlCJA/fBbnBI7YJxMafsd3/fWvfzXEFP+Iz8BnMRGBZOOn/vCHPxhiBKbwOXyO8YNfxK/edNNN+tKXvjTgp8CmjchBPiGsEEyuFxtBVpjcgEUwNdYEwczut9dioL0ykQRvmaOVeq61iqFiBMGyCEsSbP8Dq+joqhgqrAj5CQKhOwYFzujiiy827Bl2CriYUeNgcbr87bzzzjODiaUIQMvGgMPRQwhgp4TpGDB8Hqd35JFHGofPdxnAPMR52MJ60VBn4OAwGegwZJwsTP766683APYTBB7EEAoGGVrqPBhgzzwUcKA4hne9612GwDAgvvOd75gHCTMAzp3PMFtkwPE5fvKQ4sFuQ+H333+/GVA4jJtvvtmcE4QDIsHgg4Awk+XhwOeYfTCgeYgRSsSBTGeCgP24lzgjbEaYkwc29iF8z73gvmIznPeTTz5pHBXRBO75Cy+8YJwa4XVwCKbABA8CZkY4enAAMfzKV75i7gN4wu7MtJiZg11eHIvZJ98HL5A7P0HgYQOGOBafAe9Et3gAMdMDNxBdCALYJZIAEWCmT4QJ4sxDnWjc29/+dkOCOAfCuDhsHgRgiMjXpz71KTNe2D/XTVQDQoKNIErMXCFEYBb78ICBRBN5mM4EgQc9vgNMsYwHfvADbNwn/BE2ZEnwrLPOMhhiXDMpwA+xlPCBD3zAEEAewEx4wBK4ZGPc8tDHB379618f8F34hG9961tm3OPL8FXcG/wbmLrmmmsM0fATBHwe++ZYYAqfwb8hFHwPYgDGwQ9EFkzx4AZfXBfjgXOBXL/lLW8xRIGJDsezEVAIC5j67Gc/a/DJ98AoRNMmo7N/zg+cQS74DphiDDFmxpogVKlisH0QBtNisP0QrMzzoBEEv1iTX4vBK/dskxRtFYM3ejDtqhj8BKFSVoktK+JBbzfCVQDb+55NGrMJfGV2WDVRxa7r2VAejpkZGoOCh+xAtkk5wbFSBKHSznHisHDv/u3nvO/Z8/N/zl5btRP3fp79EXJkJsngt0lJhq2Wy0ZtSH26JimOJ6Z4gPBQ4MHMA7wSpvwEYbwxBf5w7jZRjtml97wtbqczQaiGqfIDZ5f5KSZDFlOQBSYdlTDlJwjDxVQl/7ozfor9QaogSRACli4qYWocCYI3B6GaWBM5B0QTvMmJ3jwE43btdfklnr1/9ys52nwEu7zgzT/wEgT6IkyrJEVC5LBpZu7jvTHzYhDAcL1kZLzPa6jjQw5w1sw4BztvZhrTocyRmQ0RFoepoZBT/X2LKSIIg1V/EBGZDpUxzNjBFJGY8d4Y60wMiERMJj9FPgXnzkRmMEwRDRuryphhVjFADixBgAgMu4oB7HhLHO3yQq1VDNOy1fJkaDwy3k5hNI4/mZzJzl6vw9TOWrC27ztM1WYn96naLTCWmPIQhDsk2VbLNoJAF0WbpEj+gSUHlhjUXMVgom5lE3hLHW3/AxtBcGJNtePEfdJZwFnAWcBZwFlgl1qgRrEmSxB2SqzJX8Vglxq8WgwsM9huin4thmkZQdild9/t3FnAWcBZwFnAWaCCBXwRBCIHRBEGE2siamBffh0Ge4SqVQw2klCLFoNVcvRqMUy7RkkOtc4CzgLOAs4CzgLjYYEqSwxeglCtD8JOVTH4Sx29VQw2guCqGMYDETt5zGKhoFwmbRaUQpE6BYNWtHMndzzCrwPwXDajQDBYbrnszZ0d4U7d18bUAgZTWZY7Jw6m8tmMFAgqHGFV1GFqTAExCgcrFvFTGZN0Ha6bGH5qImLKU+Y43CoGm38AURhUrMneTpt7YKMIliRYcsDPWqoYnNzzKAyQXbELBl3n6mV67v57FEvktOigQ7THQYepbcEihUIlXYex2gB2JhlX57qVWvXsk1p08OHa55CjJ1VW81jZaiIfh/vYuXaZnr/vN+qPp7X4wEO0x8GHqW3+YoXKWiFjdf4GU6m4utat0svPPqFFBx6qfQ4tNeZy2+SxAPexa90KPX/fPeqNJrW47KfaF4CpkjbLWG2cSzaVUOf6l42fWrD/wdr3sGMnDKaqEAQiCN4ERavFMFSZY0W5Z0sIvIqO/jJH/l2LFoPLQRgr5I7gOPlcRs//4ed64tc/VyxTlMIRNe82V3sceKj2O+oYzd9rf9U3Nhk6uaucKiy8v2uLtqxers1rXtaWtatUVEjnXPdOzVmweARX5b4ynhbI57J64U+/0BO/+pmi6YLBVNNuc7THASVMLdgbTDXvWkzlsoqCqVXLtHnty9q8ZrUKCuicN71dcxfvOZ7mcccegQXy+Zxeuu9uPXbX7Yqm8iVMtc/RHgceov2OPEbz9zlADWOFKY+fyheks655m+bv8UqPmRFc3qh+xVfmaLUYaq1isK2Wh9RisCTB/rSU2xs98CYq2vwDeiDYPgj0QHA5CKN6+0d3ZzhzCMJT99yheDSpdL6oZKGobC6rukiDFuy7v5ZccLEOOOY1hiCMJkkoFPLq2bhayx++Xy8vW6aurm0q5vNqaW7Sia+/Uq9acrICAYJWbptMFsjncnrx3l/oyV/9VLH+xA6Ymr/Pflpy/kU64NiTTe34aGOqd/MaLX/oPq18CUx1q5jPqaWpScdfdLkOOeG0UVXAnEz3ZTKfawGCcP+v9PhdPyphKveKn4qE6wWmjjvvIh103MkKlpVfR+t68VN9W9Zq+UP3a+VLL6kTP5XLqbmpSUsuXKrDTjzDHHMibYNUMRBFoGqBn0NVMdiOigOX5i1r5I/VIgi2xNESBNskyVYyTGuxpokElKHOBfC//OBv9PjtP1SChimFgtLZguKFgqKZnLLFgELNzTry1NN1+iVv0Ky5C3YqR6G0jBBT98aXteaZx7XimafV2dEtZgj1oaBaGiImJH3iFTeotW23oU7fvT8BLQCmVv3193r89u8r3tdvMJXJFhTzYqqpWUeccppOv/QNmj134U5jKgumNq0qYerpp9Thw9TC/Q/SSW+4UTPa505Ai7lTGsoC5LSsfvhPeuxH31Wst6+EqVxB8XxB/cZPSaGmFh3+mlN0xmVXava8RTuPqVRc3RtXac2zFlPbBPkt+amwFux7oE56w02aOWfeUKc/pu+PMEkRMuAtd/Se80A0wd9J0RIEO42DEPjLHG0eAuTAijURObAvF0EYU3gM72Aw89V/+Y2e+en/KRWNKlQoKBIMKp3JqSOeVmcqq4SCCqD5cOKJOuPSN2jB3gcoMIJERpYSEr1btGXFs3rh0Ye1auUapRIpRYpFRUIBhcMhNTTW64DjT9Xxr79akXog5LbJZoFCPq+1f/udnvrpD5Ts61fYg6nOeFodqZwSCijQ1Kgjjj/BOPQF+xw4IofOElmid6u2ljH18gowlVSkWFAkRJJrSA0N9drvuJN0wtJrVdfgMDXZ8MT5QjrXPfxHPXX795To7TN+qq7sp7bDVGOjDluyRGdedqUW7nvwiGb2YCoJplY+Z/zUyytWKxkvYSocCipiMFWnfV59gk66/DrVNfCIm1ibT6xpZ8ocLQfYrszRSj1z1TZR0d9N0WkxTAhMeCUzhn9CPLRX3PdLPX/nj5VJJBTKFdSggIJEElI5behPaEOuoHwkrIb2dh1/+qk648rr1TyzbYeDVQoVm17nsP1UTPGuDerZsEzLn3xGzz+3XMloQqGAFDSvgCJ1Ec1ortdBJ56h4y+5WuE6+Kbbxt4CO4mpXFYv33+Xnv35j5SJxw2m6hUwTj2dzmlDX1Ibc3nlwFRbm4477RSdedX1apm1Y8RoSExt26ie9cu04qln9Pyzy5SogKnW5noduORUnXDZmxRxmBp7OJkj7jymVj14j5792f8pHYspWPZTYCpTxtQGMBUOqx5MnXqyzrzqOrW27RgxqoqpYsEkSce34aeWa+VTT+u5Z5cr0R/fwU+1NtVr/+Neo5Muf/OEm8hUEWuqpsXg7aRYcxWDJQiWHHB3bYtlq+hIirvtquhtkuSVfIZaQdldFcOoDcuiSnpFRfMfzJoogClTLOTNMAxG6hWKRMyMLBjwrPFWyNzOZVJ64Z4f66W7f6FCNq1woahCOqtcIqNArqBUNq/1mZz6IA0zZ2i3xQt04bVv0oK99lUuHVMmmVAulTJCTqH6BkVaZqt51hyFI3XmPNl/ordL2XS/4p3rtPHFZXrxpTXauGGrcpmsQkEYeUD1dWE1NUTUUBfRq045RydccpXZh9vGwgKVMJU3964SpsgLgdCZrRKmsmm99Nuf6IVf3qFCJq1wsahCqjqm2hfN14XXXKOF++6vXDpuqg5yyZSZ/YUNpmapadbcEh4spvq6lE1FFe8qYeqlF1drwyCYOuikM3TSpW8y5XFuGwsL+DFV8Pip3Ct+Khwp5wwMjikmMi/9/md64Rc/VT6dMpgqljGlsp/akMmpt+yn2hbO0wVvvFqL9z/oFUylUsYnDmBq5pzSJKQo5TNpxfs6DaYSXeu18aVletFgaovy6azJW7F+qrEhosZIRAeccKpec8WbJxzpHKKKweYeDKeKwQYKisMVa7Jyz1bN0ZuoaJcYXBXDTo5HVMNyqZgyiX4lo9uUivWZh3kg3KBQfZMUxPxFkzgDYSjmC6aHQCAUUjAUNq9wXYPqGpvMT8oXzd+DQWXTST1/121a8cffK5DLqCUcViidUzKWUndfQvFMTv2s89XXKdDapEJDvY474dXaY485inV3KRmLq5DLiWRHapSz+YIampqNU6+b0W7CvI31ISP72tPRqQ3rN2v91m7Fe2MKEHoOBxThQRAOGpLR0NSoY8+7SCdccNmIwoM7aepp8/USpuLKJPqUjHYrFe9TIZMqY6oRllkDpupV19i8I6YgnXf/SCv+8Bspm1ZLOLIDpqJgiod1a6PyjQ067vijtOde80qYilpMlYjv9phqM3gxmKqLqGdrlzas31TCVF9cgXx+R0w1Nujocy7QSRdfaTDmtl1jgVcwVfZTQ2CqkC+p17JcGQzjj0IK1TWYChce3JQvWj8FDl6853Yt++2vVcyk1BKJKJzJKxlLqru35KeihaL6I5EBTB1z3JHaZ58FinZ3VsZUY7MirTNV19pulg1KmKpTr/VTW7oV64uVMFVeAo2U/VR9Q4OOOutcnbz06jEvBx/q7g1TrIlERa8OQ7UqBjMr9RcH+7UYvH0QvNEDqxHZ7LEAACAASURBVMdgKxhcFcNQd7GG901CX6Jf8W0bzTprNtmvQp77GVCofqaCDa2msVFARbFuRuIO67/FfDmnhNh9IGTIgok25PISgzAcVjgcUSASVrFQ1LoHf6+1f3tAymQUzuRMSFjZvPpjKW3pT6o3l1e2uUmF1gYzCFua6zWzMSxkWumjwDpvMBxSOBhUvlAoRQ4K4KyUV9DS2KD6hiYls1J/Iq1YIi2lM1IRIhNSfTioOtaLI2G1zmjV2W+6Sa86/pQaLOQ+MlwLlJJE+xXv2qRE3xZlE69gKlg3U6FGL6ayJoJQC6a4/5FwXQlTxaLW/+VPWvvX+1VMp1/BVK6gaCylzX0J9eXyygyCqVAYnFbDVFAtjY0GU6kypqIGU1mpmFcgEFJ95BVMod541ptu1KEnnjZcc7nP12CBEqaixk8le7cok4iqkGeCGlCwboZCjTM8fqqEKaqVCkP4KSJITCwCPPQlrf/bvVrzwL2VMdWfUF8WTDWq0Npo/FRzU71mNb3ip0yUMzJyTNWVMRWJhNTc1Kwzr7lBh598Zg0WGvuPjJUWg70ybx6CrWDwizVBClwVwyhhgXX7ePdGRbeuUSq6Tdl0rNRBLNKoYKRFoYYZCpeTY4oFlpHI5CmqUMiZGb0J/bIKUTD/M4ORhzmd5IKhoGHsgWDR/L3ruSe08W8PKp9MKh9PKx1LK5nMmPXivnRWvUQIWpqUaggpmisqi3x0iLyBoBg0DY0RRcJhQy8LhaJy+aIhJYaKFosmHA1pSOcDyiuoumBIdRCLosz3iB7UhYOqj4Q1d599dPl7P6aWmbNHyZJuN9YCYCrRs0n9Wyymoh5MNSvUMFPh+kaTdVQVU0wjcOxVMQUGCup6/ilt+sufzVJBwWAqpQSYIiKVzqonW8JUuiGs/lyhRkwFTC+D4WCqLhLWnD331BUf+IRaHaZGfTDgkxLdmxTdsrrsp6Lm/oQjDa/4KaKco4CpbS8+o40P3q9cIqlCooSpZCKjFNGDdFbdmZzyrVUwFS77KQisOZeSnyIBaiSYal+8WFd+6FNqnbVjLtaoG3mYO6zSB8HfapmZpn3ZCAIPEiv5bCIG5RzEHaoYbOTA5h54eyDwRZug6F1i8FYxkHtgowj87nIQhnGTiQbEtq5RrHOtSe7LpBPKp9OKNDSZGXcg1Kx61vnDdj21UCIHKirA2pwK5kGNE+fBbIhBMaAAEYVQpBRm5aGdTSkVjalvxbPq+vsjSkZjqs8WlKV6oSeuTX1xpfIFpQNFpZrrFA2GlKScKBTQbs11Ckdg+GHV1ZNvUFQqkzfHSuZkQnL5YtBEEswZFaRUrij65syoq9MMToV8iWDQ5B/UR1heaNBrb3inDj3h1GFYy320FgsYTHWsLWEqCabiA5gyrbVDTaqfNVchogAltlkdU3gObqjFVDBsolIkfxUsplY+r66/P6xEf1QNFlO9CW3ujSmZLygTKCrZVKdouIyp4OCYSuWkcAVMUQ+fqoKpOoup696hw05y0YNacDKczxDNjG4FU2sMprLphLLplMnqDwbDKpYxZaKVBlXVMIWHKCUzb4+pkOmDwnJqOhpV36oX1fXI3xTvj6khm1c2kVZXT0KbfJiKlTEVrBFThbKfwlNxCvSCoReT30/VWT/VWK+z3/x2HXHyGcMx15h+thxB+LmkamJNkAEvQfCKNfkFmwb4gL8PQrUIgk1YtAShWpIieQjkIFxy2llLb+ilfnWE28knLdHnPvMRzZjROsI9TIKvldvCRjtWK9XbYcJ2rL2RuMVSAck1RADqZy5SfVOLWbMj58BsJSZgZm88pEsNhsoEMEiDo6D5LvkHPMzzmZTSsX6TYNi/foV6HntUefIJYinlEmnTznTVtn6lCkVlQgHF68NKhUOqb6zT7BkNipST04KhUoJhoRhSJp9XNp9XOo8rCCjPd7OEfAOsWCivgJJkHwcDag0GFA4EFQmGRNJPc1OdFu93gC5578fU2NwyCW7WJDlFi6nONUr1bDWEk+RD8g+MLoGJGICphapvbDFrvqOBqeiGl9Xz2CPKRWMqxFPKxUuYWr2tX8l8UZkwmAopFQ6rrqFObTPBVAmzOPa6enBaGVNZwBQIKpsvDmCqPhjQDD+mGuu0aL/9tPR9/+QwNapwLbWvhnAme7Z4MJVQkWoki6kZC1XX1GJ8Dn6pFNIcoZ9KpxTdsFo9jz1UwlTZT/X1p7RqW19FTM2e2aA6L6bqwqZDq9dPFRVQjsZwYIqcrFwJU6kcZZRVMLXvvlr6/k9MWEztRBWDzT8oP1QGSk9sNGFAwcRfxcAHbP8DW8XgjSIMVsVABMERhBoGaNrkG2xQqq9TmXi/crmM6flNBi89AeqbZircPFOR5jZFwhETJoPFE1UoslYMWTDFDaUGWJAC8wqyrFBi49xGHhDZRMIIIuWzaSW7t2rbww8os61b+b6EYj0xdfQmtCWeUE+hqHwkoEJ9RJEZTdptdrN5mOdyeaVTWbNc0dBAxQQkoahEKqNsIKR8MaJMvqieaFz1YSlbKBGETK6UTDnD5B2E1EhZUl1YLS2NOvOqa3X0Wa+rwVLuI7VaoISpjUr1dZh8llwuq2wyXsZUfQlTTbMUaSljCpKZqxFTRLPIbwFT2ZSy8aQRaCphqkPdjz6odFeX8r0JxXpj6gRTsYS6PZgKtzZpt7ZmtVTEVIjA2A6Y6o3FVRfaHlMsq80sY6ohFFZDfVjNLY0644prdMxrL67VXO5zNVggbfINNpQmMYl+k6BMNRP3PVJvMVX2U6aaCUzlDFaG9FPbYSpd8lOZEqZSPR3a9uhflO7sUr4vrrj1UwZTlGIHjZ+qhqn6hohCTKqKUjKdUUZlP1UoqjdaGVP4qXqSp0Nh1deX/NTpl12lY89bWoOlxucj41XF4O2DYKLD5aWGWsSaLj3trKXXuwhCdcBkM2lFO1YZYpBJJpU10YOkMqmEyRdobGlRY0ubcebh+lYFA5ADQvql9eJS5KDEzvkZIM+AwVZuVWxDwKbSIJVUPps1hCJH3kEure4n/qb+ZS+Z2V60q1+rtvZpWzKtBA/3cFCB1ma179aquW2taqoPm4oFlhQoU2S2lyE6WCwqmsiqEG5SIVSnWCqlnr4+FXMFhSNB5YshFkGUTKXVGpQaQiHVRSJmeWHRfvvqyvf9o2bNmT8+o2oKHjWbTSu6dZVJGqPHBd0Gc5mEB1PNamxp33lMZcuYyvgw9dTD6n/xBRUSKcW6olq1tVdd8TKmImCqSe3tMzS33WIqa9aTQyaCEPFhqlGFUL3i6ZR6evtUGMBUkJhDRUwt3HcfXfGeD6t9/qIpeHfH55IggP0WU8mEsgkfppqb1djarhCks77F9DgZ0k/ZRGoeKExkSHbOZg1O8wOYSimfS6nn6UfU98LzJgch1tWv1WVMxfFTZUy1tbdqXvuMsp+qjKlYIqt8qFGFMJhKGz9VyObLfuoVTLUEpUaPn1q4z9667JZ/0JyFu4/PDajhqFWqGChvtL0QWFqwZY4sNXg7KNp8BL8Wg4kiVOuk6G+WZAmCE2uq4YYN9RH6GMS61isV6zXOPJdKKJfOKssMP59WXUOrcZgNM9vU0NKmAGWN5QZEVA2YhTPiBhCDsqiSyVUoayewGgBR4I5DDpjtUdGQTWcMs480NKh32RPa8sD9KkQT6uvo07KtvdqSzykTkgrBgBpaW7Tn7nM0p63FNA1Jp1LmYZ9ndoA8M2VzhaLpm5Aq1ilU32KiB7F4XMVMVsFIQPlASJFQxEQfIoW8GpBzDobUMrNVr73mOh135msnXMnQUPduor4PppjlJaM9VTDVYnJHwFR9S5uJAFlMGbLpxxSryOUe9wZX4IwZYRlT+SwOvIypbFaRxkb1LX9Sm/98nwqxpPo6erV8SwlT6TKm6i2mZrcoHNwRU2A7azBVUKoYUaihVT39scqYyucVzufVWMZU88wWnXPVtTr+7PPHXEFyomJiZ89rAFP4KSKc+JJ0Rtlcxkwy6upbVEcvk5ntO4+pdNIsg26PqQb1rXxGm+/70wCmVmzp0+Z81vipnPFTzdpz8VzNaWs2VVXpVHI7PwWmSn7Kg6loTDGWV/1+yoMpJkLNrS06+6prdMI5FypcrqzYWZvuiu/7Igi2i2KtYk22WdKQYk1+suBXc/RXMVg9BifWNIy7ziw+Fe1WOtqlTDxaaj5kwv95ZbNZ0/AoEIqYmu/mWbupobWtVKFAmZAhCaUowkC+gSkdDJuyw5IbL3Uww6mbwZYhekBeQ1aFLA/uiCLNTepd9rQ2/uZXSnf1qquzXyu7+tUZllIBk5WoGW2t2m/PBWqf2WwSIAnRJZLpclljTtlsTpk8g0+KpYuqnzFb6XxByVhUiVhKCgWVJ4nNnFVAjZGwUfFqCId07Jln69yrr1PrLFe5MAzoVP0oD/gSpjrL5MCHKZLGwmAqbJpa7YipcjTK5rAMgimIZsZgKmMeFl5M9a14RhvuuVvpzl5t64pqZWefOvyY2mO+2me1VMZULmf67ZcwVVD9jLYSpuIxJaLJ7TDFMkcTkbaATK/8Y04/U+ddc4NmzJ54WeajcY/Heh8GU7FupfsrYypIzwIwFQmrafZuJopAnojylELb3Cj7zDFlBAP9D/x+alBMrXxOG359lzJdPdrWGdWKrn51hIomkbqIn5rdqn33LGGKJdhUOqP4gJ/KGxG6LFUz2/mpopLx6I6YKgbURLdPg6mAXn3qGTr/TTdqZlv7WJt/WMcbpIrBK/fsrWKwEQRLDmrKQbBPHbu0wL9tl5GhqhicFkONt5TsX9PjIB1VPkEmcMrM7Jmh57NJBUMNJpzfsttctbbPNQPPlKCZpYSC8uiNlhiAqS02N4kuilQqWOJQXmagWxiNkXDm+Wypmxmd5SINjep66TFt+tVdim/epg0dfdqYyCpRF1IyWBRJBLPbZmjhnJlqamxQMR9QphBUOptXgeNkY4YIJDN5JbJ5FYNhRZpmsHMlEwn19/ebBCAcfYpeDIGg5s5sVduMGTr25FN0ygWXaNZuc0ZV1a9G80/Jj1lM5TJR5eKVMFVvuli+gqk2QzRHD1MRheub1L38CW28+5eKb+7SxjKm4l5MzW7Vgrmz1FzGVLYQVCqbUyFEvDimFORyB0xFjH5HX3/fdpgiOW7ezBkGU8ec9BqdcuFSzZ4z12FqlBBOUiJ+KpcGU1Fl0/iStDKplHLZRNlPZdXSPkct7XPVNAM/VQVT5Vwp0wgpPISfMr1WcCVgqlHdK57Sxrt/ofimLm3q7NeGeMb4qQQTGeOnWrVgziw1N5X8VLYYNMtWQ2IqmVIfSfQh66cKJp5uMNXaqqNPOkmnvu5Stc2ZNykw5dNiIHqA7DPLCpAEq+hYrYqhnFFqHhG21LHiEoOfJNjqheFWMVDm6HIQfIOVB3yit1OpaIdJxClADjIZpRMxZVKlQcisH4Y9e9E+mjlvkSINLabRCIQAps36HuWLxApoXESkIFxfVyozMmWPLBzB2IvKpZOGgBAqLL0XMDNJmH//6ue05b7fqXf1Rq3e2KW+YFALD9hbvamUNm3tUtvsFrXNnqVUMaSZs9uN+mJfX1Rt8xaoqS5kepf3J+JKJLPKB8LKR5qkSIPSqbT6erapGIRUBBTL5DRn7hy96drrdfixJ7gZ3ig5cLsbU5fe16lUP5hKlTGVNZjKpvqVMZgijiPNXrh3CVONrbsGU2te0Jb7fqu+VRu0euM29QYCWnjg3upLp7VxS+d2mGKmb2R1e/pLmKqPqGfjMvXHK2AqnVZf9zZTw07ZbCyTV/tu7XrTm6/XEcedaPDpttGzAJhK9nUp2U979JTpuJlNlzGVjhqSMGJMlauqhvZTREXr1L/2RW299zcDforWymCqP5PRhs0dmj2rWe1ts5RWuNRLpVhUb0+fZs+dr+aGulcwlcoqL4+fSmfU191lMEU+FZia1TZb1775Bh2x5ETNmkTKssNQc7Ryz7bEEWJgcxDss3/AtZh5aPlflcSaqlUxDJWk6KoYqoxVk3uwbaMyyV6Td0Df+lyuoGS0X+lEb2mdP5czEYH23Q/QrAV7KhQpCxjlc4YcmH4H5m6RC1AwkQO6K9LEyEQVWEsOlqILZK/nslnTitkwhyC166X8hFw6oei6FepZvkwdW7oUmdGs/V5zmjatfEkrHv+7GhsblQ+G9dzGbqVSafXEk0qkMzrz+GO1756LlOnZqv7urcpkM+qNppQKNiqZDyhNj/NY1IT2ioGwKUc64phX643XXqfdFu5RKoly26hZgIeswVSixxBCSGeOsDyYiltM5RWKhNW+eH/NWgimygqHQ2CqVBUzTEytX6HeZcvVsbVT4ZZm7XfyadqyarmWPfaIGhtKmHp+U48SzODiSUVTaZ11/DHab6/dlendqmh3h8EQmEoHG5UAU9m04lEvpqRDjzpC115/o9oX7DEh1fVG7QaPw46IBERrxFTb4v01Gz9VN1JMFUp+Kpcxyc0lP2XzqYLKp5OmLLu37KdCLY3a/+TTtXXNSr306ENqaGhUMVTCVDyRUn8iqb5EWmce/2odsNceyvR1KNq9VelMSn2xjFKBBoOpTDatmAdT9EE46IjDdP2NN6l9/h6mTf1k2apUMVQTa4IQWMEmW+bojSBsRxSGq8VgpZ6raTFYsSZXxVABXYT6o13rTLVCIUcpT86o3yWjvUrQPTHFUkBG9S2zNHevA9U6Z4HCkXpDBCAOJaVE1veIKBBxDZkkPyoYzPofDZJMMllIBTLNTeJPxuQu8HmT1FjujWD+nc0a0RJKK0mYbJ69m/q3rNXWlc/TO1kdfWk9+Pwq49ifW7VW/fGEzj/pGL3muCUKFFJKQRDSKW3r6VN3qqAYUtGZtMkwT6LqV1enfKhO7fPm60Mf+6Rmz5lfLpObLENv4p8nJYr9nWs9mMork4gpFe1VvN+LqZmas9eBmmEw1TBCTGVLOS3ptA9TAYVCkRLGclnlSWQzmOoxmIpuXactK8BUXp39YGq16usa9MKateqNJXTeCa/WyUuWKFQsleAS9erq6VNPqqCowVRGyVSqhKlInfLhOrNE9eFPfFptcxY4TI0yTHfAFHkn8bhS0R4l+ruVGfBTMzRnzwM0Y85Co89h/VSpP0vZT1H+xiSmmp8iRwA/lU6X/NuAn/JhimqspPVT7Yp2btCW5c+aFvHbohk98Nwq1dXV64U160yy9LnHH61Tjz9eoUBWye4tyqZe8VNgKlnGVCIeVzBSp0I4otbZbfrHT31ObXMXjEiKfJRvQ827G0SLAZJgqxf8VQxeJUdvoqL3uDVVMXiXGVwVQ823bccP0nks2rnWzP5Z48uQTGMe0EnFereZAUBZUeOs2Wqbu1gz5u1uRExMVIAlBtPPnIzzvFkmoCshTWZodmPupIkewOGK5uFPKWWpB3rOOHT+Rm4AA5bvQCiIMBDJSPZtU9PsWcoluhXtWK9iPqX163u1fnO/WhoievKll7UtmtRRB+6lI444Qk1Njcol+5Xo61Vvd686omn1p3OKxaOKJxKGzXOOdQ31JkHoxne+W68+6dRJsZ63E7d4zL/KAzvasaaEKZQRwVQ6YyJUUS+mZs5S27zdB8FUroyp0KCYMktjQ2CKkjXTGwFMzZqlXLJH0Y51KuZS2rChT2s39aq1oU5PLntZXf0JHXXA3jriiMPV3NxkMJXs71XPtl51xNKKpnKKklCWSChmMEWjpQalcwXd+I6bdewpZzhMjTLqspmUaN4GprLpuNJeTPVtK/dUSatx5izNnrtYM+fv4fNTZY2Yws5gCr+Gn4oYP8VkisqZZF+3mmbNVC7Zq2jHWoOpTRv7tXpDj1ob6/TU8lXq6I3ryAP20lFgqqVZuVS/kl4/ZTAVK2MqOYCpZDanG97+Lh1/2tmTClM1iDVBDrwEwb/EYHMPrEb3QBRhKLEmu8xgpZ55+lihJttquVIVg2u1XGHQQgpw5pQd5qkpBvQZSoay6u/dZmRNTQ5CIKi2+Ys0e/d9FalrGNBUKC0xmAYEJeWzICy71Ea5tNFBsdSfIG8UF3OmUQ7RBLocmlbMhdKyhGmmVBZ0yuezpdle2yzlE91KbNto6pl7exLa1tGrQobs8rzq6+vNubbtsb8a6utNn/9UMqFEPKOeeMaIMvXFomYduS8aUxHthoZ6kztx9oUX64IrrnaSzqPszKkdx5mbhkXJ+BCYWqjZu+83TEyVKmK8mAIDRLqYJZJXMzSmepTo3mAaqfT2JrRtawlT6Vze4Mhgavf91NDYqET3RqWTScXp7hnPCFGmAUz1x01+jcXU6edeoIuuvlYRJxM+qqjKpJOmn4bBVCqhbIZIo8dPUY5oOqYGNXveAnPvWDq02i8DfqpQLMvQ+/2UD1N5Hv6DYIq5TzYv/FQ63qOm2bNVSPQobjBVVF9fUl2be1TIljCFnyIKgv9sbGxWomej0mbS8gqm+mNR9eGnPJjC95529rl6/TXXTThJ56Fu8CBiTTZB0ZIEfx8Ev5qjlyRsl4Ngz8Gbl+CNHlTrpEi5o7eKwck9V7mbdLnr27pKBQYbWcG5vHGuDL54f48SfV0m25wlgvaFi9W2x4EDzrxUoFDKO2AjpGsYdiBgIgncSePIEbchYgBBoDESSwxlZ04TEp78tl8Ctb6lsHBOmVS/mmbOUK6/Q8m+rQQalC+EtHX1esV6y21665CRDqth1m6G2cc6t5SETwIh0YgklkgoGmcNsNQwKYWIVKGocCioJSefpkuuvUENjc1DYd29PwwL0OWub8vLJRIIpqgqYcaVySre170dptoWLFL7nmCq5MwrYypo8llGA1MkSTZaTPV3lJp9FcHUBkV7YqXWz2CK0rLZ7QqG6hXr3PwKppJZxeJgKqW+ZNI0TPJi6pgTX6NLr3uLGptcq+5hQGbIj1IV07tlZWVM4ad6Owf8VNv8hWrf66AqmCoqFKoricUNG1O2M2zANGeDXUIAsqmoGmfNUK6vQ6n+rQqAKYW1ddX6HTE1q13BSEMJU0yGgmU/FU8oVsZUN34qW/JToVBQRy85QZff8Lb/396XBkd2Xed9DaC70Y0GGjtmgMHsnBkO9yEp7sNNFKkRN3GnRIkiRYqSSFmkNsqJ7TgxS47L/pGquCqxZeVH8iMRvcRxYtmWLLlUFZlaGMmkSA5nBnvv+75vqXNeX8zFxesFYAMzwLyemkKj8fre98773rnfPSvsfVunxL8SpLieXgxqDIKuBaFZHYRWWQxyu2eDIDQhCHHfLPtnqUgHxwaQMi/XkImHkIwEUanUYLH1Y3TXHvSPjcNcDygTCp2rJnK8IXVn1IJ5qBKdWPQpW4FIBmUdMPkgolBPc6TPl4kEdVa0WLgdarVcRLVS4L4LxVQcpUwIphoRzS5EfX5EfWFuCkWmXe6sZ+tDpWzi4EUiKY7hcRSKJfYRp9JpRFNZhGNJJCjLIZOD2UwE4VZ8/FOf3VIPXktNeh4cUMimEPfN6GMqEUYyHKhjyoHRqb0apuoBZecCUybGVABRX4gJr4opyoKhAk2EqWKxhGw2g1QqjVgqi1A8ybs+galriSA8/TzsjoHz4E5sn1MoEEHwznD/Dq0Ca11PVUhPrcTUyNQeDIxN6GKKGChXdK3rKXaH1ou5taenuthytVJPFet6KoZShvRSiS0Zy5iqSpjqpRoump6ic+gbHkOJ0mizaaRTdT0VTyJOmMrmYO6pE4RnXkBfv3PL3NAOZDG0dDHoZTGIeghyLwa5WZPc6lnu5GhkMTSAVjGXQdR9GoVMUutaVtEyDCjaP5+MIRpwoZArcZDixN6DcAwPcwUvPraqNUFicy5VwatbDrj+AVkU2BnUxeZaIgUUq0Ad/SjYsFwpa3nMubzWnAeaC8LW7+AUSSpuYkKJH7ZqIYtqIUk1E9k9kQqFkAqGuYhTT08PioUSTD19qHBDFsDa34fePrIKmFGpVEBBP35/GIF4ColsDrFYjE3LN95+Jx745LPotW+d6OCtoCHIxRB1EaYSqzGViiHmdyHPmHJKmLK0hSlyM3EZ3GaYIpJIQbECUw4HenoJU9yJYxWmCHfJcAipQIhTfM1mMwp1TFW7zewKUzGVy2ThC4QRjCURlzB13XGySj0Hm92wSnUSq4SpmPsMBy5reqqsBUl39SCfSjCmCrkiLH11TI2QnlonpmgTU6rrqSpZCCgmS2CKVFOJy86fxRTpqSKqlLFTTPJGhjCVCoeQDIa4psxZTGkl4BlTjj70Os7qKcKUPxBGgDcyZJ2K82bt2puO4+GnPwe7Y+tYpdbYrEnOYpADFeVKistuBjXNUZRY1hzaWv+FtTZrIneDkcWg88RSTnHEdRr5bAI1MmvRMlyuolozoZTPIOZbQiaZQleXGWN7DmB8zz4uaqSVVK63R61TOTLbieZMdIeEFYGMElqzk9JyRbNynRyQS4MCGEkx0+7RMehET28vTNzjoYxuUxnVUg61UhaoUvEmquOf59arVAufCzplCyBFTlGRZocD1n4nqoXSck2GbCqJcCgGly+IeKGMLO1ASmVce/NxVuZ9jq1juuuk0t2oseheR1ynkM9QDwwFU4UMYt6zmBrdvR/je/dzWiD38WiFKdrtUcrsGjDV53TCbDuLqR5TBZVSVgdT6eXy3xQEVzXRfsMEc58D1oGVmKKUzXA4jiVvEIlCiTFF+D52g+ZicGyh3d5G4aCT49KCTZjKpeOrMEXp0VHfIjKJNG9URqf3YXzfgXVgSmsit6ynKGCaGr/lciizPqpxczmKuWqFKSI0lCJeTKU5houqxuZzeQlTfZqeKpVRLlETKRNyySTCkThcHtJTdUwVS7jy+hvwyGdeQL9zsJMi3dCxWjRrkgMU6b2a5kiKQK/cMq80zXoxqM2a6Fi9LAY5SJGsB/TfKJSkAwmK7A6TBSEV18omlyogEzG7wCoVpONxriZHrc0dTAAAIABJREFUgnYMj2LngUMcKVyvraz5jUUqI5vqurioUq1GXRYp+pz6sIOzF2jhYFpB9e2LBRTTWV7EuUQukQeeYxgWu413e8See7op0yELVApsrShQvQYaq1RlvzAVS8knk/wAdlkssDlHOHgoEwuh20o94buQTSQQCYSw4PYjmi2g2GNGtVLDZVdfjcef+yIGBo1SuJ3UFmQlirhPI58kTFE6bAUFqqZY1pp7yZjqGxphTNmpxLVWr/sDYKqIYpry1xVMDQ3D0tcYU1QDhPG5AlNUcrxYx9QwqqXqSkwlE4gGwlhw+RCRMHXJlVfh8edfxOB5Xgq3k/d7M8aiAD/SU2TVXIUpqrtBeiql6am+wWHsPHiYs1VEs+DWeqqH9Zamp4pa+T7qmVAsopih4G0tYHFZTwlMcR+aiqanylmgrOmpYi4ByrzQxZTZDNvgCG9wstEwuiy9HBORI0wFw5h3+RHJ5FHsNrMr5eLLL8cTz7+EodGxzRB1R+ZYQxaDCFBsVQdBNwZBWA3ET2FNED0Y1CDFZlkMhgVBjyCUS4j555FLRrSo8Gyem4sUsjmtUAgoHqDMUcNmixXDk1OgICByHXCOMEeME9nTeB0nL9TKqFUK6OqxoqvLqjXT4WwIKpqlmRvICkDuhSL9p5xjypTo6oJjaEgzu9UrMpq6qhyPwKGOVGEsn9YsCuzHy7HbopDNoJzLw2zv42YtqXCAj6eKfSZyQWSyKCZj8Hv9cEeSiBeqqPTacfSKK/GJz30JgyOjHXkojEE0CVCsSdw3j2wyrGEqV+DuoHnq76FgimpqjExOYWjnpNZ4qd4JlEt5rxFTZAZmPOVyDTBFLjFyURCmShTKWsdUhkmoPqbssPb2IxmqY4p8x+Y6plIapjzhJGJ1TB257HLG1PDYuAGHDkqAXAox/wJX6FyBKU7DXqmnyLUwsnMKQ5OEqe6mmKI4p+66niK4aRUZhZ6ixnKanqIsFn09JTBFBIH0lIKpmon1KVllKWuBOteabXZYbf1IhYKU/M3uC8IUtSovpGIIsJ7Sam5UrDYcuvQyxtToxNbqMttGFgNlM5CwaQGhn3KRJLXU8jKa2imUJDo5qs2ayHIgxyGIIklGkGKDh5XMZcmwF7k4BSOWUCbzfTrD/QtoR2e29sKEbmbWFJ9g73diaGqazXdsdqtW6xmNVBRJK79MPytlqo1O5ZYpocTEDzE9eFyamXzD5AKgQjPZDI9dyGU5LYl2kvY+OweFdZk4H6FesATotpg1E1+pwDsDevBKxSzvTqluAj14dK6VEn0nzWjLpVIckOg7PYOZBT98qTySxTIHol16zTX49IuvYGR8ooOqzBiKMJGM+JAlTJWp/kEehUwWeeqqyQFeVphMPexWqlSKHHw1ODkNq00PU1RvgzhlHVNdFpi6LbzbW8ZUvWmYwFQ+m0FxGVO9sA8Oa5ji5mFVzlzgIjgUJd4KU702dJnMKBcp/TfDZDdLmOrpgn9mBmcWAvAlcxqmrFYcvfpqxtTYjp0GEDooAdqIJMN+7sVAmKrk88g3wlSZMDWAwSnClF1HT7WHKXYpFEso5wrIU+l5KkGfy7BOXA+mipk0Z4eRC7W7y8LWTyamNcJUEj09XQjOzOIM66kcEgUNUxdfdRU+9eLLmJjc1UGJbuxQbQYpys2aRHll+eey1aB+tmxibORiIDJALzXNkYIURTVFYUFQ0xyFi+HZODXDWOfrlpuuw2v/7psYGNg+Pmu6kZStkI76US3lebdNiypFa1usdpitVnC8QJHIHpgY2AYHYXcOLZuCiaVTUNiy/5izINLo7rZxF0gyK3PksaiBQMGKVLGxUOSyyIV0kscnUtA3NMwxAVRLoauni9OJypRLn8/BTKljNc0XSGa8EhUWSceRitKuArD194Mi0nku7kJpRSoSwuLJ97HoCSGcLSJOndXKFXR3dWPnznE8+6Wv4Krrb1onIoyv6UmAezHEw0hFfRKm0loA4CpMUYS3nd1WRA6FKbgxpnqZIFCxLS6oVdF8uBrGyqzEaZ68hClS5o5+FVNZzrIgqxPX4ljGFGUkxJCKaNYPwlQXuuvEtMTle1ORIBbfO4VFT3AZU9lyhd1ZO3ZM4DMvfhnX3HTcAEcnJUB6KhFBKurlPgzUbTaXoiZgRW6gZLH2am2fS/l6JoodvU4n+khP0T/RuZHSE+vuA63YURrdPSqmBLYIU9QplPRfK0x1c4YFFZZrhKl0NMyuTcZUV7eW7l0mPUWYCmHp5CksugMI54qI5zU9RVa1nRPj+NQXvoTrjt/eSYlu+Fh1C8JfAWiU5ij6MAgrgiiWRERAr1nTCoIgiILo5CS7F2SSIGcx6LV7FjEIH7/tww8ZBEEHFrlUDIngIi/C5XwBmRj5z4pMAnq6u5ElHz9lFZgoDbGX0xkHxsfRZe5hJUolSykTgfKKazVqAV0FKkX0mG0McLY+lDWSQIycxqYHu0iR6JUyWw+IhNSo37lzEA5HP6w2mkcjHlQYJZ9JM1nptvTwzq9GPsFykdMww14tT314bIwtCZQzTRaCfDqPd37xJs54QqjQODVwdHCuquXbU0Gch578JB57+rMb/rBcaBNQqe5EcGEZU9l4ggmhhqkeZFOJehBpHVPdPeifGOf+DCsxRSZiqropMNXLZuOmmKqWNXMuxbyYGmCqkOPYmrOYAmps5Soy4Qx7vahUTRgeJ0wVUcylNExlC3j352/itCeIiqmbbaPUv4EwRRrNZrXiwceewBPPfu5Cu+Ubfr35dAKJAGEqy/ojGyNMUfXEIZglTFHOtcViY53UPz7GViIZU7Q5qFYbYIqIZrHMizfrKfpPemsZU0UujNU34GTSSVavZT1VyKGQTqPbauFaGgTZZUzFwgh7PAqmSE9ZOfuCMeUOomzq0jBFeqqiYYr01P0PP4pPPPf5LVNNcY1ZDCL+oBFBWGFJWEsWg6imKCopygSB3gtyYKQ5Nnl88xkqlrSAUo667VV40S0VyugbGGRfPv2ejMfgGBqDxUpBhyZY+/rRPz6qBSV2dbFip8VcC1CkHOUK92ygp4QeMEppJHcGWRHI3JxNp1CokwLqnVCimAO2UPTCOTgER58Dpm5q8FSDieoilErIZXO8S7P12VHMUGBikU1/EZ+XSupjYNjJ10AxCYNDwzj1xk/x87dPwV+uYXp6Gl3VKryhCHLk9yuXYbVY8Pgnn8YTnzEIQqe1O9dC8BOmUigzpkKcjqphChKmRhtjqoeIp4ypMvdsaI0pE5MRSomlF5EAwkMrTJXqLYTzOcKUD+VyjTFVzqVBbovB4WGcfuPn+NlbJ5cx1V2rwRMMI48qCuUyes0WPPqJp/AJgyB0GlLcDTTun9cwVahwaipjqt/JFVwTQk8NjsBi1dxQ1j4Hk4RlPaWHqR5KcqvrKXalSnoqk9Ya1lH8k4opskw5HFpWTVVfT5Uo4DtPLtQM6ykK1NUwlWHd5RwaxszPf4Gf/eo9xtTU9C6QhnUHQ8jXBKbMeOjxT+CprUkQ/me9zbOwIohWz/RwilLLHyiLQQBNTnEUsQf0U1gQjGZN63wkKSUn4V/gznv5VBrpaIyzDchXVi7k2fzlXpxHBd2Y2r2Hc3p7ukwY2DEJi83G5IAa1tBPrfSB5m7opnbPtSqKVMI5RxYCLUAxHU8iFvAjFo2gRJYJsxXd5B+mKnZm6qc+AidFIFer7LdGvXRzMhpB2O9nK8P45CQqZPGolJFNxjnIsbe3l0owcipUT62MmbdPYt4fg5ke5EEn5mZnEU5lOMCSSI3dZsMXv/IN3HDr1jLdrfM2b+rXGFOBRe6/kE9nkI5GUasRpmwapqIheBbmUaqZsGvP3rOYmpjkLJaWmKL4k6ymuOmVjieaYooIAhFPKq5F1qhaveIntWwmTNkHnJggTHHnScJUgmNmqDOfqVpBNh1DT62C2V+fxJwvqmFqaBBzM4SptNZPpKuLj//8y1/BzXfctanyvhAmowZKCT9ZOjMcJ5XSwZR3cR7FSh1TlrqemtgJi92uiylyP/QIPaVgKpNIIub3IRaLoEgbGKGnurrYskqZKnqYSsaiCPl8sA0MYGJyqt7NtMxWM7KiWimupVZBNqVhau6d9zHri8DsHEL/8BBjKpSUMdWL5196Gbd+5J4tc5sbZDEQORAdHWWCoJZaFnEIch0Ece1tNWsSdRBkgkDxB0YWwzogRIowEXShmE0hn0igkKEMBgoKK3GMAPljvW4X3C43R9JO796NXlsvA93uHOS6CJR5QK4HClCjHRuZ3ejBI1MemYOZIFBp0WoFiUgU3oU5eFwupCgY0tTNZkCKQaDYA4pB2LVrCnZHH/Kk+GMaYamRSyFJjZcycDgHMbFrkhk8kYMekwnlfI5yLrhENFkXEvEE5uZdiGULyJRKiCZTKFI7aiobPTSMu+97APc9/BgcA0bVu3XApulXuJdH0MUps/kEtXmmDAYNU2RRSkbD8LldcC25MDo+gende9Br74WVAlUJUzYJU7UqBzY2xVQ0Bh9hasmFZJbKcKuYcmBq1y5ulJMnghqLsvkWVHgrmUI6m2HiuWNqEo5+GVNZdKPGJJSsYMl4ArMLLsQyqzE1PDiEj9x7H+575HEMbKGc9U7f+40aj9yRjKlMchlTXGOgjqlUNAyvxwXXogsjY+OY3rMHNrsWn0D3lrMHHH1cSZE2LlQNkXTWaj1FXR+rSERj8C/MwU16igJsZUx1dXPhItJTfQ4HCskkYtEouwcoAyuVTGqYGnBix64pDVMV2mKRnsqiR2CqSJhKsp6KZnLIlMqIUgwYF5/rxpBzEHd97F7c/8gTcA4NbZRoN2TcJlkMog6CbEFolsWg62KgD5uVWhaZDHKzJuFioJ+U0WBkMbRx6ynAKxFyo5RNIBdPMjvPU5GPUpFLFSciEQSDAXjcHsQTSY7QPnDwAIYH+rmimNXeB9uAE1aqX8CpjiZY+uywWnuZEFD8AcUZUC3+cqWKeDQK18xpLFFr3USSMx/I5J8tUCERrdgSLfwTE2OwdPcgkYgjnU4zwejp6WYSki8UUTWZsG//Puzfvxd2roZY45SkTCyGeCSCRDqDcDgEly+EaI4cC8CA04mDFx3CiQcfwWVXXgV739apTtbGrTxvDmEiGPKglIlrmKLWvJSCqGLK40E8lsTojh04cPAghp39TAytdscyplgJEKbsdrYSUT8PFVOJWBRLM2ewNE+YSkiYooJH3BQE/YypcVgZUwnGFNX+0DBVQ56KedWgYerAPvTVK2xSoZxsPIYYYSqVQSQchssfRCSrYap/wImDhy7CiQcIU8d4wTBenZcAYSoZ8qKYia3AVIkwlc0gHo4iFNL0VCwWx0hdT404B2Dv62N3g9BTZzFlY6sPY6pCNWA0PVWpVJGIxTRMLSxwz42zemolpsbHx9BrNvOGRA9TZcLUvr04cGA/dwell4apOOupeDqNSDjChdwi2Sz3aOh3DuAA6an7H8blxwhTWyswXrEgZKVARbIiEDEQKY5kPRBBivQ4tZ3FIAcpigJJJFu1kqLIYiBSQO+JGIj4A7ncstHNscEzSw9GKuJDIR1FMZVhUkCpXOTzT7FijCIQ9MPt9iISTyCaph28E9dfdQX2755mMHf3WNDrHGRSQOZhKnXcTx3OuChSHplEAsVsnqPMoxEyLy/C4/MhyZHIeWRyee6ZTrvLItdap656tKO0cjAb1zQwmTA40M8Kneqn00NMaNq/fx8uvewSrWNatcrnnwxH4fH7EKYCKlTwxmzBiQcfxo233omhUYqdkLln55XZhT4i3b902Ie8jKl0GlRONhWPs3spEAjA7fYgGk8ikk4zpq676gocmN6FfqeT7xllN1CqF5X3tvbZMTA0XMdUQcMU5aczpsIaprzeZUxlcwVE05Q90QBTRcpbhw6makwSLr30EiYkGqaySIYj8Pr9CMdjyBVK7PoiTN10+4cxNDKqNZMyXhsmAcZUxI98KsoFsfJpymLSMJVMUDvuKIJBP1wCU6k0+gYGNEztnubNgYYpJ1sVGFN2OwaGV2OKMKPqKaqRkM3lG2KKLAQUV6WHqXKtxiSB9JTNRpVoq8ils0iSNZX0VCyGPKU9dnXhxAMP46Y7Pozh0bEtjSkli4FcC0QUBDkQHR1FqqMIUJQrKMqZDMt8QA5SXPY7SMRAzmBQXQxEDGQ3g7AgGGmOTR5bTkujLnuxAIrZDHLJFMg3m4zH2aRKJn5/wAevW1twM9SdD8DY8BCOHL4Ih/fvh83Wy66FXoeDUyEHx8cwOrGTj8skE/wgxOtjhoNBBENh7rSYzWaRSCaRSlPr0yzyhQJnNtACTn4+reGT1nnNbrNiz9QURoaHuPUzWR3ofIi0UADaocMXwel0cnGTaCSKdC4LW78Tl1xxDDfdcRecwyMGMdgw9b1yYMZUMopsNIhSNo1sMs1uBVLkiZiGqQBhyuNHKBZbxtTo0CCOHD6Ewwf2w06Yslhh7XewO8s5NoqxHZMaplJJXrAJU6lEHKFgCKFQmE3BGqZSSKUzKzFFcTUc67ISU7unJjHKmCJLVgURxlScrUuHBaYKecTCUaQIU44BHL3iGG6+8yMGpjYJT2xjrtWQS8aQiQVQymQ4HTtBmIon+H80GkMgqOmpUIz0VJmxMjLkxJFDGqb67LaVmBodxdhOGVOkp8KMqXAwxHqKMZXLIpFI1fGVQy5fYHfZsp7i5nSanrL1WrB7agpjIxqmqF5MOCYw1YdDhw5hcNDJLiuySpGbtZcwdflVuPnDH8Hg8NbfwDTIYsjVCQKRBTUGQRAE2YqwwrXAJmLJraBXMEkOVBRVFOUaCCJQkcJS5SwG+t2wIDR8mKmyYQ6JgItzjLOJJKJ+P/xeDyKRGOKJGEIBPyLRBC/Gk1NTGBp0IhKJcGzAxI5x9A8MYKDPwQ/gwMAAJvfvx55Dh3n3RQQhHgxxEFk4GMCSy4NFtxsZ2tlTGiW1ZE5TcRutznndosyBhPTQUS0EIgvDAw4c3L8P05OTsPZaOR7h9OwcXL4A0vkCrFYLdoyPYdA5gJHREVx9463Yf/ElGB3fwX5H47WZEqhxiiNhqlLMM+mM+H0IeASmaFH3IxwhTMWxc3ISw0ODy5ganxhnHA04+tjUT/ia3LcPew8fYYxQYRnCVJRwWcfUgsulYCrLOewtMbVvH3ZNTXI6WSpNmJrHks+PdK4Ai8WMHePjGHIOYHh0GFffeBwHLr4UIxM7uVGY8dpMCdQxFXSjUsgxplhPMaaiiDNR9CMSSfDGYcfOnbyZiFJsQK2GiYmJVZjauXcv9h25WB9Tbg8Wl9xIF7SGckQS0uksWwn0MEXkwEx6yunAgb17Mb2LMNXLbodTs/Nw+fxI5fJ1TGl6ijF1w3EcOHoZb6i2C6Ya9GIgYqAXpNhOFsMqC4JMFsR7QRDkLAZBEBplMRA5aGlBEKZsmohMRXqv7VgoSVwnseF40M2dE9ORKKfk+N0eeLweBIJhBEMhNq8R873s6FFOETw1OwOX18+9y219fTh2zTHYzGZm30cuuRTXHT/OPl6KCI96PEhEQgj4/Jidn+cHJpWjlqddKBSLzLJFLX5KWSJ/H9HFbsps6O7GQJ8dkxPj2L1rGmNjwxxcFAgEcWpmDr5QBJlcDrUuwGaxwtnfj9/45jdx8ZXXoqeHDErG61xIQMZUJhpD2OeB3+WBl7BFu7NgGNlcjq0+lx29mM35p2dmsOT1MaaoyyZhyk4LdzyGQxcfxQ233aZhKpXUMBUOIugPYGZ+DqdmFpDK5bhOQmtMdaG/rw+T4+PYPb0L46MjXNcjGAzh1JlZeMMRZLI57gxDxGGw34GXvvEqLjl2nYGpcwGm+pwcUB3ycG2UTPSsnvJ6PfDVrUh035wDAxqmbDacmZ1lTOWKJa5bcOzqY3DYbZy6fdHhw7jx9juWMRWjmBjCVCCg6amZeSSz7WGKNjIDDruGKdZTI+xuDYVCeP8M6akwY6rKmLLA6ejHF7/2NVx+zY3s7thOLx2CIFsPRPyBCFIUWQwi/kCUXF53FoNaKEk0bFJdDIIcNCQIFLh04qN3c5od7WStFit+8MMfsblKfW1ngkA3NBX21l0McYRcbngXZ+GlWvMeL9z+AErVGm698Qbs2rkDbp8f7506BV84gmyhiCNHL8HX/+1rvNtbOH2SXQCjI8Pag5eIIex28w6SAohmFuaw5PIinS+iUC4hXywxOSAG3t1N/7VsBq7MWAMsZgsGBwcwuXMCEyOjfAwFN3oCQYSiMSYuFFLAloaeHjgH+vFHf/JfMDiydZqbbCflIK6FMJWm2JZsGrlEAiG3C77FOXg9Pri9Prj9fhTLVcbU9OROxtTJOqbIunTRocN49bXf54BVxhSqGB0ZYUzlkoRRF6KBOqbm57C4jKky8sVie5jaMY7x0TH0dHchUcdUkDCVz9dTdrtgJkz1O/CH//k7GBozynKfS6xqmPJzdgw1Nwq53fAtrNRTRC5vvfF6NvN7/AFNT9HiXChi/4GD+M1v/QH6+/uxeOZ9brQ0NnoWU5qe8sLj9mJ2gTDlQSpHeqo1psykp5z9mNwxgYmxOqaSKT4H1lN5qvIIbswkMPX7f/wnGNs5dS5FuiFz67gYiCDIaY6CHIgARblZk14nRzrPVaWWZSuCqKRIn8nuBTmLQfRh0Cu1TM2aVlRSpKCivXv2YGrXJJYo3Wp0hP1ctAP96c/fRC5H13T2td0JQi4VRTYe4QePHhT/0jw83gD8AT/8vgAHZR2/+SbYrBYsuD2Ym19k/zHlA7/0m78DalQjXsVcBpmonyuR0XixUAhB1xLm5uYwMzcHfzCCNEXylspcgGaASuF2dXFAGtVA6LXZ2YxH1oig38/BSDQvBUTa7Hbk8wUkE0ktZoHSJ6nJD2r84O3duwff+uM/BT2wxuvcSYB9xqkYl13O1zHlW1qA1xeA3++Hzx/gJ/74LTfD3mvFotuDWcZUHM7hYbz0zd/CxZdfeRZTtGuM+DRM1V0MAdci5ufnMTNLmAqzCZdaLw8OD2Ggf0DDlMWKgSEnbLY+xlQ6mUDQ70MmpYOpZJKxpWJqz55pfOs//ikHtxmvcycBwlQ+TXEIEeRT+nqKAgJvveVm9Nl6seTxYnZuEcFYDANDQ4ypo1dctXwB5AZLR7zgTIhkEnGhp+bnMTs7C19AwtTQELsoNExZMDA4CJtdxpQfmVSK9ZSDsnHsfZqeWoWpKsw9ZuzePY3X/sN/YuvrdnxJQYoii0G4GAQ5UC0IwnKgEgRRTblhLwYRHtwoBkFUUmxEEOipJoLwWbkXA5nLD+zbx9H0H7r2GvZj0c2klBcyTb/99q8vGIJAF0qd9lIhLzc/SgT88M7PY2F+Hv5gAKFghOsUXHHZpRx4M7+4yD61LosZTz77Am75yEdXRNxSUROOOM5lkAwE2CRMLouTJ9/D3Nwi5/pOHziIa286joNHjsDRP8A7vh6LhVN6rFT0iHYLqRQ8Swv4yT/8Ld779Vv8N3IvEDEoUPe+UglZ+lnU4hmo1O3Nt92KL37jt42AxPNA61COeirkYStCwh+Ab0HDlC/gZ0xRgaErCVNdXVhYXMKSzweT2YwnnnkOt95z7wpMlYt5pMI+rkqXqGOKYhpOnjyJ2dkFxtSu/ftx7U234uCRizluQQ9TmTRhahE/+f738O5b/8JpiSqmKAiN3BSEKXIx3HT8Frz46u9s6ajy8wAOHTkFrrFBeiqbQiIQ1DBFm46ApqeqphquvPxydk2ynvL6KD+aS6rf/rH7FUwV2HKqYSrIeirg1TA1N7uASDKJqb37cO3Nt+KiiwlTTg1TZgv66sGz9HsmnYbXtYh//v7f4Z23fskBroSpAlV7ZT1V5MBGGVM33HwTXvzGb28794K4ySaT6TsAqBcD7bTlSooik0GkOLYqtdyUIAjTgkhvFO4FUSxJWBCEe0Fu2CRnMawiCGRmuu34zXB5PBgeHMTw8DBm5+Zx5RWXsQXh5Mn3LyiCoDVuCoC6jqXjUXhPn8HC7CwWl1wIh6OszKd37WSQu70BZEoFPPjEU7j7wYc5Mlh+lUsFjSBk0ohQ8FgihkgwiPfPzGBmZg6ZUhGf+vxLuO2ej3Evh2Yv6tr3sx/8b/zXP/sOal2awqaiOWThochiihmxUqnnHjO7H+595FE8/NSzHVFGxiAfTAIapoIoZlIaps7MYHF2FgtLSxqmYOJgrkKpCDcFmxYKeOCxJ3HPQ4+xNWklpopsQcgRpijINR5FJEQxAzM4MzPLJuRPfO4LuPPE/S2DUqnR0y9++H8YUxWYdDFloQqhdUyd+PhDeOTTzxmk84PBoSPfljGVicc0TM3NMsEkTJE1cff0JG8eCFOpQh73PvwYTjzypLbxkF7Ue4P0VC6TQsRFmIohGg7ifer+OjPHAYqPP/s53HXfx1su5ESG3/yn7+G/ffs7KFWqHFOj6ikZU3c/8CAe+/RzTEK326vuYiCC8JcSQSCSIKc5ihRHIggie0GtoshWg/qrZbMmQRLkSop6WQykWcR/EYdABOE5tZujo68Pt9xyE372s19wTe2LDh6Aa8nNVgX1tZ1dDMzCqhVkYkFuhkLmtsDiAmZOvsemtlCYYjJMsPaatWIx2Szu/th9ePTTz8JBrFp5VUpFXhhy6SSCtBi43YjH40w25ubnuMTu8197Fceua91JsZDP4p2f/BD/63+8zlXyKAiNrAaVchkWsxn9xOStVuRLJWQyWTzxzPO45a6tU5Z0uykH+Xp0MfU+7fhnEQ7HuChMb68FiVQakUwWd330BB77zHPo16lESMo8GwtyH4+Qa4ljGuKxOBZdLszNUdnmGj778tdx9Y23tFzIqVX4u2/8iDGVSKc0TJG7qlTmss8DVACMGumUSkhnMozz2+65dzvfqi1zbVQoTdNTlOqYRHBxETNsRZphPVWt1mAzo4LiAAAXDElEQVSzWRlT4UwWd3zkbm6eNTC4uhIhWSMovTuXTiHocmmYisexRJianUOhWsVnvvQV7qTYqnYKZYK9+9N/wt9893XEkknGVI76N5RKjCmKdyOsF8oVpFJpPPzU07jjxP0tx90yN0ZeySmmrKvrzxSCIPowEFEgUkBkQQQoyjEIaidHXYJAH+pVUhRuBrmSoghSFC4GUSyJyIH4TwTheZUgUGrc0Ysv5uj8dDrD5ifyZ1IK34VGEKj+QD4R4vQ0ihvwzs3h3bfewszMLBezoeIe9HBSpPjegwfx8u+8xqWX9V704OUSYa4/TsFk/qVFRCMRLmSztLSEHnsfXvjav8KBI0db4p8sCK5Tb+HvXn8dLrebS/aWSmVYrWYurkPR6OQzDkcjKFeBZ770Mo5efqzluMYBGy8BFVO++Xm8w5iaQTR2FlMUjzK9/wBe+d3XMDaxU/fEqLVzNhHirBgKTvMvLmiY8vmwtLiELpsNn/vqN3Ho6GUtL4wxdfpt/P2f/znjkUr2FktlbhxFrglS5hqmoihXq/j0F34Dlx27tuW4xgEbLwENU2FtI0OuS4GpM4SpBCrcRlHTU7v27sdXCFM7JptiKkd6yu2pYyoMj9fHuIDFiudeeXVFLEyjKyQLgvv0r/EPf/E6FhYWz2LKYubYKQq2JUIciUVRLFfw1Asv4cprruOMre32qlsQvl0nCCL2QKQ4ilLLsgVB7eSo1+6Z97EqKZDbPYtYhEbtnkU/BlFqmciBKLn80O0ffuj5WDyxqtwZRcyTOYirYFGxlJLWBe5CIwhUqSwbD3JPgwz1X1hYwNv/701O+6JdFtUsJ0Zsslrwym/9Li69+kMNca0p8wgHqUUoyHFxCUGfD26PFy7XEsampvHZV76BicldLZ8NAlsy4sM//fVf4L133kMhl2O3AtVSHx4a4rgDql0+v+SCc3QUz37pK5ic3tNyXOOAjZeAhqkQ15/PRCPwSZiKpwhT3VrGgdmML//rf4PLr72+CaYqyCbCoFbSjKmlRYQoG8LjxZJrCcM7p/DcK9/Azl27W16Yhik/fvw3f4l33n5HwpQZQ0PDnFpZqmOqf2QYz7z4Ci82xuvcS2AZUwUKWo3Av7iIt1hPzSCeXIkpCkq86vrGVkptLA1T0eBKPbW0tIjBiZ147uWvY2rPvpYXzplg0UAdU79GnvQU9YkxmzE8PAS7tVfDlMsFx+AQnn7xy9iz/6KW427FA8rlctVsNhNBEDEIagaDXoqjnOYoUhwbuhiEXGTCIBMEkcmgV01RWBBEqWX6edfNt937QjqdG1yvwLe9i4FTEiPcSjnh88AzN4t333kXs3MLyKQz6LGYWZnvO3oxvvZ7f1hPRdSXZpVMd4kwxyDEgwH4XItwLyxgYXEBPl8A+49eis986aucAdHOi7oD/vP3/hJv/fItFIoF5LJZrnkwMjjI5rtUPo8z8/O46Oil+OTnXmx73HbmNo5ZvwS0Kp0RFLNJJH1eeOZm8O475LaaZ9M93btcqYg9hw/j66/9UdNCMUw64yFuk5sIBuFbWoRrYQGLSwvwef3YffgInv3yN7jscTsvspS98fd/hV+9+auzmDJbMDI0tAJTZOUiTFHpW+N17iUgMFXKkp7ywjM/i/feeRczhKm0hql8qYjpiw7hq7/3B1z+vdFLYIpbSROmWE8tanrK68PUwYvw3MuvYnhsvK0LJ0z99Pt/jV/+/JcoUIGwXA69PWaM1jGVzudxen4e+y46zBaEkfHtmTbrdrvj09PTfwLgH+sBisJ6INwMIkBRTnMUWQzCeiB+rpC9XgVFOkCkOeoVSxItn1ULgohDoGDFvVdcef2rPdaBixoVQmqFgO1OEOj6s0lKH4ojPD+DpdNncPrMGbg9Pq50SMGEZVRxyz0n8Phnv9BUXBSkSASBMyLCQQTcHizNzbFfj6KNj179IXz6xS+jj7IX2nhRv4i3f/ID/MsbP0U6k2U/NKWjOmx2mHp64I9EsOjx4OobbsYjn37WaMLUhkw36xDCVIFMuAszcJ0+jVNnzsDj9iEpYerGu+7Gk8+/2NQfy3EtiRBnRCRDIQTcbizNzWNubpZTJg9feYz9xXoxMXrXSpj69Rs/xK9+8s8cu0LZDRR70G/rg8ncg0A0wum8V113Ax59+rPoc7SH1c2S64U8Ty4Z1fTU4iyWTp/G6dOkp6gPRwY93T0ooYrr77wLn3j+xaZBgBzXEidMZZAIa5hykZ6am+N03IOXXY5nv/w13ZgYXUxVq3jnjR/hl//3J9x1ltIeZUwFo1HMu924/JoP4fFnnoejf3X81la/r0Tgvv3tb5954YUX/j2ABal6oghS1Gv1LDdpEtYDrazu2ZdumqP4syAOahaDXstn0dVRDlS0j0/sfHLv/ktPVKqm4fWQhAuBIJBLIB32IzB7BjPvvcuFQvyBIDLpLBf4qHWZcO+TT+GuBx9tSRBytNsjghAMIRIOYmlmBqdPvQ+fP4RLrv0QPvXFL7etzAl03rmT+Nk/fp+7S1KTnn7Kc+/uYl/x7NIiwokkZ0Xc98iTLSOOt/pDuJXOP5+OI0WYmjmN2ZPvYWHJzVUwqWytwNRHH3sC9zz0RFN/LBEEtiBkUkiEQoiGQlicPYMzVAjHF8ThY1fj6ZdeaVuZE6Z88+/jp4SpMGEquwJTcxQIGU/glrvuxgOPPcUuLeN1fkiAMLWsp06+xyWR/X7CVGYZU3c//BjueeTJpqmpy5iilMlgmDMYlmZnGFNebwAHr7gSz/zGV3UDHPUkQZjyL5zCGz/4B+4VQu5QypYTemrO7UIoGsdNd34YH3/y6W2JqZMnT0a/8IUvfO/HP/7xf683aJKtB3rxB3IWgxx70BZBEDEIdD/kLAa53LKwIMj1EAQ5EEWTrN3d3WODQyMnJif3XDM8tnPCbLYMAKYVMQkmyeMhR0PQ5x/60FV49esvcbAJxSoQGPRejf621s/ZbNJgnk59rs5RzKU51zxCpltm0T74fH5ks3mYzd28GN/xwIM4fs99TTUF+fbyxPKzKaTCYaRicbjn53B65gyCgRAz84effo4fPD056l1fsZDBz3/wt0j4g2xOMlvMXGiHopXnlpY44vjOj96HG2+/a8VOdK2y6qTcmwlpree1GZjbiDmoaFY65EF4aZGtSF6fn/9nMzlunkRa4LZ778dtH3ugKd7JHEwENp9OIhUJIRVPwlPHVMAfxL6jl+DRZ85Gq7cj30I+gzd/SJgKcaE2Mk/TY51IC0zVcPvdH8XNd96ja91oZw4ZAxshXxVj22WOZs9hsZBFKuhBZJEwNct4Ij2VyeRYT1GxpOMn7sUdH3uw3tNFX19T0HUhFeUsBg1TCXgWSE/NcHG4PUeO4LFnPw/n0PCymJvJlw4ivP/iR3+LuC8EmGqcaUV6ijrXzrlcyJXLuPUjH8Wtd51g8tKu/lveKW/ymtAOfiuVStXn8yW/+93vBl5//fU333rrrb8rFotByXog0htVgiD6MMhNmkhcghw0jUGQOzuqwYqCINAxKkEQNRFEsKJsSSCHFIW0UsQRlbASGRA0hkw6ZFcGzS0TiWZ9Xel7esyh2ed0D9b6nbUcz8/aFptjq8lko89Xbn++ak3o0L3tNE4Mmay8U1vxHurvgjqrTzYaJ53G9XaWibogy8GCYuGW3QFi909ugxSAeQBUI4CqJ4p4A/FTJgd6RZLkHgwyQWhYKEncWPGYqVkMoh4CLe5qyWU15VGujSCsCuIYOU1SjCXSKOXqjXIcxApiJSloeSFu9l7voVAVSLtjiZuqHi/P8UHH2ow5tppMxPlupNz17uH5jBNDJisXz0ak4Hy+h8azvvoeXigyEdcpEwM5aFDuvEikQCz0qoVAjxzQ8fS5TA5U94I8l7oerIpBUAmCGocg4hFERoNwMYjOjnLpZdnlICwLKkEQlghBDuR0StmaQeclyMoKdiPVblA/l1msupuXlUWjxaadz1sx5VbKW++8Gl1Hq8V8s8+3kQwvZJm0izmV7G5nnBgy0ayV5/JZN/Tf2SeuHctyO7q0U/pPz4Ig7+xFvQJR4EgmCbT4CyuB3vtGwYlqDQTVarHCDicuVHwohCN272Jx1iu5TAu+2v5ZtiTovSeyIFsgVFeDbLWQz0E+P9Xk2+x3OaZCPq7R52sZWxy71eYwznf1XTZkYsiknWffwImBk07hRLUeiI2CWLBV14KofigKHonaBnI7Z5koyGRCbvEsl1duWkVRtRjoLcJikZZ39yJ2QLgZ5GBFOfVR9GmQP5NTJOUukY2sB6oloZ2bs9HHNGKhGz3v+Ty+IZPVd8eQyfmMWOPc1isBA9ede9ZVC4KaVSD3TKCFXSz6sqtBjjWQ2zqrpZXFWPRdEd+gZz1YEfOhWhBUkiBnMtCxYiGXd/5qXQRBCFRiIH4XxEIlCGJ8QUrkc5OJQiuTnWBieoRHvnh5fPXzTs6x1rFk4nYuzle2jOhZlhrJai1yX6tMmt2rzTjfzZhjq8lkLecrWya3M04MmawMAJfve7t640LRf/JzoFoT1DgEsbiLQkdy2WRBBOS2zoJACFIh3Apq9USZkKgWdv5dz8UgTlxeqOm9aIMlxwwIF4PsatAjDHK8gnAxyFkMsgVBnJdMCtpZIGSBq9clbkAr31GjhUBPeK3maDVWo8Vf7zpUxdNobr17ql67el7tjrWW892MORop41ZyXwtOWo1lyEST0Hqfz83A9VbDiSGTsySjkb5uV2ed78+6akGQd/Ri8ZZdDSJoUSYAstVAJQbCtSCnNaoVFElGcg2EphaERrt2ERsgiIIasChnNeiRBYo9kIssqZYI2XpAJyzPJy/OQhmJh0gFgLwYNiIFMgHSey/P0ep9q7FUgG/0+crzdfLcW421Fllv9j1sJZONuoeGTJpHp7eS+4WCk1ZyaITfVrheC/7WMtZ6x13LHNtZJgLXtCjLMhFylVMO5R2/sALQ3/WCFgV5EG4IOQNCfEctqywTEnmdXSYJKhMTB8m7d3FBwqIg7/ZlN4HsOpBrJcipjHrWA5kcyC4NdWfSjCjIrLuRWUtVOI1MXu2OJcuq2Vjqcer5NTvfTs3RaJztLJN25SyOk/HV6J60GlNvrE7dw07gpNX5q8//+Y5r41k/S8Ia3dsLAdetdOz5qv/EeYmFmn4XBEFezGULgLzwyxYFtZWz6lZoJzhR3sDyuTUiCPLfBDFQf8oNnIR1QCYMMjFQiQT9LoiBIAXipzp3I2IgL27qe73fm4Gk2Viy0lcXgEYLQjufq+Ouujn1E17PWHqWlI2SSbP7o6ec1nI/DZm0l+ff7r1thOXzFdeN8LOR57sZz85WxfVGyn2ryuSD6j9x3WocgiALeq4GYRFQyYJqNZCtDs0KI+m54RoSBNnsIVsSZLO/eK+SBDXwULYYiMBGuSqjbDGQx9cjLoKgCLYln5seuFQwy24J+abS5zS3qhjk42WZiLn0zrHZHHrnq86h+qTamUNcZzvnux6ZyNfezhzqA6PKpNX5brZMWp2v+Huja9+M892MObYartcrk+3+rDfaCBn6b3U9inZkspH6T0/3yGZ/ei8WdjpWdjnIRY/UAkgyMZAtBzQe/S7Ih978Kz5rZkEQuxL5GLFIy3URhCWACAC9F0GMjX6qFgMR/KguoGKuRou/rLjlh2Itn4trXMt3ZHmoJli9cTZqDlUuaz2vRsdv1PnKstqoOQyZnH28O4WH7YKTjcLcZuB6o+bYyjLZbs+6ujkURKFR6qMgDmoQoxyEqFoNxFiy7OQARZUwtOVikEEkFm35p1ojQa9mgkwKVIKgZzloRFzUnbzYjapKrNHnzYhEJ8dq9OBttTm24vnKIFetQhciTtZ6Dy+EZ2etMlnPBmSrzbHVznczdOxmyERPX6lWBJUsiJgEYRGQSQERBtnyoBZDksfW23y3bUFQLQfii+qCrrfgyxYG4VKg7+tZHmRLhXxDxHsVCOKiWlk/VDbUjvlfvVkbPccqxtbGB2u9jmZDrnWsRsd3co5OjrUZ57sZc2w1mbQB41WHrBWLhkzWJuW1yvdc47rR1a31Os5nnIi1TbUeiDVOLOb0u54lQY8ICIKguifE72IsvfVxlayaLYDNdvEqSRAWBZUA0OcqQZAJgRhH/FSZumoxkAUqE4hmn6tjNjLXqe4CAcR2Pm82RzNTbyfn6ORY4nrauXaZ1KmylcmdOtZ65xAPjwzmjcbJZt1DQyZrL7TTCKPbGSedetabPZ+dmmOznp2tdr56z7qMWZkcyLt+sdCLz9RsB9WNoFoQ5HnFs6Oupcu6td0dsjhOtSoIYiA+V4MO5b/LJEIdT/xNZVTycXoXo1oZWh0jL+R6RKHV9/Xmayjc+mRrPUe98Vp9ttY59Fh1J+cwZLI66LWT8tXbebTzWSdw0go77cyxEc9hO9evN28759sKzxeyTFrJZq3ybfWcbNQ9bDXvWq5jPTKRCY54L9dEUAmDalEQa5cc1KhaIFQCItZXvY0dy7kdgqAeI//eKH5AL+NBJQvy/DJBEMJRd+Uq41LPS17c5WPVGyuEpPd5u3OozPtczbHVzldl+e3cQ3UnKIN6O9xDQybrr5wn46eRHDdDvpsxR7vPuiGTs3RNz2p5vuFEXZz1fm9kTaArlYmC+F3oTNnyoOKn0e8ryO5aCIK8AMvfE+9lAiAvoKobQf2u3jnoja8Sh1YmJXlhEQuJuriozF8F1Pk4h3zOKik6H89Xvm/qPdQDqXyvGt0P9d5eSDJphWs94r/dcbJdZaLiutniL+67+rw1+lxP7xr6T10R1u7yaoXFRpsivY3rWsiCOFYlBfLnzda71VfepgVB/qJMBtTP1b+pxEFWXM3G0T1R40NDAoYEDAkYEjAkcAFIoJFVQV3sVcuCIBl6x+mJTZ1n1THtWBDEl9RduLpTaWYZ0CML6sk0Ohd516/HhvWYl/od+Rpkhqd+ro7VrrlOj0TJu7ZW1o9WZnP1RhoyWcnsZSyuV+7N7uH5iJOtdr567iAD1/rulU7qEwMnmgS2ypog4g7U85WflWYEQLUkyGumjIWW5EBd4NslZs1IhXAzqGOpWQrNyIUecdC7GFnhtHvujY7bjLE2Y44PKgdVmbQFojYmbXTt56tMzuX5GjJZDShDJoZMNko3na9rQiMrgt4GVyUPqqtZb4PahtpuL0ix1UCN/Pp6JU31CIQ4edlCoV6gGKvR5+IchaDkuWWBNrMIrHWORr4kcY3C/CMrtw8yxweVSbPzleXXqfNV5S7G7eR1dHKszcKJmGcr4mSj72E7MjGe9bNWh0Z6ztB/Z1ct2aKot4M+n9aEZiRIb7OmWhLEtYhOkeq1r3nD18wa0C4xkBWe+E6jcRvdDNnCoCp9lYA0umiZYOgteM2A0GoO+RqbuQvWMoee3ORrX8tYeg9BO2Odb3NsNZls5Pm26yq5kO6hIZPGLglD/63c8G4H/aduMuVnXY8EyMfrrd+bShD0XAHtkgp1kW31PePvhgQMCRgSMCRgSMCQwOr4K9Uyom4a1i2zD2JBaDSpvBunY9Y6h97xjQjFWsxHqlVBPf+1zqG3e2xnDj2ZNLqO82GOrXa+jfDTyevo5Fibcb6bMcd2lsn58Bxuxj1cyxwXikzONa4bWQKa3at1E4L17PrXO5meyasR05EX57W+b7bQr3WsZpaNDzJWuxaTjZrDGHc1ig2ZGDJptHnZKGwY+q/5arJRcr8QxhVEZs1uhGa3ZK27+40iC+sdV/6eICTn21jNLC0dvZk6Exky6QQaGo/RSfmeS5x0UkpbTSZb7Xw3AyeGTFZL+XyVyYauIZtFEDqpgIyxDAkYEjAkYEjAkIAhgQ2WgEEQNljAxvCGBAwJGBIwJGBIYCtK4P8D+QmKswncojYAAAAASUVORK5CYII=;" vertex="1" parent="1">
                    <mxGeometry x="90" y="10" width="670.22" height="580" as="geometry"/>
                </mxCell>
                <mxCell id="4" value="" style="rounded=0;whiteSpace=wrap;html=1;strokeColor=#FF3333;fillColor=none;" vertex="1" parent="1">
                    <mxGeometry x="150" y="70" width="570" height="480" as="geometry"/>
                </mxCell>
                <mxCell id="15" style="edgeStyle=none;html=1;exitX=0.25;exitY=0;exitDx=0;exitDy=0;fontColor=#3333FF;" edge="1" parent="1" source="6" target="11">
                    <mxGeometry relative="1" as="geometry"/>
                </mxCell>
                <mxCell id="6" value="" style="rounded=0;whiteSpace=wrap;html=1;strokeColor=#33FF33;fillColor=none;" vertex="1" parent="1">
                    <mxGeometry x="160" y="80" width="550" height="460" as="geometry"/>
                </mxCell>
                <mxCell id="12" style="edgeStyle=none;html=1;fontColor=#3333FF;" edge="1" parent="1" source="7" target="6">
                    <mxGeometry relative="1" as="geometry"/>
                </mxCell>
                <mxCell id="7" value="" style="rounded=0;whiteSpace=wrap;html=1;strokeColor=#3333FF;fillColor=none;" vertex="1" parent="1">
                    <mxGeometry x="170" y="370" width="160" height="160" as="geometry"/>
                </mxCell>
                <mxCell id="8" value="" style="rounded=0;whiteSpace=wrap;html=1;strokeColor=#3333FF;fillColor=none;" vertex="1" parent="1">
                    <mxGeometry x="355" y="370" width="160" height="160" as="geometry"/>
                </mxCell>
                <mxCell id="9" value="" style="rounded=0;whiteSpace=wrap;html=1;strokeColor=#3333FF;fillColor=none;" vertex="1" parent="1">
                    <mxGeometry x="540" y="370" width="160" height="160" as="geometry"/>
                </mxCell>
                <mxCell id="10" value="&lt;h3&gt;&lt;font color=&quot;#80ff00&quot;&gt;State: eyeColor&lt;/font&gt;&lt;/h3&gt;" style="text;html=1;strokeColor=none;fillColor=none;align=center;verticalAlign=middle;whiteSpace=wrap;rounded=0;" vertex="1" parent="1">
                    <mxGeometry x="490" y="90" width="140" height="30" as="geometry"/>
                </mxCell>
                <mxCell id="11" value="&lt;font color=&quot;#3333ff&quot;&gt;Props: name, hobby, eyeColor&lt;/font&gt;" style="text;html=1;strokeColor=none;fillColor=none;align=center;verticalAlign=middle;whiteSpace=wrap;rounded=0;fontColor=#80FF00;" vertex="1" parent="1">
                    <mxGeometry x="180" y="350" width="140" height="30" as="geometry"/>
                </mxCell>
                <mxCell id="13" value="State: weight" style="text;html=1;strokeColor=none;fillColor=none;align=center;verticalAlign=middle;whiteSpace=wrap;rounded=0;fontColor=#3333FF;" vertex="1" parent="1">
                    <mxGeometry x="365" y="350" width="135" height="30" as="geometry"/>
                </mxCell>
            </root>
        </mxGraphModel>
    </diagram>
</mxfile>